<svg preserveAspectRatio="none" width="100%" height="100%" overflow="visible" style="display: block;" viewBox="0 0 157 1182" fill="none" xmlns="http://www.w3.org/2000/svg">
<g id="ve-sono">
<path d="M139.09 813.277L131.88 832.867L133.4 832.027L97.94 851.537L83.09 848.367V965.547L85.05 964.467C90.97 961.207 97.09 952.067 97.09 949.637V942.897L133.71 922.757V1069.86C133.71 1074.66 132.81 1077.33 129.59 1079.1C125.82 1081.17 108.21 1088.42 108.21 1088.42V1093.45C116.33 1091.28 120.48 1091.98 123.22 1094.57C125.65 1097.22 126.62 1103.54 127.11 1111.53C146.18 1097.78 148.25 1084.49 148.25 1064.86V837.767C151.98 834.627 154.88 830.117 156.17 826.827L139.1 813.287L139.09 813.277ZM133.72 841.117V872.137L97.1 892.277V861.257L133.72 841.117ZM97.1 933.627V901.547L133.72 881.407V913.487L97.1 933.627Z" fill="var(--fill-0, white)"/>
<path d="M49.54 969.047V984.817L51.76 983.597C56.29 981.107 63.28 971.897 63.46 969.737V883.307C66.59 880.617 69.19 876.477 70.29 873.607L54.93 861.557L47.82 879.097L49.53 878.157L15.25 897.017L0 892.827V1181.45L2.46 1180.1C9.26 1176.36 14.4 1166.97 14.4 1163.43V988.377L49.53 969.047H49.54ZM14.41 979.117V947.037L49.54 927.717V959.797L14.41 979.117ZM49.54 887.427V918.447L14.41 937.777V906.757L49.54 887.437V887.427Z" fill="var(--fill-0, white)"/>
<path d="M114.77 976.417L99.41 964.247L92.35 981.877L93.95 980.997L54.16 1002.89L39.59 999.677V1132.16L41.72 1130.99C47.51 1127.8 53.32 1119.07 53.32 1116.64V1103.46L93.97 1081.1V1099.05L96.19 1097.83C100.92 1095.23 107.84 1085.47 108.02 1083.08V986.067C111.2 983.347 113.75 979.357 114.79 976.407L114.77 976.417ZM93.95 990.267V1025.26L53.3 1047.62V1012.63L93.95 990.267ZM53.3 1094V1056.88L93.95 1034.52V1071.64L53.3 1094Z" fill="var(--fill-0, white)"/>
<path d="M17.21 232.347C23.23 228.707 25.97 216.717 35.97 198.427C42.56 186.187 54 169.257 63.34 158.217C65.66 155.367 65.99 156.937 64.3 161.497C57.27 178.597 48.91 202.287 48.91 230.647C48.91 261.477 59.52 275.587 74.15 275.397C79.31 275.417 88.24 272.407 96.21 267.587C105.5 261.967 110.39 254.687 110.39 241.367C110.39 231.647 105.52 224.547 101.16 225.737C96.32 227.217 88.36 234.217 79.66 236.117C67.7 238.757 59.87 232.957 59.83 212.427C59.79 189.337 65.56 172.657 71.89 159.457C81.3 140.287 97.77 126.527 107.05 120.477C113.32 116.427 119.15 113.547 123.17 111.107C130.37 106.747 133.38 99.5167 133.38 91.3767C133.38 77.0567 121.79 76.5967 114.27 81.1467C107.04 85.5167 99.55 96.0067 88.14 109.497C77.18 122.537 57.67 146.687 47.13 158.297C46.17 159.197 45.96 158.267 46.63 156.337C62.19 119.337 88.01 66.0867 100.47 41.6967C103.59 35.6867 107.67 31.2967 107.67 23.3467C107.67 10.0967 93.9 -3.34335 87.13 0.746653C83.21 3.11665 82.48 9.94665 76.39 17.5767C64.41 32.3667 49.02 48.3867 44.07 50.9067C40.7 52.7067 37.4 41.9367 35.13 33.9867L33.28 35.5367C31.73 42.3267 30.03 53.2567 29.99 59.1967C29.73 76.8167 41.53 88.6567 46.45 85.6867C51.37 82.7167 54.47 74.8967 59.05 66.3867C64.33 56.7466 73.88 39.7167 79.68 32.4867C83.04 27.9167 84.07 28.9467 81.85 36.4467C75.07 61.7067 59.87 101.977 52.34 120.597C43.3 143.787 34 164.887 26.57 176.907C22.43 183.847 15.7 191.537 11.94 196.637C8.02 201.947 6.61 207.457 6.61 215.197C6.61 225.027 12.26 235.327 17.22 232.327L17.21 232.347Z" fill="var(--fill-0, white)"/>
<path d="M24.7 536.787C41.35 526.717 59.51 448.937 65.94 409.077C70.86 378.207 71.8 359.287 71.8 342.407C71.8 331.187 71.38 320.217 70.22 309.257C72.07 307.877 73.93 306.627 75.78 305.507C101.17 290.147 119.84 305.317 126.62 331.277C130.13 344.707 131.59 358.627 131.53 372.667C131.41 398.897 125.95 425.497 118.53 449.887C107.75 485.347 90.76 518.827 68.79 548.667C126.3 489.657 140.49 425.657 140.49 369.877C140.49 296.477 116.09 266.827 76.17 290.967C58.01 301.947 39.28 326.497 24.71 361.727C10.51 396.367 1.43 433.787 1.43 471.587C1.43 515.627 13.35 543.657 24.7 536.787ZM17.12 448.447C17.87 418.727 24.7 390.107 35.39 363.327C43.71 341.047 54.61 324.427 65.82 313.827C66.26 323.457 66.35 332.127 65.81 342.857C65.15 356.747 63.39 376.917 59.05 400.027C52.56 434.017 39.06 491.157 28.72 497.667C23.15 501.177 16.26 482.507 17.12 448.447Z" fill="var(--fill-0, white)"/>
<path d="M59.6 593.257L57.86 596.077C60.76 604.857 64.1 619.007 64.46 632.977C77.33 647.267 94.01 590.077 59.6 593.257Z" fill="var(--fill-0, white)"/>
<path d="M136.44 623.847C140.67 617.577 144.93 610.967 148.01 605.867C151.37 603.497 153.19 601.817 154.52 598.177L137.8 577.257L128.2 601.627L128.93 601.187L114.76 609.757C123.64 592.507 132.58 572.007 138.07 556.307C141.99 554.517 143.94 550.747 144.63 546.407L119.86 547.147C117.68 566.407 113.68 592.717 109.32 613.047L58.78 643.617C58.34 638.427 57.67 632.997 56.73 627.397L53.95 628.737C54.53 639.087 49.89 657.087 46.72 665.027C42.75 673.247 40.53 683.887 42.84 690.847C45.54 698.967 53.65 693.097 56.32 684.177C58.61 676.307 59.74 665.457 59.33 652.757L128.79 610.747C128.09 615.967 127.28 621.727 126.52 626.937L115.8 631.357V663.507L97.2 674.757L85.77 662.697L77.14 684.897L78.95 683.807L73.59 687.047C74.78 681.207 75.91 675.257 76.95 669.187C80.65 667.037 82.68 662.707 83.37 658.117L61.78 659.497C58.33 702.557 50.73 746.307 41.79 777.627L44.08 779.437C48.25 770.937 52.19 761.557 55.87 751.437C56.9 756.587 57.51 762.407 57.36 768.247C67.07 780.067 80.5 741.417 61.09 736.037C64.82 724.187 68.21 711.467 71.23 698.037L78.91 693.387C78.32 719.787 73.2 796.727 35.53 872.707C71.28 818.807 87.04 754.027 94.59 689.107V756.827L82.31 764.257L83.69 772.977L115.79 753.567V822.637L119.11 820.627C125.02 817.047 132.58 805.857 132.58 802.877V743.407L150.7 732.447C153.12 730.987 154.67 728.367 155.14 724.407C150.54 716.857 142.38 706.497 142.38 706.497L135.3 732.207L132.58 733.847V662.827L148.32 653.307C150.56 651.947 152.12 649.337 152.63 645.337C148.71 638.787 141.88 630.177 141.88 630.177L135.95 651.317L132.58 653.357V631.587C135.09 629.307 136.02 626.797 136.43 623.857L136.44 623.847ZM115.8 743.997L108.42 748.467V677.447L115.8 672.977V743.997Z" fill="var(--fill-0, white)"/>
<path d="M46.04 594.347L46.48 599.317C58.69 591.987 71.74 583.027 84.42 573.427L83.39 575.047C86.92 584.537 90.31 600.667 90.29 616.027C103.07 630.787 119.42 572.867 85.86 572.327C104.28 558.267 121.81 542.897 134.67 529.217C139.76 529.547 143.23 526.567 144.99 522.427L126.36 502.957C108.78 529.407 74.43 568.767 46.04 594.357V594.347Z" fill="var(--fill-0, white)"/>
<path d="M8.93 860.897V829.087L29.81 816.457V839.227L30.85 838.597C33.61 836.927 37.41 829.947 37.58 827.827V599.447C40.86 596.127 43.97 591.567 45 588.257L33.26 577.277L28.25 592.027L29.45 591.297L9.78 603.197L1.32 599.267V871.857L2.87 870.917C6.32 868.827 8.91 862.907 8.91 860.897H8.93ZM8.93 819.377V755.077L29.81 742.447V806.747L8.93 819.377ZM29.82 732.407L8.94 745.037V683.417L29.82 670.787V732.407ZM29.82 600.797V660.737L8.94 673.367V613.427L29.82 600.797Z" fill="var(--fill-0, white)"/>
</g>
</svg>
