<svg preserveAspectRatio="none" width="100%" height="100%" overflow="visible" style="display: block;" viewBox="0 0 327 75" fill="none" xmlns="http://www.w3.org/2000/svg">
<g id="whsj-tx-box-01-a" clip-path="url(#clip0_192_34)">
<g id="whsj-make-ve">
<path d="M30.75 75C29.97 75 29.23 74.89 28.54 74.66C27.85 74.43 27.25 74.1 26.75 73.67C26.25 73.24 25.85 72.7 25.56 72.06C25.27 71.42 25.12 70.68 25.12 69.85C25.12 69.28 25.2 68.77 25.35 68.31C25.5 67.85 25.72 67.44 26 67.07C26.28 66.7 26.6 66.34 26.96 66.01C27.33 65.68 27.72 65.34 28.14 65C28.5 64.71 28.83 64.42 29.14 64.15C29.45 63.87 29.72 63.59 29.96 63.31C30.2 63.03 30.38 62.74 30.52 62.44C30.66 62.15 30.73 61.84 30.73 61.51C30.73 61.12 30.65 60.78 30.49 60.49C30.33 60.2 30.12 59.95 29.86 59.73C29.6 59.52 29.3 59.36 28.97 59.25C28.64 59.14 28.29 59.09 27.93 59.09C26.96 59.09 26.17 59.37 25.57 59.93C24.97 60.49 24.64 61.23 24.57 62.16H24.06C23.98 61.74 23.85 61.26 23.67 60.72C23.49 60.18 23.27 59.67 23.01 59.18C23.84 58.66 24.65 58.29 25.45 58.08C26.25 57.87 27.13 57.76 28.11 57.76C28.89 57.76 29.64 57.87 30.35 58.08C31.06 58.29 31.69 58.62 32.24 59.05C32.78 59.49 33.21 60.03 33.53 60.68C33.85 61.33 34.01 62.09 34.01 62.95C34.01 63.49 33.93 63.97 33.78 64.4C33.63 64.83 33.42 65.23 33.17 65.59C32.92 65.96 32.62 66.3 32.28 66.61C31.94 66.93 31.58 67.24 31.21 67.55C30.74 67.94 30.32 68.29 29.97 68.61C29.61 68.93 29.32 69.23 29.08 69.51C28.84 69.79 28.67 70.08 28.54 70.36C28.42 70.64 28.36 70.94 28.36 71.25C28.36 71.53 28.41 71.8 28.52 72.07C28.63 72.34 28.78 72.57 29 72.78C29.21 72.98 29.48 73.15 29.79 73.28C30.11 73.41 30.47 73.47 30.87 73.47C31.8 73.47 32.49 73.21 32.97 72.7C33.44 72.19 33.72 71.54 33.8 70.76H34.34C34.45 71.2 34.58 71.64 34.71 72.09C34.84 72.54 35.07 73.06 35.39 73.66C34.66 74.13 33.93 74.46 33.2 74.66C32.47 74.85 31.66 74.95 30.79 74.95L30.75 75Z" fill="var(--fill-0, white)"/>
<path d="M49.39 73.82C49.44 74.07 49.53 74.37 49.66 74.71C49.37 74.69 49.03 74.68 48.64 74.66C48.25 74.64 47.84 74.63 47.41 74.61C46.98 74.59 46.54 74.59 46.08 74.59H43.23C42.16 74.59 41.13 74.6 40.15 74.63C39.17 74.65 38.19 74.68 37.21 74.72C37.18 74.33 37.13 74.01 37.06 73.76C36.99 73.51 36.9 73.2 36.77 72.82C37.39 72.87 37.95 72.91 38.45 72.93C38.95 72.95 39.5 72.97 40.08 72.97H41.35C41.17 71.9 40.98 70.85 40.78 69.81C40.58 68.78 40.36 67.74 40.13 66.7C39.82 65.22 39.48 63.76 39.11 62.33C38.74 60.89 38.36 59.47 37.99 58.08C38.27 58.11 38.57 58.13 38.9 58.13H40.94C41.28 58.13 41.63 58.11 41.99 58.08C42.2 59.48 42.45 60.86 42.75 62.22C43.04 63.58 43.34 64.97 43.65 66.39C43.96 67.77 44.25 68.98 44.52 70.02C44.79 71.06 45.04 72.04 45.29 72.97C45.86 72.97 46.47 72.96 47.12 72.93C47.77 72.91 48.48 72.85 49.26 72.77C49.31 73.22 49.36 73.58 49.41 73.83L49.39 73.82Z" fill="var(--fill-0, white)"/>
<path d="M57.93 67.71C57.65 67.69 57.34 67.69 57 67.69H53.9C54.03 68.34 54.2 69.15 54.42 70.13C54.64 71.1 54.89 72.08 55.16 73.05C56.02 73.05 56.73 73.05 57.29 73.04C57.85 73.04 58.33 73.02 58.74 72.99C59.15 72.97 59.5 72.94 59.79 72.92C60.08 72.9 60.39 72.87 60.72 72.83C60.69 73.17 60.7 73.46 60.74 73.71C60.79 73.95 60.92 74.29 61.13 74.71C60.58 74.68 59.93 74.65 59.19 74.62C58.45 74.6 57.66 74.58 56.81 74.58C55.96 74.58 55.03 74.58 54.09 74.59C53.16 74.59 52.32 74.63 51.59 74.7C51.52 74.18 51.42 73.47 51.26 72.58C51.11 71.69 50.93 70.71 50.72 69.64C50.52 68.58 50.3 67.46 50.06 66.3C49.82 65.14 49.58 64.02 49.34 62.96C49.1 61.9 48.86 60.93 48.65 60.06C48.43 59.19 48.24 58.52 48.08 58.05C48.73 58.08 49.42 58.1 50.16 58.1H54.94C55.78 58.1 56.68 58.08 57.66 58.05C57.63 58.24 57.63 58.46 57.67 58.71C57.71 58.95 57.84 59.32 58.05 59.81C57.71 59.78 57.4 59.75 57.12 59.72C56.84 59.7 56.57 59.68 56.29 59.67C56.01 59.67 55.72 59.65 55.41 59.65C55.1 59.65 54.74 59.64 54.34 59.64H52.39C52.52 60.73 52.69 61.81 52.89 62.89C53.09 63.97 53.31 65.05 53.54 66.12C54.42 66.12 55.35 66.11 56.34 66.08C57.33 66.06 58.25 65.99 59.09 65.9C59.07 66.16 59.08 66.42 59.1 66.68C59.12 66.94 59.25 67.31 59.48 67.8C59.22 67.78 58.96 67.77 58.7 67.75C58.44 67.73 58.17 67.72 57.9 67.7L57.93 67.71Z" fill="var(--fill-0, white)"/>
<path d="M72.9 68.16C73.23 68.83 73.4 69.63 73.4 70.56C73.4 72.04 72.98 73.1 72.13 73.74C71.28 74.38 70.16 74.7 68.74 74.7C68.12 74.7 67.53 74.68 66.96 74.64C66.39 74.6 65.85 74.58 65.33 74.58C64.96 74.58 64.62 74.59 64.32 74.62C64.02 74.64 63.74 74.67 63.48 74.71C63.38 74.03 63.27 73.35 63.14 72.69C63.01 72.02 62.88 71.35 62.75 70.67C62.33 68.51 61.87 66.38 61.37 64.28C60.87 62.18 60.35 60.11 59.8 58.06C60.08 58.09 60.36 58.11 60.67 58.11H62.69C63.01 58.11 63.33 58.09 63.65 58.06C63.86 59.26 64.1 60.49 64.36 61.73C64.62 62.97 64.9 64.18 65.19 65.35C65.43 65.32 65.72 65.29 66.06 65.26C66.39 65.24 66.75 65.22 67.14 65.22C68 65.22 68.81 65.33 69.57 65.54C70.33 65.75 70.99 66.07 71.56 66.5C72.13 66.93 72.58 67.48 72.91 68.16H72.9ZM69.56 69.26C69.42 68.73 69.21 68.26 68.93 67.86C68.65 67.45 68.28 67.13 67.83 66.89C67.38 66.65 66.85 66.52 66.23 66.52C66.05 66.52 65.9 66.52 65.78 66.53C65.66 66.53 65.53 66.55 65.4 66.57C65.63 67.71 65.86 68.84 66.09 69.96C66.33 71.08 66.58 72.2 66.86 73.32C67.28 73.34 67.67 73.32 68.03 73.28C68.39 73.24 68.69 73.13 68.94 72.96C69.19 72.79 69.39 72.54 69.54 72.22C69.69 71.89 69.76 71.46 69.76 70.9C69.76 70.34 69.69 69.78 69.55 69.25L69.56 69.26Z" fill="var(--fill-0, white)"/>
<path d="M79.8 70.78C79.83 70.93 79.89 71.18 79.98 71.55C80.07 71.92 80.17 72.31 80.27 72.72C80.38 73.13 80.48 73.53 80.57 73.91C80.67 74.29 80.73 74.56 80.76 74.7C80.45 74.67 80.14 74.64 79.83 74.61C79.52 74.59 79.2 74.57 78.86 74.57C78.52 74.57 78.17 74.58 77.87 74.61C77.57 74.63 77.23 74.66 76.86 74.7C76.78 74.18 76.66 73.49 76.51 72.63C76.36 71.77 76.18 70.83 75.99 69.8C75.79 68.78 75.59 67.72 75.37 66.63C75.15 65.54 74.94 64.51 74.74 63.53C74.54 62.56 74.35 61.68 74.18 60.9C74.01 60.12 73.88 59.53 73.8 59.15C73.64 58.48 73.49 57.92 73.35 57.47C73.21 57.02 73.03 56.63 72.81 56.32C72.59 56.01 72.32 55.78 71.99 55.64C71.67 55.49 71.22 55.4 70.65 55.37L70.8 54.25C71.68 54.25 72.46 54.32 73.15 54.46C73.84 54.6 74.51 54.87 75.16 55.28C75.63 55.57 76.03 55.95 76.34 56.41C76.66 56.87 76.92 57.41 77.14 58.01C77.36 58.61 77.55 59.31 77.7 60.12C77.85 60.92 78.01 61.81 78.18 62.79C78.29 63.44 78.4 64.04 78.5 64.59C78.6 65.14 78.7 65.72 78.82 66.32C78.93 66.92 79.07 67.58 79.22 68.28C79.37 68.99 79.57 69.82 79.79 70.78H79.8Z" fill="var(--fill-0, white)"/>
<path d="M93.68 58.11C94.05 58.11 94.35 58.09 94.59 58.06C94.31 59 94.03 60.06 93.72 61.23C93.42 62.4 93.13 63.59 92.85 64.81C92.57 66.03 92.31 67.21 92.06 68.37C91.81 69.52 91.59 70.57 91.4 71.5C91.21 72.43 91.06 73.21 90.94 73.82C90.82 74.43 90.75 74.79 90.73 74.9C90.49 74.82 90.18 74.78 89.8 74.78C89.47 74.78 89.17 74.82 88.87 74.9C88.69 74.54 88.53 74.22 88.38 73.94C88.23 73.66 88.08 73.36 87.9 73.05C87.73 72.74 87.53 72.4 87.32 72.01C87.1 71.63 86.84 71.17 86.54 70.65C86.24 70.12 85.88 69.49 85.46 68.76C85.04 68.03 84.53 67.15 83.95 66.13C83.15 64.75 82.35 63.38 81.54 62.04C80.73 60.69 79.92 59.37 79.13 58.07C79.28 58.1 79.45 58.12 79.64 58.12H80.27C80.72 58.12 81.07 58.1 81.32 58.07C81.94 59.27 82.46 60.28 82.89 61.08C83.32 61.88 83.7 62.55 84.02 63.09C84.43 63.11 84.82 63.12 85.19 63.13C85.56 63.13 86.07 63.14 86.7 63.14C87.33 63.14 87.89 63.14 88.37 63.13C88.85 63.13 89.32 63.11 89.8 63.09C89.82 63.02 89.84 62.9 89.87 62.7C89.9 62.51 89.93 62.3 89.97 62.08C90 61.86 90.04 61.65 90.08 61.46C90.12 61.27 90.15 61.13 90.17 61.05C90.27 60.4 90.34 59.82 90.4 59.32C90.46 58.82 90.51 58.4 90.56 58.08C90.79 58.11 91.06 58.13 91.39 58.13H93.67L93.68 58.11ZM88.46 64.51C88.08 64.51 87.7 64.5 87.33 64.5C86.91 64.5 86.49 64.5 86.07 64.51C85.66 64.51 85.25 64.53 84.84 64.55C85.38 65.52 85.94 66.48 86.52 67.43C87.1 68.37 87.69 69.31 88.27 70.26C88.42 69.72 88.55 69.23 88.66 68.77C88.77 68.32 88.88 67.86 88.96 67.42C89.05 66.97 89.14 66.52 89.23 66.06C89.32 65.6 89.41 65.1 89.51 64.56C89.18 64.54 88.83 64.53 88.45 64.52L88.46 64.51Z" fill="var(--fill-0, white)"/>
<path d="M115.8 69.75C116.02 70.83 116.23 71.81 116.42 72.69C116.61 73.57 116.78 74.24 116.91 74.71C116.7 74.68 116.48 74.65 116.26 74.62C116.04 74.6 115.81 74.58 115.57 74.58C115.2 74.58 114.81 74.62 114.4 74.7C114.07 74.25 113.64 73.66 113.11 72.93C112.57 72.21 111.99 71.43 111.37 70.61C110.74 69.79 110.11 68.95 109.47 68.1C108.83 67.25 108.23 66.47 107.69 65.76C107.15 65.05 106.69 64.46 106.31 63.98C105.94 63.5 105.71 63.21 105.63 63.11C105.52 63.42 105.33 63.98 105.06 64.8C104.79 65.62 104.49 66.57 104.16 67.65C103.83 68.73 103.48 69.89 103.12 71.12C102.76 72.35 102.44 73.54 102.15 74.68C101.69 74.6 101.28 74.56 100.91 74.56C100.54 74.56 100.15 74.6 99.74 74.68C99.59 74.06 99.41 73.31 99.2 72.41C98.99 71.52 98.76 70.55 98.51 69.52C98.26 68.49 97.99 67.42 97.72 66.33C97.44 65.23 97.17 64.17 96.9 63.14C96.63 62.11 96.37 61.15 96.12 60.25C95.87 59.36 95.64 58.62 95.45 58.03C95.71 58.06 96.02 58.08 96.38 58.08H96.86C97 58.08 97.16 58.06 97.34 58.03C97.45 58.61 97.6 59.28 97.77 60.02C97.94 60.76 98.12 61.51 98.31 62.27C98.5 63.03 98.69 63.79 98.89 64.54C99.09 65.29 99.28 65.97 99.45 66.6C99.62 67.23 99.77 67.77 99.89 68.22C100.01 68.67 100.1 68.99 100.15 69.17C100.23 68.91 100.35 68.52 100.5 68.01C100.65 67.5 100.83 66.91 101.02 66.26C101.21 65.6 101.42 64.89 101.63 64.12C101.84 63.35 102.05 62.58 102.26 61.82C102.47 61.06 102.67 60.32 102.85 59.6C103.03 58.88 103.17 58.26 103.29 57.72C103.35 57.74 103.42 57.75 103.47 57.76C103.53 57.76 103.6 57.77 103.68 57.77C103.76 57.77 103.83 57.77 103.89 57.76C103.95 57.76 104.01 57.74 104.07 57.72C104.67 58.66 105.27 59.59 105.86 60.51C106.45 61.43 107.09 62.35 107.77 63.28C108.47 64.25 109.18 65.2 109.89 66.12C110.6 67.04 111.34 67.96 112.08 68.89C111.95 67.98 111.8 67.03 111.63 66.05C111.46 65.07 111.28 64.1 111.09 63.14C110.9 62.18 110.71 61.26 110.52 60.37C110.33 59.48 110.14 58.71 109.96 58.04C110.24 58.07 110.53 58.09 110.84 58.09H112.84C113.13 58.09 113.42 58.07 113.69 58.04C113.75 58.48 113.86 59.14 114.01 60.01C114.16 60.89 114.33 61.87 114.53 62.95C114.73 64.03 114.94 65.16 115.16 66.34C115.38 67.52 115.6 68.65 115.82 69.73L115.8 69.75Z" fill="var(--fill-0, white)"/>
<path d="M123.82 72.28H129.48L127.13 70.29L128.67 68.42L136.08 74.71H120.26L119.98 73.14L124.31 67.89L121.03 65.1L121.72 69.01L119.69 71.48L117.47 58.89L127.7 67.58L123.82 72.28Z" fill="var(--fill-0, white)"/>
<path d="M133.93 71.47L133.23 67.68L136.09 70.1L136.76 73.88L133.93 71.47Z" fill="var(--fill-0, white)"/>
<path d="M131.92 60.48H124.75L129.61 64.62L130.29 68.37L118.15 58.06H133.97L135.8 68.46L132.93 66.02L131.92 60.48Z" fill="var(--fill-0, white)"/>
<path d="M42.75 35.25C39.8 35.25 38.32 33.41 37.36 31.4C36.69 34.08 35.12 35.25 32.85 35.25C30.58 35.25 28.83 33.91 27.89 31.57C27.85 32.74 27.85 33.67 27.7 34.71H23C23.06 33.1 23.06 31.32 23.06 24.7V0.0899963H27.99V23.89C27.99 27.47 28.5 29.84 30.78 29.84C32.4 29.84 33.17 28.84 33.17 25.43V0.0899963H38.14V23.96C38.14 27.52 38.67 29.84 40.97 29.84C42.84 29.84 43.33 28.2 43.33 25.65V0.0899963H48.26V26.79C48.26 33.52 45.71 35.25 42.74 35.25H42.75Z" fill="var(--fill-0, white)"/>
<path d="M67.45 26.14C67.45 31.52 65.69 35.24 60.41 35.24C54.56 35.24 52.98 30.95 52.98 26.02V25.39H57.84V26.11C57.84 28.5 58.33 30.3 60.24 30.3C62.15 30.3 62.54 28.57 62.54 25.68V20.8H61.63C56.51 20.8 52.1 18.31 52.1 10.09V9.48C52.1 4.2 53.79 -0.449997 58.01 -0.449997C60.12 -0.449997 61.75 0.44 62.7 2.75C62.74 2.22 62.91 0.819996 63.04 0.0899963H67.57C67.48 1.28 67.46 4.43 67.46 6.69V26.14H67.45ZM62.63 11.72C62.63 6.83 61.76 4.81 59.54 4.81C57.57 4.81 56.81 6.88 56.81 9.61V10.17C56.81 14.78 58.61 16.17 61.49 16.17H62.63V11.72Z" fill="var(--fill-0, white)"/>
<path d="M88.26 34.71H83.06C81.54 30.42 78.76 23.07 77.46 19.23H77.37V47.07H72.48V0.0899963H77.37V11.01L79.55 16.13L83.47 0.0899963H88.86L82.96 21.95L88.27 34.7L88.26 34.71Z" fill="var(--fill-0, white)"/>
<path d="M97.72 35.25C91.18 35.25 89.83 28.7 89.83 23.74V11.71C89.83 4.7 91.02 -0.440002 97.71 -0.440002C104.4 -0.440002 105.28 6.27 105.28 10.07V10.27H100.46V10.05C100.46 7.2 100.08 4.65 97.63 4.65C95.18 4.65 94.65 7.6 94.65 10.61V15.95H105.38V23.77C105.38 30.29 103.56 35.26 97.73 35.26L97.72 35.25ZM94.69 20.69V24.56C94.69 28.09 95.5 30.16 97.71 30.16C100.11 30.16 100.64 27.79 100.64 24.58V20.69H94.69Z" fill="var(--fill-0, white)"/>
<path d="M122.14 43.1H117.22V34.7H114.08V29.43H117.22V6.66C117.22 0.980004 119.25 -0.419998 122.46 -0.419998C123.48 -0.419998 124.85 -0.310003 125.76 0.199997V4.76C125.41 4.63 124.62 4.56 124.11 4.56C122.35 4.56 122.14 6.04 122.14 7.74V29.43H125.91V34.7H122.14V43.1Z" fill="var(--fill-0, white)"/>
<path d="M138.92 35.25C136.1 35.25 134.48 33.74 133.65 31.74V47.08H128.72V0.0999985H133.65V23.18C133.65 27.61 134.31 29.85 136.89 29.85C139.25 29.85 139.62 27.49 139.62 24.79V0.0999985H144.55V26.35C144.55 31.32 143.23 35.25 138.91 35.25H138.92Z" fill="var(--fill-0, white)"/>
<path d="M156.63 35.25C150.09 35.25 148.74 28.7 148.74 23.74V11.71C148.74 4.7 149.93 -0.440002 156.62 -0.440002C163.31 -0.440002 164.19 6.27 164.19 10.07V10.27H159.37V10.05C159.37 7.2 158.99 4.65 156.54 4.65C154.09 4.65 153.56 7.6 153.56 10.61V15.95H164.29V23.77C164.29 30.29 162.47 35.26 156.64 35.26L156.63 35.25ZM153.6 20.69V24.56C153.6 28.09 154.41 30.16 156.62 30.16C159.02 30.16 159.55 27.79 159.55 24.58V20.69H153.6Z" fill="var(--fill-0, white)"/>
<path d="M195.32 35.25C192.37 35.25 190.89 33.41 189.93 31.4C189.26 34.08 187.69 35.25 185.42 35.25C183.15 35.25 181.4 33.91 180.46 31.57C180.42 32.74 180.42 33.67 180.27 34.71H175.56C175.62 33.1 175.62 31.32 175.62 24.7V0.0899963H180.55V23.89C180.55 27.47 181.06 29.84 183.34 29.84C184.96 29.84 185.73 28.84 185.73 25.43V0.0899963H190.7V23.96C190.7 27.52 191.23 29.84 193.53 29.84C195.4 29.84 195.89 28.2 195.89 25.65V0.0899963H200.82V26.79C200.82 33.52 198.27 35.25 195.3 35.25H195.32Z" fill="var(--fill-0, white)"/>
<path d="M213.05 35.25C208.23 35.25 204.99 31.78 204.99 24.65V10.51C204.99 3.19 207.73 -0.440002 212.88 -0.440002C218.03 -0.440002 220.9 3.16 220.9 10.62V24.44C220.9 31.43 218.05 35.25 213.05 35.25ZM215.95 10.39C215.95 6.64 215.01 4.87 212.97 4.87C210.79 4.87 209.94 7.07 209.94 10.3V24.72C209.94 28.1 210.86 29.93 212.95 29.93C215.21 29.93 215.94 27.76 215.94 24.77V10.4L215.95 10.39Z" fill="var(--fill-0, white)"/>
<path d="M244.74 35.25C241.79 35.25 240.31 33.41 239.35 31.4C238.68 34.08 237.11 35.25 234.84 35.25C232.57 35.25 230.82 33.91 229.88 31.57C229.84 32.74 229.84 33.67 229.69 34.71H224.98C225.04 33.1 225.04 31.32 225.04 24.7V0.0899963H229.97V23.89C229.97 27.47 230.48 29.84 232.76 29.84C234.38 29.84 235.15 28.84 235.15 25.43V0.0899963H240.12V23.96C240.12 27.52 240.65 29.84 242.95 29.84C244.82 29.84 245.31 28.2 245.31 25.65V0.0899963H250.24V26.79C250.24 33.52 247.69 35.25 244.72 35.25H244.74Z" fill="var(--fill-0, white)"/>
<path d="M262.29 35.25C255.75 35.25 254.4 28.7 254.4 23.74V11.71C254.4 4.7 255.59 -0.440002 262.28 -0.440002C268.97 -0.440002 269.85 6.27 269.85 10.07V10.27H265.03V10.05C265.03 7.2 264.65 4.65 262.2 4.65C259.75 4.65 259.22 7.6 259.22 10.61V15.95H269.95V23.77C269.95 30.29 268.13 35.26 262.3 35.26L262.29 35.25ZM259.26 20.69V24.56C259.26 28.09 260.07 30.16 262.28 30.16C264.68 30.16 265.21 27.79 265.21 24.58V20.69H259.26Z" fill="var(--fill-0, white)"/>
<path d="M283.99 35.25C281.18 35.25 279.58 33.66 278.74 31.42C278.74 32.63 278.65 33.92 278.55 34.71H273.84C273.9 33.08 273.9 31.09 273.9 24.09V0.0899963H278.83V22.96C278.83 28.47 279.93 29.84 282.11 29.84C283.9 29.84 284.8 28.48 284.8 25.26V0.0899963H289.73V26.4C289.73 32.86 287.29 35.24 283.97 35.24L283.99 35.25Z" fill="var(--fill-0, white)"/>
<path d="M300.15 43.1H295.23V34.7H292.09V29.43H295.23V6.66C295.23 0.980004 297.26 -0.419998 300.47 -0.419998C301.49 -0.419998 302.86 -0.310003 303.77 0.199997V4.76C303.42 4.63 302.63 4.56 302.12 4.56C300.36 4.56 300.15 6.04 300.15 7.74V29.43H303.92V34.7H300.15V43.1Z" fill="var(--fill-0, white)"/>
</g>
</g>
<defs>
<clipPath id="clip0_192_34">
<rect width="327" height="75" fill="white"/>
</clipPath>
</defs>
</svg>
