<svg preserveAspectRatio="none" width="100%" height="100%" overflow="visible" style="display: block;" viewBox="0 0 301 1080" fill="none" xmlns="http://www.w3.org/2000/svg">
<g id="whsj-sono-box" clip-path="url(#clip0_192_37)">
<g id="ve-sono">
<path d="M66.91 787.277L74.12 806.867L72.6 806.027L108.06 825.537L122.91 822.367V939.547L120.95 938.467C115.03 935.207 108.91 926.067 108.91 923.637V916.897L72.29 896.757V1043.86C72.29 1048.66 73.19 1051.33 76.41 1053.1C80.18 1055.17 97.79 1062.42 97.79 1062.42V1067.45C89.67 1065.28 85.52 1065.98 82.78 1068.57C80.35 1071.22 79.38 1077.54 78.89 1085.53C59.82 1071.78 57.75 1058.49 57.75 1038.86V811.767C54.02 808.627 51.12 804.117 49.83 800.827L66.9 787.287L66.91 787.277ZM72.28 815.117V846.137L108.9 866.277V835.257L72.28 815.117ZM108.9 907.627V875.547L72.28 855.407V887.487L108.9 907.627Z" fill="var(--fill-0, white)"/>
<path d="M156.46 943.047V958.817L154.24 957.597C149.71 955.107 142.72 945.897 142.54 943.737V857.307C139.41 854.617 136.81 850.477 135.71 847.607L151.07 835.557L158.18 853.097L156.47 852.157L190.75 871.017L206 866.827V1155.45L203.54 1154.1C196.74 1150.36 191.6 1140.97 191.6 1137.43V962.377L156.47 943.047H156.46ZM191.59 953.117V921.037L156.46 901.717V933.797L191.59 953.117ZM156.46 861.427V892.447L191.59 911.777V880.757L156.46 861.437V861.427Z" fill="var(--fill-0, white)"/>
<path d="M91.23 950.417L106.59 938.247L113.65 955.877L112.05 954.997L151.84 976.887L166.41 973.677V1106.16L164.28 1104.99C158.49 1101.8 152.68 1093.07 152.68 1090.64V1077.46L112.03 1055.1V1073.05L109.81 1071.83C105.08 1069.23 98.16 1059.47 97.98 1057.08V960.067C94.8 957.347 92.25 953.357 91.21 950.407L91.23 950.417ZM112.05 964.267V999.257L152.7 1021.62V986.627L112.05 964.267ZM152.7 1068V1030.88L112.05 1008.52V1045.64L152.7 1068Z" fill="var(--fill-0, white)"/>
<path d="M188.79 206.347C182.77 202.707 180.03 190.717 170.03 172.427C163.44 160.187 152 143.257 142.66 132.217C140.34 129.367 140.01 130.937 141.7 135.497C148.73 152.597 157.09 176.287 157.09 204.647C157.09 235.477 146.48 249.587 131.85 249.397C126.69 249.417 117.76 246.407 109.79 241.587C100.5 235.967 95.61 228.687 95.61 215.367C95.61 205.647 100.48 198.547 104.84 199.737C109.68 201.217 117.64 208.217 126.34 210.117C138.3 212.757 146.13 206.957 146.17 186.427C146.21 163.337 140.44 146.657 134.11 133.457C124.7 114.287 108.23 100.527 98.95 94.4767C92.68 90.4267 86.85 87.5467 82.83 85.1067C75.63 80.7467 72.62 73.5167 72.62 65.3767C72.62 51.0567 84.21 50.5967 91.73 55.1467C98.96 59.5167 106.45 70.0067 117.86 83.4967C128.82 96.5367 148.33 120.687 158.87 132.297C159.83 133.197 160.04 132.267 159.37 130.337C143.81 93.3367 117.99 40.0867 105.53 15.6967C102.41 9.68665 98.33 5.29665 98.33 -2.65335C98.33 -15.9033 112.1 -29.3433 118.87 -25.2533C122.79 -22.8833 123.52 -16.0533 129.61 -8.42335C141.59 6.36665 156.98 22.3867 161.93 24.9067C165.3 26.7067 168.6 15.9367 170.87 7.98665L172.72 9.53665C174.27 16.3267 175.97 27.2567 176.01 33.1967C176.27 50.8167 164.47 62.6567 159.55 59.6867C154.63 56.7167 151.53 48.8967 146.95 40.3867C141.67 30.7466 132.12 13.7167 126.32 6.48665C122.96 1.91665 121.93 2.94665 124.15 10.4467C130.93 35.7067 146.13 75.9766 153.66 94.5966C162.7 117.787 172 138.887 179.43 150.907C183.57 157.847 190.3 165.537 194.06 170.637C197.98 175.947 199.39 181.457 199.39 189.197C199.39 199.027 193.74 209.327 188.78 206.327L188.79 206.347Z" fill="var(--fill-0, white)"/>
<path d="M181.3 510.787C164.65 500.717 146.49 422.937 140.06 383.077C135.14 352.207 134.2 333.287 134.2 316.407C134.2 305.187 134.62 294.217 135.78 283.257C133.93 281.877 132.07 280.627 130.22 279.507C104.83 264.147 86.16 279.317 79.38 305.277C75.87 318.707 74.41 332.627 74.47 346.667C74.59 372.897 80.05 399.497 87.47 423.887C98.25 459.347 115.24 492.827 137.21 522.667C79.7 463.657 65.51 399.657 65.51 343.877C65.51 270.477 89.91 240.827 129.83 264.967C147.99 275.947 166.72 300.497 181.29 335.727C195.49 370.367 204.57 407.787 204.57 445.587C204.57 489.627 192.65 517.657 181.3 510.787ZM188.88 422.447C188.13 392.727 181.3 364.107 170.61 337.327C162.29 315.047 151.39 298.427 140.18 287.827C139.74 297.457 139.65 306.127 140.19 316.857C140.85 330.747 142.61 350.917 146.95 374.027C153.44 408.017 166.94 465.157 177.28 471.667C182.85 475.177 189.74 456.507 188.88 422.447Z" fill="var(--fill-0, white)"/>
<path d="M146.4 567.257L148.14 570.077C145.24 578.857 141.9 593.007 141.54 606.977C128.67 621.267 111.99 564.077 146.4 567.257Z" fill="var(--fill-0, white)"/>
<path d="M69.56 597.847C65.33 591.577 61.07 584.967 57.99 579.867C54.63 577.497 52.81 575.817 51.48 572.177L68.2 551.257L77.8 575.627L77.07 575.187L91.24 583.757C82.36 566.507 73.42 546.007 67.93 530.307C64.01 528.517 62.06 524.747 61.37 520.407L86.14 521.147C88.32 540.407 92.32 566.717 96.68 587.047L147.22 617.617C147.66 612.427 148.33 606.997 149.27 601.397L152.05 602.737C151.47 613.087 156.11 631.087 159.28 639.027C163.25 647.247 165.47 657.887 163.16 664.847C160.46 672.967 152.35 667.097 149.68 658.177C147.39 650.307 146.26 639.457 146.67 626.757L77.21 584.747C77.91 589.967 78.72 595.727 79.48 600.937L90.2 605.357V637.507L108.8 648.757L120.23 636.697L128.86 658.897L127.05 657.807L132.41 661.047C131.22 655.207 130.09 649.257 129.05 643.187C125.35 641.037 123.32 636.707 122.63 632.117L144.22 633.497C147.67 676.557 155.27 720.307 164.21 751.627L161.92 753.437C157.75 744.937 153.81 735.557 150.13 725.437C149.1 730.587 148.49 736.407 148.64 742.247C138.93 754.067 125.5 715.417 144.91 710.037C141.18 698.187 137.79 685.467 134.77 672.037L127.09 667.387C127.68 693.787 132.8 770.727 170.47 846.707C134.72 792.807 118.96 728.027 111.41 663.107V730.827L123.69 738.257L122.31 746.977L90.21 727.567V796.637L86.89 794.627C80.98 791.047 73.42 779.857 73.42 776.877V717.407L55.3 706.447C52.88 704.987 51.33 702.367 50.86 698.407C55.46 690.857 63.62 680.497 63.62 680.497L70.7 706.207L73.42 707.847V636.827L57.68 627.307C55.44 625.947 53.88 623.337 53.37 619.337C57.29 612.787 64.12 604.177 64.12 604.177L70.05 625.317L73.42 627.357V605.587C70.91 603.307 69.98 600.797 69.57 597.857L69.56 597.847ZM90.2 717.997L97.58 722.467V651.447L90.2 646.977V717.997Z" fill="var(--fill-0, white)"/>
<path d="M159.96 568.347L159.52 573.317C147.31 565.987 134.26 557.027 121.58 547.427L122.61 549.047C119.08 558.537 115.69 574.667 115.71 590.027C102.93 604.787 86.58 546.867 120.14 546.327C101.72 532.267 84.19 516.897 71.33 503.217C66.24 503.547 62.77 500.567 61.01 496.427L79.64 476.957C97.22 503.407 131.57 542.767 159.96 568.357V568.347Z" fill="var(--fill-0, white)"/>
<path d="M197.07 834.897V803.087L176.19 790.457V813.227L175.15 812.597C172.39 810.927 168.59 803.947 168.42 801.827V573.447C165.14 570.127 162.03 565.567 161 562.257L172.74 551.277L177.75 566.027L176.55 565.297L196.22 577.197L204.68 573.267V845.857L203.13 844.917C199.68 842.827 197.09 836.907 197.09 834.897H197.07ZM197.07 793.377V729.077L176.19 716.447V780.747L197.07 793.377ZM176.18 706.407L197.06 719.037V657.417L176.18 644.787V706.407ZM176.18 574.797V634.737L197.06 647.367V587.427L176.18 574.797Z" fill="var(--fill-0, white)"/>
</g>
</g>
<defs>
<clipPath id="clip0_192_37">
<rect width="301" height="1080" fill="white"/>
</clipPath>
</defs>
</svg>
