<svg preserveAspectRatio="none" width="100%" height="100%" overflow="visible" style="display: block;" viewBox="0 0 193 93" fill="none" xmlns="http://www.w3.org/2000/svg">
<g id="d1-bt">
<path d="M192.5 0H1.9888V92.34H192.5V0Z" fill="white"/>
<path d="M0 92.32L0.361591 91.3799C5.88062 90.4399 6.68944 89.5 8.28806 85.27L30.0597 27.22C31.3062 23.93 31.1254 22.71 26.4533 21.87L26.8054 20.93H51.8789C65.6479 20.93 71.6808 30.23 67.6652 48.45C62.365 72.5 43.9239 92.32 25.1496 92.32H0ZM23.6938 90.44C40.9074 90.44 58.6635 71 63.545 48.83C67.1704 32.39 61.8702 22.81 49.0718 22.81H37.3962C35.5216 22.81 34.6747 23.94 33.4282 27.22L11.6566 85.27C10.0484 89.5 10.5147 90.44 15.3105 90.44H23.6938Z" fill="var(--fill-0, black)"/>
<path d="M41.5355 92.32L41.897 91.3799C45.8936 90.9099 47.5778 90.07 49.9662 86.68L96.7257 20.17H98.8953L96.9827 86.58C96.8875 90.06 97.9057 90.8999 101.388 91.3699L101.027 92.31H86.4394L86.801 91.3699C90.0173 90.7099 92.0346 91.37 92.7387 88.18C92.7387 88.18 92.9671 87.15 92.9386 86.58L93.833 60.09H70.929L52.288 86.95C51.7266 87.8 51.3746 88.36 51.2508 88.92C50.7941 90.99 53.7915 90.99 56.4749 91.36L56.1133 92.3H41.5259L41.5355 92.32ZM72.9083 57.29H93.9377L95.0415 25.45L72.9083 57.29Z" fill="var(--fill-0, black)"/>
<path d="M95.2603 92.32L95.6219 91.3799C101.141 90.4399 101.902 89.69 103.548 85.27L110.809 65.92L108.382 26.66C108.173 23.18 107.469 22.34 104.129 21.87L104.481 20.93H119.068L118.716 21.87C114.881 22.62 112.303 22.43 112.569 26.66L114.967 61.98L143.266 26.28C146.264 22.52 142.41 22.34 138.699 21.87L139.051 20.93H153.648L153.296 21.87C149.299 22.34 147.796 23.37 145.227 26.57L114.377 65.36L106.917 85.27C105.271 89.69 105.556 90.4399 110.209 91.3799L109.848 92.32H95.2508H95.2603Z" fill="var(--fill-0, black)"/>
<path d="M125.073 92.78L125.881 91.36L134.445 87.57L166.304 31.4L145.131 44.94H144.875L145.683 43.52L171.737 20.79H191.082L190.273 22.21L182.176 25.24L146.797 87.56L151.022 91.35L150.213 92.77H125.073V92.78Z" fill="var(--fill-0, black)"/>
</g>
</svg>
