<svg preserveAspectRatio="none" width="100%" height="100%" overflow="visible" style="display: block;" viewBox="0 0 193 93" fill="none" xmlns="http://www.w3.org/2000/svg">
<g id="d1-bt2">
<path d="M192.5 0H3.83499V92.34H192.5V0Z" fill="white"/>
<path d="M0 92.32L0.356312 91.3799C5.7947 90.4399 6.5917 89.5 8.16696 85.27L29.6204 27.22C30.8488 23.93 30.6706 22.71 26.0667 21.87L26.4137 20.93H51.1208C64.6886 20.93 70.6334 30.23 66.6765 48.45C61.4537 72.5 43.282 92.32 24.7822 92.32H0ZM23.3475 90.44C40.3097 90.44 57.8063 71 62.6164 48.83C66.1889 32.39 60.9662 22.81 48.3547 22.81H36.8497C35.0026 22.81 34.1681 23.94 32.9397 27.22L11.4862 85.27C9.90161 89.5 10.3611 90.44 15.0868 90.44H23.3475Z" fill="var(--fill-0, black)"/>
<path d="M40.9285 92.32L41.2848 91.3799C45.223 90.9099 46.8826 90.07 49.2361 86.68L95.3123 20.17H97.4502L95.5655 86.58C95.4718 90.06 96.4751 90.8999 99.9069 91.3699L99.5505 92.31H85.1763L85.5326 91.3699C88.7019 90.7099 90.6897 91.37 91.3836 88.18C91.3836 88.18 91.6086 87.15 91.5805 86.58L92.4619 60.09H69.8926L51.524 86.95C50.9708 87.8 50.6238 88.36 50.5019 88.92C50.0519 90.99 53.0055 90.99 55.6497 91.36L55.2934 92.3H40.9191L40.9285 92.32ZM71.8336 57.29H92.5556L93.6433 25.45L71.8336 57.29Z" fill="var(--fill-0, black)"/>
<path d="M93.8684 92.32L94.2247 91.3799C99.663 90.4399 100.413 89.69 102.035 85.27L109.19 65.92L106.799 26.66C106.592 23.18 105.898 22.34 102.607 21.87L102.954 20.93H117.328L116.982 21.87C113.203 22.62 110.662 22.43 110.924 26.66L113.287 61.98L141.173 26.28C144.127 22.52 140.329 22.34 136.672 21.87L137.019 20.93H151.403L151.056 21.87C147.118 22.34 145.636 23.37 143.104 26.57L112.706 65.36L105.355 85.27C103.732 89.69 104.014 90.4399 108.599 91.3799L108.243 92.32H93.859H93.8684Z" fill="var(--fill-0, black)"/>
<path d="M111.487 92.78L112.556 90.89C137.207 79.71 163.358 54.23 171.309 33.68C173.616 27.71 173.119 24.02 168.834 24.02C162.955 24.02 153.55 30.75 145.73 44.67L139.241 56.23H137.479L143.451 37.1C150.156 29.33 160.629 20.05 172.978 20.05C181.295 20.05 186.068 24.22 181.961 34.83C175.8 50.74 158.782 64.57 153.766 68.64C145.692 75.18 138.219 80.38 126.621 87.58H149.293L161.689 78.11H163.367L152.228 92.79H111.496L111.487 92.78Z" fill="var(--fill-0, black)"/>
</g>
</svg>
