<svg preserveAspectRatio="none" width="100%" height="100%" overflow="visible" style="display: block;" viewBox="0 0 188 41" fill="none" xmlns="http://www.w3.org/2000/svg">
<g id="tickket-v">
<path d="M186.528 26L187.12 26.6025H111.12V25.8926H185.431L179.964 20.3125L180.218 20.0645L180.471 19.8164L186.528 26Z" fill="var(--fill-0, white)"/>
<path d="M0.408528 33.6153L3.1584 16.4237H0L0.249082 14.9073L4.41372 13.8932L8.28944 5.29731H9.95329L8.57842 13.8932H13.2412L12.8227 16.4237H8.15992L5.29049 34.3735C4.87203 36.9532 5.70895 38.6763 7.03406 38.6763C7.91083 38.6763 8.98687 37.8689 9.78393 36.5987H11.119C9.49503 39.2277 6.70527 41 4.29416 41C1.17566 41 -0.288891 38.0658 0.418501 33.6153H0.408528Z" fill="var(--fill-0, white)"/>
<path d="M11.1091 40.4487L11.2286 39.6905L14.1877 38.125L17.5154 17.2902L15.0645 15.6754L15.194 14.9172L22.2679 13.903H23.1048L19.2291 38.125L21.6801 39.6905L21.5605 40.4487H11.1091ZM18.3922 6.50851C18.3922 3.92878 20.1856 1.70351 22.2181 1.70351C23.8022 1.70351 24.7587 2.96379 24.7587 4.73613C24.7587 7.36509 23.0151 9.54113 20.9727 9.54113C19.3885 9.54113 18.3922 8.28084 18.3922 6.50851Z" fill="var(--fill-0, white)"/>
<path d="M25.4661 30.0805C25.4661 20.628 31.5039 13.0858 38.9962 13.0858C42.5332 13.0858 44.745 14.7006 45.8609 17.0341L41.6166 25.6792H40.5804C41.0387 24.6651 42.2841 21.7308 42.2841 19.2594C42.2841 16.788 41.0387 15.1633 38.8667 15.1633C34.4131 15.1633 30.5374 22.4496 30.5374 30.8878C30.5374 35.8405 32.3308 38.9323 35.4493 38.9323C38.5678 38.9323 41.9454 35.9981 44.1871 31.5476H45.2233C42.852 37.1107 39.1457 41 34.2338 41C29.033 41 25.4462 36.648 25.4462 30.0805H25.4661Z" fill="var(--fill-0, white)"/>
<path d="M44.4561 40.4487L44.5856 39.6905L47.5447 38.125L53.0843 3.38719L50.6732 1.77238L50.8027 1.0142L57.8766 0H58.7135L53.8415 30.3955L65.5782 15.9314L62.7487 14.671L62.8782 13.9128H70.9982L70.8687 14.671L66.7938 16.345L61.0449 23.5228L65.2893 38.6467L67.8698 39.7102L67.7502 40.4684H57.9663L58.0958 39.7102L59.7995 38.9027L57.0098 28.5838L53.433 33.0344L52.5961 38.1447L55.047 39.7102L54.9175 40.4684H44.4661L44.4561 40.4487Z" fill="var(--fill-0, white)"/>
<path d="M70.3905 30.6319C70.3905 20.9235 76.1393 13.0858 83.253 13.0858C88.2944 13.0858 91.8713 16.5713 90.7056 23.7591L90.3768 25.7284H76.219L76.0994 26.4866C74.854 34.1765 77.0161 38.9224 81.091 38.9224C84.2095 38.9224 87.5472 36.0375 89.8288 31.5377H90.865C88.4937 37.0024 83.9106 40.9901 78.7895 40.9901C73.6684 40.9901 70.3805 37.1009 70.3805 30.6221L70.3905 30.6319ZM85.4151 23.8084C86.2022 18.7474 85.2059 15.3603 82.5457 15.3603C79.8855 15.3603 77.3448 18.7474 76.5478 23.8084H85.4151Z" fill="var(--fill-0, white)"/>
<path d="M94.0732 33.6153L96.823 16.4237H93.6647L93.9137 14.9073L98.0784 13.8932L101.954 5.29731H103.618L102.243 13.8932H106.906L106.487 16.4237H101.825L98.9551 34.3735C98.5367 36.9532 99.3736 38.6763 100.699 38.6763C101.575 38.6763 102.652 37.8689 103.449 36.5987H104.784C103.16 39.2277 100.37 41 97.9588 41C94.8403 41 93.3757 38.0658 94.0831 33.6153H94.0732Z" fill="var(--fill-0, white)"/>
<path d="M127.51 32.8965H131.216V33.32H127.51V32.8965ZM127.968 36.8055H128.417V40.0942H127.968V36.8055ZM127.978 34.2159H130.877V34.6196H127.978V34.2159ZM127.978 35.5058H130.877V35.9194H127.978V35.5058ZM128.028 31.6263H130.858V32.0399H128.028V31.6263ZM128.217 36.8055H130.868V39.6019H128.217V39.1785H130.439V37.2289H128.217V36.7956V36.8055ZM131.156 37.1796H136.596V37.6326H131.156V37.1796ZM131.465 33.1624H136.457V33.6054H131.465V33.1624ZM131.635 35.1021H136.258V35.5452H131.635V35.1021ZM131.963 31.459L132.362 31.3211C132.531 31.587 132.701 31.8725 132.86 32.1975C133.02 32.5224 133.129 32.7981 133.199 33.0245L132.77 33.2018C132.711 32.9557 132.601 32.68 132.452 32.355C132.302 32.0301 132.133 31.7347 131.973 31.4688L131.963 31.459ZM133.677 33.32H134.145V40.1828H133.677V33.32ZM135.451 31.2523L135.919 31.4294C135.779 31.715 135.63 32.0203 135.471 32.3452C135.311 32.6701 135.152 32.9458 135.012 33.1722L134.634 33.0147C134.723 32.8571 134.823 32.6701 134.923 32.4633C135.022 32.2566 135.122 32.0399 135.211 31.8233C135.311 31.6067 135.391 31.4098 135.451 31.2424V31.2523Z" fill="var(--fill-0, white)"/>
<path d="M137.762 35.624C138.22 35.5944 138.758 35.5649 139.396 35.5255C140.024 35.4861 140.671 35.4467 141.339 35.3975V35.8012C140.701 35.8505 140.093 35.8996 139.476 35.9488C138.858 35.9981 138.33 36.0375 137.852 36.0769L137.762 35.6141V35.624ZM138.479 36.776L138.928 36.8548C138.858 37.3175 138.758 37.7606 138.639 38.2135C138.519 38.6566 138.37 39.0407 138.21 39.3557C138.181 39.3361 138.151 39.3163 138.101 39.2868C138.051 39.2572 138.001 39.2376 137.951 39.208C137.902 39.1785 137.852 39.1587 137.812 39.1489C137.991 38.8437 138.131 38.4892 138.24 38.0658C138.35 37.6424 138.43 37.2191 138.489 36.776H138.479ZM137.862 33.2313L138.131 32.9359C138.32 33.0836 138.499 33.2412 138.679 33.4184C138.858 33.5956 139.027 33.7729 139.187 33.9501C139.346 34.1274 139.466 34.2849 139.555 34.4227L139.286 34.7772C139.197 34.6295 139.067 34.472 138.918 34.2849C138.768 34.0978 138.589 33.9107 138.41 33.7334C138.23 33.5562 138.041 33.3789 137.862 33.2313ZM139.486 31.2523L139.924 31.4393C139.814 31.6756 139.685 31.9218 139.536 32.1876C139.386 32.4535 139.237 32.6996 139.097 32.9458C138.958 33.192 138.808 33.3988 138.679 33.5858L138.33 33.4184C138.46 33.2313 138.599 33.0048 138.738 32.7488C138.878 32.4928 139.017 32.2369 139.157 31.971C139.296 31.7052 139.406 31.4689 139.486 31.2523ZM140.711 32.355L141.16 32.5618C140.93 32.9162 140.681 33.3003 140.392 33.7138C140.103 34.1274 139.824 34.5212 139.536 34.9052C139.247 35.2892 138.978 35.624 138.719 35.9095L138.4 35.7224C138.589 35.5058 138.798 35.2596 139.007 34.9839C139.217 34.7082 139.426 34.4128 139.635 34.1076C139.844 33.8024 140.044 33.4972 140.223 33.2018C140.412 32.9064 140.572 32.6208 140.711 32.3648V32.355ZM139.615 35.7618H140.064V40.1729H139.615V35.7618ZM140.412 34.5508L140.791 34.3932C140.94 34.5999 141.09 34.8166 141.239 35.0628C141.389 35.3089 141.518 35.5452 141.628 35.7717C141.737 35.9981 141.827 36.2049 141.887 36.392L141.478 36.5889C141.419 36.4018 141.329 36.1852 141.219 35.9587C141.11 35.7224 140.98 35.4861 140.841 35.2399C140.701 34.9938 140.552 34.7674 140.402 34.5508H140.412ZM140.612 36.8646L140.99 36.7465C141.14 37.0517 141.289 37.3766 141.419 37.7311C141.548 38.0856 141.648 38.4006 141.698 38.6566L141.269 38.7846C141.239 38.6074 141.199 38.4105 141.13 38.1938C141.06 37.9772 140.99 37.7508 140.901 37.5145C140.811 37.2782 140.721 37.0615 140.622 36.8646H140.612ZM142.016 32.0695H146.609V39.9957H146.151V32.5224H142.465V40.0745H142.016V32.0695ZM142.246 35.5058H146.38V35.9587H142.246V35.5058ZM142.246 39.0899H146.35V39.5428H142.246V39.0899ZM144.029 32.286H144.477V39.3459H144.029V32.286Z" fill="var(--fill-0, white)"/>
<path d="M150.136 32.0005C150.136 32.0005 150.097 32.099 150.087 32.158C150.067 32.2171 150.057 32.2861 150.047 32.3452C150.037 32.4141 150.017 32.4731 150.007 32.5322C149.957 32.739 149.917 32.9753 149.867 33.2411C149.818 33.507 149.778 33.7828 149.728 34.0781C149.678 34.3735 149.638 34.659 149.608 34.9544C149.579 35.2497 149.549 35.5353 149.529 35.811C149.509 36.0867 149.499 36.3427 149.499 36.579C149.499 36.904 149.509 37.1994 149.529 37.4751C149.549 37.7508 149.578 38.056 149.628 38.381C149.688 38.2136 149.758 38.0264 149.828 37.8197C149.907 37.6129 149.977 37.4061 150.057 37.1993C150.136 36.9926 150.206 36.8252 150.266 36.6775L150.555 36.8942C150.485 37.0911 150.396 37.3274 150.296 37.5932C150.196 37.8591 150.107 38.1151 150.027 38.3613C149.947 38.6074 149.887 38.8043 149.857 38.952C149.848 39.0209 149.838 39.0898 149.818 39.1686C149.818 39.2474 149.808 39.3261 149.818 39.3852C149.818 39.4344 149.828 39.4837 149.838 39.5329C149.838 39.592 149.848 39.6314 149.857 39.6708L149.399 39.7102C149.31 39.3459 149.22 38.9127 149.15 38.3908C149.07 37.869 149.04 37.2781 149.04 36.6184C149.04 36.264 149.06 35.8898 149.1 35.496C149.14 35.1021 149.19 34.7082 149.24 34.334C149.29 33.95 149.349 33.6055 149.399 33.2805C149.449 32.9556 149.499 32.6898 149.529 32.483C149.539 32.3747 149.549 32.2762 149.569 32.1876C149.569 32.099 149.578 32.0104 149.578 31.9316L150.156 31.9809L150.136 32.0005ZM155.068 31.9612C155.058 32.0695 155.048 32.158 155.028 32.2466C155.028 32.3352 155.008 32.4239 155.008 32.5224C155.008 32.6504 154.999 32.798 154.999 32.9851C154.999 33.1722 154.999 33.3593 154.999 33.5661V34.1273C154.999 34.4522 154.999 34.8068 155.018 35.1711C155.028 35.5354 155.048 35.8997 155.068 36.264C155.088 36.6283 155.108 36.9729 155.118 37.3076C155.128 37.6424 155.138 37.9378 155.138 38.2037C155.138 38.3711 155.118 38.5385 155.068 38.7059C155.018 38.8831 154.939 39.0406 154.829 39.1883C154.71 39.336 154.55 39.4542 154.351 39.5428C154.152 39.6314 153.883 39.6708 153.564 39.6708C152.906 39.6708 152.418 39.5526 152.089 39.3163C151.76 39.08 151.601 38.765 151.601 38.3613C151.601 38.1249 151.671 37.9083 151.82 37.7015C151.97 37.4947 152.189 37.3274 152.478 37.1993C152.767 37.0713 153.125 37.0123 153.554 37.0123C153.942 37.0123 154.311 37.0517 154.64 37.1403C154.979 37.2289 155.287 37.3471 155.586 37.4948C155.885 37.6425 156.154 37.8099 156.413 37.997C156.672 38.184 156.902 38.3711 157.121 38.568L156.832 38.9914C156.503 38.6862 156.174 38.4104 155.825 38.1741C155.477 37.9378 155.118 37.7508 154.739 37.6129C154.361 37.4751 153.952 37.4062 153.494 37.4062C153.066 37.4062 152.727 37.4947 152.448 37.6621C152.179 37.8295 152.039 38.056 152.039 38.3218C152.039 38.5877 152.169 38.824 152.418 38.9816C152.667 39.1391 153.006 39.2179 153.424 39.2179C153.753 39.2179 154.002 39.1686 154.172 39.0702C154.351 38.9717 154.47 38.8338 154.54 38.6566C154.61 38.4793 154.65 38.2726 154.65 38.0461C154.65 37.859 154.65 37.6129 154.63 37.3076C154.62 36.9926 154.6 36.6579 154.58 36.2837C154.56 35.9095 154.54 35.5452 154.53 35.1612C154.52 34.7871 154.51 34.4424 154.51 34.1372V32.2369C154.51 32.1286 154.51 32.0399 154.49 31.9513H155.068V31.9612ZM151.78 33.7926C152.059 33.8221 152.328 33.8417 152.597 33.8516C152.866 33.8614 153.145 33.8713 153.424 33.8713C154.022 33.8713 154.61 33.8517 155.198 33.8024C155.776 33.7532 156.314 33.6842 156.812 33.5956V34.0781C156.274 34.1668 155.716 34.2258 155.138 34.2652C154.56 34.3046 153.982 34.3243 153.404 34.3243C153.115 34.3243 152.846 34.3243 152.597 34.3144C152.338 34.3046 152.069 34.2849 151.78 34.275V33.7926Z" fill="var(--fill-0, white)"/>
<path d="M160.678 36.5495C160.608 36.7562 160.548 36.9533 160.508 37.1502C160.468 37.3471 160.448 37.544 160.448 37.7311C160.448 38.1446 160.668 38.4794 161.096 38.7256C161.524 38.9816 162.162 39.0997 163.009 39.0997C163.477 39.0997 163.926 39.08 164.344 39.0505C164.763 39.0209 165.151 38.9717 165.5 38.9224C165.849 38.8634 166.137 38.8043 166.357 38.7256V39.2572C166.157 39.3163 165.888 39.3754 165.54 39.4246C165.191 39.4837 164.802 39.5231 164.374 39.5526C163.946 39.5822 163.487 39.592 163.009 39.592C162.381 39.592 161.843 39.5231 161.385 39.3951C160.927 39.267 160.578 39.0701 160.329 38.8043C160.08 38.5384 159.96 38.2234 159.96 37.8295C159.96 37.5834 159.98 37.3569 160.02 37.1305C160.06 36.904 160.11 36.6874 160.159 36.4806L160.668 36.5397L160.678 36.5495ZM160.538 32.7095C160.887 32.7587 161.285 32.7882 161.734 32.8079C162.182 32.8276 162.64 32.8375 163.119 32.8375C163.437 32.8375 163.746 32.8375 164.055 32.8178C164.364 32.8079 164.653 32.7882 164.932 32.7587C165.211 32.739 165.46 32.7193 165.689 32.6996V33.2117C165.47 33.2215 165.221 33.2411 164.942 33.2608C164.663 33.2805 164.364 33.3003 164.055 33.3101C163.746 33.32 163.437 33.3298 163.129 33.3298C162.64 33.3298 162.192 33.3199 161.764 33.3002C161.335 33.2806 160.937 33.2511 160.548 33.2215V32.7095H160.538Z" fill="var(--fill-0, white)"/>
<path d="M169.605 33.1624C169.834 33.2018 170.123 33.2313 170.452 33.2608C170.79 33.2904 171.099 33.3002 171.388 33.3002C171.707 33.3002 172.066 33.3002 172.454 33.2707C172.853 33.251 173.261 33.2215 173.69 33.1821C174.118 33.1427 174.546 33.0935 174.975 33.0344C175.403 32.9753 175.802 32.8966 176.18 32.8178V33.32C175.812 33.3889 175.413 33.4479 174.995 33.4971C174.576 33.5464 174.148 33.5956 173.72 33.635C173.291 33.6744 172.883 33.7039 172.484 33.7236C172.085 33.7433 171.727 33.7531 171.398 33.7531C171.069 33.7531 170.77 33.7531 170.481 33.7236C170.193 33.694 169.894 33.6842 169.615 33.6547V33.1525L169.605 33.1624ZM172.474 31.843C172.444 31.9513 172.414 32.0695 172.394 32.1975C172.374 32.3353 172.355 32.4535 172.335 32.5618C172.305 32.7193 172.275 32.9261 172.225 33.1722C172.175 33.4184 172.115 33.6941 172.056 33.9894C171.986 34.2848 171.916 34.5901 171.846 34.8953C171.777 35.2006 171.697 35.4861 171.617 35.7421C171.538 36.008 171.458 36.2246 171.388 36.4117C171.836 36.0572 172.305 35.8111 172.803 35.6535C173.291 35.5058 173.819 35.4271 174.377 35.4271C174.935 35.4271 175.353 35.5058 175.702 35.6634C176.051 35.8209 176.32 36.0473 176.509 36.323C176.699 36.5987 176.778 36.9237 176.778 37.2782C176.778 37.7607 176.659 38.1741 176.41 38.5187C176.16 38.8633 175.822 39.1293 175.373 39.3262C174.925 39.5231 174.397 39.6511 173.789 39.7003C173.181 39.7594 172.514 39.7397 171.777 39.6708L171.657 39.1785C172.245 39.2474 172.823 39.277 173.371 39.2475C173.929 39.2179 174.417 39.1391 174.855 38.9914C175.294 38.8437 175.632 38.637 175.892 38.3613C176.151 38.0856 176.28 37.731 176.28 37.3076C176.28 36.8842 176.121 36.5495 175.792 36.2738C175.463 36.008 174.985 35.8701 174.347 35.8701C173.739 35.8701 173.172 35.9686 172.624 36.1656C172.076 36.3625 171.637 36.6676 171.279 37.0615C171.219 37.1304 171.169 37.2093 171.119 37.2782C171.069 37.357 171.019 37.4357 170.97 37.5244L170.481 37.3372C170.671 36.9729 170.85 36.5593 171.009 36.0966C171.169 35.6338 171.308 35.171 171.428 34.7082C171.547 34.2454 171.647 33.8123 171.717 33.4283C171.797 33.0344 171.846 32.7291 171.866 32.5026C171.886 32.3746 171.906 32.2466 171.906 32.1383C171.916 32.0202 171.916 31.9119 171.906 31.8036L172.484 31.8332L172.474 31.843Z" fill="var(--fill-0, white)"/>
<path d="M181.72 33.5661C181.69 33.7532 181.65 33.9796 181.62 34.2553C181.581 34.531 181.551 34.8165 181.511 35.1119C181.471 35.4073 181.441 35.683 181.401 35.9488C181.361 36.2147 181.331 36.4313 181.302 36.5987C181.8 36.136 182.338 35.7913 182.906 35.5747C183.483 35.3581 184.081 35.2498 184.719 35.2498C185.187 35.2498 185.596 35.3286 185.954 35.496C186.313 35.6633 186.602 35.8898 186.811 36.1852C187.02 36.4805 187.12 36.8153 187.12 37.1993C187.12 37.6326 187.02 38.0166 186.811 38.3613C186.602 38.7059 186.283 38.9914 185.865 39.2179C185.446 39.4444 184.918 39.6019 184.281 39.6905C183.643 39.7791 182.896 39.7988 182.039 39.7299L181.889 39.208C182.965 39.3262 183.862 39.3064 184.55 39.1588C185.237 39.0111 185.765 38.755 186.104 38.4006C186.443 38.0461 186.612 37.6424 186.612 37.1796C186.612 36.8941 186.532 36.6382 186.363 36.4117C186.193 36.1852 185.964 36.008 185.685 35.8898C185.406 35.7717 185.068 35.7027 184.699 35.7027C183.992 35.7027 183.374 35.8307 182.816 36.0769C182.258 36.323 181.8 36.6677 181.441 37.1108C181.371 37.1797 181.321 37.2584 181.282 37.3372C181.242 37.416 181.212 37.4849 181.182 37.5538L180.684 37.4356C180.724 37.2683 180.764 37.0516 180.803 36.7956C180.843 36.5396 180.883 36.2541 180.923 35.9587C180.963 35.6535 181.003 35.3582 181.033 35.0529C181.072 34.7477 181.102 34.472 181.132 34.1963C181.162 33.9304 181.182 33.7039 181.192 33.5267L181.72 33.5956V33.5661ZM182.119 31.8725C182.318 31.9414 182.587 32.0104 182.916 32.0892C183.244 32.1679 183.603 32.2467 183.972 32.3255C184.34 32.4042 184.699 32.4731 185.048 32.5224C185.396 32.5716 185.675 32.611 185.895 32.6405L185.765 33.123C185.586 33.0934 185.367 33.0639 185.108 33.0147C184.848 32.9654 184.569 32.9162 184.271 32.867C183.972 32.8079 183.673 32.7587 183.384 32.6996C183.095 32.6406 182.826 32.5814 182.587 32.5224C182.348 32.4633 182.148 32.414 181.999 32.3746L182.138 31.8823L182.119 31.8725Z" fill="var(--fill-0, white)"/>
</g>
</svg>
