<svg preserveAspectRatio="none" width="100%" height="100%" overflow="visible" style="display: block;" viewBox="0 0 173 35" fill="none" xmlns="http://www.w3.org/2000/svg">
<g id="footer-logo-ve">
<path d="M11.79 0C10.6 0 9.49 0.17 8.44 0.52C7.39 0.87 6.48 1.37 5.72 2.02C4.95 2.67 4.35 3.49 3.9 4.47C3.46 5.45 3.23 6.56 3.23 7.82C3.23 8.69 3.35 9.46 3.58 10.16C3.81 10.85 4.14 11.48 4.56 12.05C4.98 12.62 5.47 13.16 6.02 13.66C6.58 14.17 7.17 14.68 7.82 15.2C8.36 15.64 8.87 16.08 9.34 16.5C9.81 16.92 10.22 17.35 10.58 17.78C10.94 18.21 11.22 18.65 11.43 19.1C11.64 19.54 11.75 20.01 11.75 20.51C11.75 21.1 11.63 21.62 11.38 22.07C11.13 22.51 10.81 22.9 10.42 23.22C10.02 23.54 9.57 23.78 9.07 23.94C8.56 24.1 8.04 24.18 7.49 24.18C6.01 24.18 4.81 23.75 3.89 22.9C2.98 22.05 2.47 20.92 2.37 19.51H1.59C1.47 20.15 1.27 20.88 1 21.7C0.73 22.52 0.39 23.29 0 24.04C1.26 24.83 2.5 25.39 3.71 25.71C4.92 26.03 6.27 26.19 7.75 26.19C8.94 26.19 10.07 26.03 11.16 25.71C12.25 25.39 13.2 24.89 14.03 24.23C14.86 23.56 15.51 22.74 15.99 21.75C16.47 20.76 16.71 19.61 16.71 18.3C16.71 17.48 16.59 16.75 16.36 16.09C16.12 15.44 15.82 14.83 15.43 14.27C15.05 13.71 14.6 13.19 14.08 12.71C13.56 12.23 13.02 11.75 12.45 11.28C11.73 10.69 11.1 10.15 10.56 9.67C10.02 9.19 9.56 8.73 9.21 8.3C8.85 7.87 8.58 7.44 8.39 7C8.2 6.57 8.11 6.12 8.11 5.65C8.11 5.23 8.19 4.82 8.35 4.41C8.51 4 8.75 3.64 9.07 3.34C9.39 3.03 9.79 2.78 10.27 2.58C10.75 2.38 11.3 2.28 11.92 2.28C13.33 2.28 14.39 2.67 15.11 3.45C15.83 4.23 16.25 5.21 16.37 6.4H17.19C17.36 5.73 17.55 5.06 17.75 4.38C17.95 3.7 18.29 2.9 18.79 1.99C17.68 1.27 16.57 0.77 15.45 0.47C14.34 0.17 13.11 0.03 11.78 0.03L11.79 0Z" fill="var(--fill-0, white)"/>
<path d="M40.13 1.8C40.2 1.42 40.34 0.97 40.54 0.45C40.1 0.47 39.58 0.5 38.98 0.52C38.39 0.54 37.76 0.57 37.11 0.59C36.45 0.61 35.78 0.63 35.09 0.63H30.75C29.12 0.63 27.56 0.61 26.06 0.57C24.56 0.53 23.08 0.49 21.59 0.44C21.54 1.03 21.47 1.52 21.37 1.9C21.27 2.28 21.12 2.76 20.93 3.33C21.87 3.26 22.72 3.2 23.49 3.16C24.26 3.12 25.08 3.1 25.97 3.1H27.9C27.63 4.73 27.34 6.33 27.03 7.9C26.72 9.47 26.39 11.05 26.05 12.63C25.58 14.88 25.06 17.1 24.49 19.28C23.92 21.47 23.35 23.62 22.78 25.75C23.2 25.7 23.66 25.68 24.17 25.68H27.27C27.79 25.68 28.32 25.7 28.86 25.75C29.18 23.62 29.56 21.52 30.01 19.45C30.45 17.37 30.91 15.26 31.38 13.11C31.85 11.01 32.29 9.17 32.7 7.59C33.11 6.01 33.5 4.51 33.87 3.1C34.73 3.1 35.66 3.12 36.65 3.16C37.64 3.2 38.73 3.28 39.91 3.4C39.98 2.71 40.06 2.17 40.13 1.79V1.8Z" fill="var(--fill-0, white)"/>
<path d="M53.13 11.08C52.71 11.1 52.24 11.12 51.72 11.12H47.01C47.21 10.13 47.47 8.9 47.81 7.41C48.14 5.93 48.52 4.44 48.94 2.96C50.25 2.96 51.33 2.96 52.18 2.98C53.03 2.99 53.77 3.02 54.39 3.05C55.01 3.09 55.54 3.12 55.98 3.16C56.42 3.2 56.89 3.24 57.39 3.29C57.34 2.77 57.35 2.33 57.43 1.96C57.5 1.59 57.7 1.08 58.02 0.44C57.18 0.49 56.2 0.53 55.07 0.57C53.95 0.61 52.74 0.63 51.46 0.63C50.18 0.63 48.75 0.63 47.33 0.61C45.91 0.6 44.64 0.54 43.53 0.44C43.43 1.23 43.26 2.31 43.03 3.66C42.79 5.02 42.52 6.51 42.21 8.13C41.9 9.75 41.57 11.44 41.21 13.21C40.85 14.98 40.49 16.67 40.12 18.29C39.75 19.91 39.4 21.38 39.06 22.7C38.73 24.02 38.44 25.04 38.19 25.76C39.18 25.71 40.23 25.69 41.36 25.69H48.63C49.9 25.69 51.28 25.71 52.76 25.76C52.71 25.46 52.72 25.13 52.78 24.76C52.84 24.39 53.03 23.83 53.35 23.09C52.83 23.14 52.36 23.18 51.94 23.22C51.52 23.26 51.1 23.28 50.68 23.29C50.26 23.3 49.81 23.31 49.35 23.33C48.88 23.34 48.34 23.35 47.72 23.35H44.75C44.95 21.69 45.2 20.05 45.51 18.4C45.82 16.76 46.15 15.12 46.49 13.49C47.82 13.49 49.25 13.51 50.75 13.55C52.26 13.59 53.65 13.68 54.94 13.83C54.92 13.44 54.92 13.04 54.96 12.64C55 12.24 55.19 11.68 55.53 10.93C55.13 10.95 54.74 10.98 54.34 11C53.94 11.02 53.54 11.05 53.12 11.07L53.13 11.08Z" fill="var(--fill-0, white)"/>
<path d="M75.9 10.4C76.41 9.37 76.66 8.16 76.66 6.75C76.66 4.5 76.02 2.89 74.73 1.91C73.44 0.93 71.73 0.45 69.58 0.45C68.64 0.45 67.74 0.48 66.87 0.54C66 0.6 65.18 0.63 64.39 0.63C63.82 0.63 63.31 0.61 62.85 0.57C62.39 0.53 61.97 0.49 61.57 0.44C61.42 1.48 61.25 2.5 61.05 3.52C60.85 4.53 60.65 5.56 60.46 6.6C59.82 9.89 59.12 13.12 58.37 16.31C57.62 19.5 56.82 22.65 55.98 25.76C56.4 25.71 56.84 25.69 57.3 25.69H60.38C60.86 25.69 61.35 25.71 61.84 25.76C62.16 23.93 62.52 22.07 62.92 20.18C63.31 18.29 63.74 16.45 64.18 14.68C64.55 14.73 64.99 14.77 65.5 14.81C66.01 14.85 66.56 14.87 67.15 14.87C68.46 14.87 69.69 14.71 70.84 14.39C71.99 14.07 73 13.58 73.86 12.93C74.72 12.28 75.41 11.44 75.92 10.41L75.9 10.4ZM70.82 8.73C70.61 9.53 70.29 10.24 69.86 10.86C69.43 11.48 68.87 11.97 68.19 12.34C67.51 12.71 66.7 12.9 65.76 12.9C65.49 12.9 65.26 12.9 65.07 12.88C64.88 12.87 64.69 12.85 64.5 12.82C64.85 11.09 65.2 9.37 65.56 7.67C65.92 5.96 66.31 4.26 66.73 2.55C67.37 2.53 67.97 2.55 68.51 2.61C69.05 2.67 69.52 2.83 69.9 3.09C70.28 3.35 70.59 3.73 70.81 4.22C71.03 4.71 71.14 5.38 71.14 6.22C71.14 7.06 71.03 7.92 70.82 8.72V8.73Z" fill="var(--fill-0, white)"/>
<path d="M86.39 6.41C86.44 6.19 86.53 5.8 86.67 5.24C86.81 4.68 86.95 4.09 87.11 3.46C87.27 2.83 87.43 2.22 87.57 1.64C87.72 1.06 87.82 0.66 87.87 0.44C87.4 0.49 86.93 0.53 86.46 0.57C85.99 0.61 85.5 0.63 84.98 0.63C84.46 0.63 83.94 0.61 83.48 0.57C83.02 0.53 82.51 0.49 81.94 0.44C81.82 1.23 81.64 2.28 81.4 3.59C81.16 4.9 80.9 6.33 80.6 7.89C80.3 9.45 79.99 11.05 79.65 12.71C79.32 14.37 78.99 15.93 78.69 17.42C78.38 18.9 78.1 20.24 77.84 21.42C77.58 22.61 77.39 23.5 77.27 24.09C77.02 25.1 76.79 25.96 76.58 26.65C76.37 27.34 76.1 27.92 75.76 28.39C75.43 28.86 75.01 29.21 74.52 29.43C74.03 29.65 73.35 29.79 72.48 29.84L72.7 31.55C74.03 31.55 75.23 31.44 76.28 31.23C77.33 31.02 78.35 30.61 79.34 29.99C80.06 29.55 80.66 28.97 81.14 28.27C81.62 27.57 82.03 26.76 82.36 25.84C82.69 24.93 82.98 23.86 83.21 22.63C83.44 21.41 83.69 20.05 83.93 18.57C84.1 17.58 84.26 16.67 84.41 15.83C84.56 14.99 84.72 14.11 84.89 13.2C85.06 12.29 85.27 11.29 85.5 10.22C85.73 9.15 86.02 7.88 86.37 6.42L86.39 6.41Z" fill="var(--fill-0, white)"/>
<path d="M107.49 25.69C108.05 25.69 108.51 25.71 108.88 25.76C108.46 24.33 108.02 22.72 107.56 20.94C107.1 19.16 106.66 17.34 106.24 15.49C105.82 13.64 105.42 11.83 105.04 10.08C104.66 8.33 104.32 6.74 104.04 5.32C103.76 3.9 103.52 2.73 103.34 1.8C103.15 0.87 103.05 0.32 103.02 0.15C102.65 0.27 102.18 0.34 101.61 0.34C101.12 0.34 100.65 0.28 100.2 0.15C99.93 0.69 99.68 1.18 99.46 1.61C99.24 2.04 99 2.49 98.74 2.96C98.48 3.43 98.18 3.95 97.85 4.54C97.52 5.12 97.12 5.81 96.66 6.62C96.2 7.42 95.65 8.38 95.01 9.49C94.37 10.6 93.6 11.94 92.71 13.49C91.5 15.59 90.28 17.67 89.04 19.72C87.8 21.77 86.58 23.79 85.37 25.76C85.59 25.71 85.85 25.69 86.15 25.69H87.11C87.8 25.69 88.33 25.71 88.7 25.76C89.64 23.93 90.44 22.41 91.09 21.18C91.74 19.96 92.32 18.94 92.81 18.12C93.43 18.1 94.02 18.08 94.59 18.06C95.16 18.05 95.92 18.04 96.89 18.04C97.86 18.04 98.7 18.04 99.43 18.06C100.16 18.07 100.88 18.09 101.6 18.12C101.62 18.22 101.66 18.42 101.71 18.71C101.76 19.01 101.81 19.32 101.86 19.66C101.91 19.99 101.96 20.31 102.03 20.61C102.09 20.91 102.13 21.12 102.16 21.24C102.31 22.23 102.43 23.11 102.51 23.87C102.6 24.64 102.68 25.27 102.75 25.76C103.1 25.71 103.52 25.69 104.01 25.69H107.49ZM99.56 15.96C98.98 15.97 98.4 15.98 97.84 15.98C97.2 15.98 96.56 15.98 95.93 15.96C95.3 15.95 94.68 15.93 94.06 15.9C94.88 14.42 95.73 12.96 96.62 11.53C97.51 10.1 98.4 8.66 99.29 7.23C99.51 8.05 99.71 8.8 99.88 9.49C100.05 10.18 100.21 10.87 100.34 11.55C100.48 12.23 100.61 12.92 100.75 13.63C100.89 14.33 101.03 15.09 101.18 15.91C100.69 15.93 100.15 15.95 99.57 15.97L99.56 15.96Z" fill="var(--fill-0, white)"/>
<path d="M141.13 7.99C141.46 6.35 141.78 4.86 142.08 3.52C142.38 2.19 142.62 1.16 142.82 0.44C142.5 0.49 142.17 0.53 141.84 0.57C141.51 0.61 141.15 0.63 140.78 0.63C140.21 0.63 139.62 0.57 139 0.44C138.51 1.13 137.85 2.03 137.04 3.13C136.22 4.23 135.34 5.4 134.39 6.65C133.44 7.9 132.47 9.17 131.5 10.47C130.52 11.77 129.62 12.95 128.79 14.03C127.96 15.1 127.26 16.01 126.7 16.74C126.13 17.47 125.79 17.91 125.66 18.06C125.49 17.59 125.2 16.73 124.79 15.48C124.38 14.23 123.92 12.79 123.42 11.14C122.91 9.5 122.39 7.74 121.84 5.86C121.3 3.98 120.8 2.18 120.36 0.45C119.67 0.57 119.04 0.64 118.47 0.64C117.9 0.64 117.31 0.58 116.69 0.45C116.47 1.39 116.2 2.54 115.87 3.9C115.55 5.26 115.2 6.72 114.81 8.29C114.43 9.86 114.03 11.48 113.61 13.15C113.19 14.82 112.78 16.44 112.37 18.01C111.96 19.58 111.57 21.04 111.18 22.4C110.8 23.76 110.46 24.88 110.16 25.77C110.56 25.72 111.02 25.7 111.57 25.7H112.29C112.5 25.7 112.74 25.72 113.01 25.77C113.18 24.88 113.4 23.87 113.66 22.75C113.92 21.63 114.19 20.48 114.48 19.32C114.76 18.16 115.06 17.01 115.37 15.87C115.68 14.73 115.96 13.69 116.22 12.74C116.48 11.79 116.7 10.97 116.89 10.28C117.08 9.59 117.21 9.11 117.28 8.83C117.4 9.23 117.58 9.81 117.82 10.59C118.05 11.37 118.32 12.26 118.62 13.26C118.92 14.26 119.23 15.35 119.55 16.52C119.87 17.69 120.19 18.86 120.51 20.02C120.83 21.18 121.13 22.31 121.4 23.39C121.67 24.48 121.89 25.43 122.07 26.24C122.17 26.22 122.26 26.2 122.35 26.18C122.44 26.17 122.54 26.16 122.67 26.16C122.8 26.16 122.9 26.16 122.99 26.18C123.08 26.19 123.17 26.21 123.27 26.24C124.18 24.81 125.09 23.39 125.99 22C126.89 20.6 127.86 19.2 128.9 17.79C129.96 16.31 131.04 14.87 132.12 13.47C133.21 12.07 134.32 10.67 135.46 9.26C135.26 10.64 135.03 12.08 134.77 13.58C134.51 15.08 134.24 16.55 133.95 18.01C133.67 19.47 133.38 20.87 133.08 22.22C132.78 23.57 132.5 24.75 132.23 25.76C132.65 25.71 133.09 25.69 133.56 25.69H136.6C137.04 25.69 137.48 25.71 137.9 25.76C138 25.09 138.16 24.09 138.38 22.76C138.6 21.43 138.87 19.94 139.18 18.29C139.49 16.65 139.81 14.93 140.14 13.14C140.47 11.35 140.81 9.63 141.14 7.99H141.13Z" fill="var(--fill-0, white)"/>
<path d="M153.34 4.13H161.94L158.37 7.17L160.71 10.01L171.97 0.44H147.91L147.49 2.83L154.07 10.82L149.09 15.05L150.14 9.11L147.05 5.36L143.67 24.5L159.23 11.28L153.34 4.13Z" fill="var(--fill-0, white)"/>
<path d="M168.7 5.37L167.65 11.13L172 7.45L173.01 1.71L168.7 5.37Z" fill="var(--fill-0, white)"/>
<path d="M165.65 22.08H154.74L162.14 15.79L163.16 10.08L144.71 25.76H168.77L171.56 9.95L167.19 13.65L165.65 22.08Z" fill="var(--fill-0, white)"/>
<path d="M109.01 28.09C108.34 28.09 108 28.44 107.78 28.81C107.63 28.31 107.27 28.09 106.75 28.09C106.23 28.09 105.83 28.34 105.62 28.78C105.62 28.56 105.62 28.39 105.58 28.19H104.51C104.52 28.49 104.52 28.83 104.52 30.07V34.69H105.64V30.22C105.64 29.55 105.76 29.1 106.28 29.1C106.65 29.1 106.83 29.29 106.83 29.93V34.69H107.96V30.2C107.96 29.53 108.08 29.1 108.6 29.1C109.03 29.1 109.14 29.41 109.14 29.89V34.69H110.26V29.67C110.26 28.41 109.68 28.08 109 28.08L109.01 28.09Z" fill="var(--fill-0, white)"/>
<path d="M114.64 29.8C114.64 28.79 114.24 28.09 113.04 28.09C111.71 28.09 111.35 28.9 111.35 29.82V29.94H112.46V29.8C112.46 29.35 112.57 29.01 113.01 29.01C113.45 29.01 113.53 29.33 113.53 29.88V30.8H113.32C112.15 30.8 111.15 31.27 111.15 32.81V32.92C111.15 33.91 111.54 34.79 112.5 34.79C112.98 34.79 113.35 34.62 113.57 34.19C113.57 34.29 113.62 34.55 113.65 34.69H114.68C114.66 34.47 114.65 33.87 114.65 33.45V29.8H114.64ZM113.54 32.51C113.54 33.43 113.34 33.81 112.84 33.81C112.39 33.81 112.22 33.42 112.22 32.91V32.8C112.22 31.93 112.63 31.67 113.29 31.67H113.55V32.51H113.54Z" fill="var(--fill-0, white)"/>
<path d="M118.2 28.19C117.85 29 117.22 30.38 116.92 31.1H116.9V25.87H115.78V34.7H116.9V32.65L117.4 31.69L118.29 34.7H119.52L118.18 30.59L119.39 28.19H118.2Z" fill="var(--fill-0, white)"/>
<path d="M121.54 28.09C120.05 28.09 119.74 29.32 119.74 30.25V32.51C119.74 33.83 120.01 34.79 121.54 34.79C123.07 34.79 123.27 33.53 123.27 32.82V32.78H122.17V32.82C122.17 33.36 122.08 33.84 121.52 33.84C120.96 33.84 120.84 33.29 120.84 32.72V31.72H123.28V30.25C123.28 29.03 122.87 28.09 121.54 28.09ZM122.2 30.82H120.84V30.09C120.84 29.43 121.02 29.04 121.53 29.04C122.08 29.04 122.2 29.48 122.2 30.09V30.82Z" fill="var(--fill-0, white)"/>
<path d="M127.1 26.61H125.98V28.19H125.26V29.18H125.98V33.46C125.98 34.53 126.44 34.79 127.18 34.79C127.41 34.79 127.72 34.77 127.93 34.67V33.81C127.85 33.84 127.67 33.85 127.55 33.85C127.15 33.85 127.1 33.57 127.1 33.25V29.17H127.96V28.18H127.1V26.6V26.61Z" fill="var(--fill-0, white)"/>
<path d="M130.93 28.09C130.29 28.09 129.92 28.37 129.73 28.75V25.87H128.61V34.7H129.73V30.36C129.73 29.53 129.88 29.11 130.47 29.11C131.01 29.11 131.09 29.55 131.09 30.06V34.7H132.21V29.77C132.21 28.84 131.91 28.1 130.92 28.1L130.93 28.09Z" fill="var(--fill-0, white)"/>
<path d="M134.97 28.09C133.48 28.09 133.17 29.32 133.17 30.25V32.51C133.17 33.83 133.44 34.79 134.97 34.79C136.5 34.79 136.7 33.53 136.7 32.82V32.78H135.6V32.82C135.6 33.36 135.51 33.84 134.95 33.84C134.39 33.84 134.27 33.29 134.27 32.72V31.72H136.71V30.25C136.71 29.03 136.3 28.09 134.97 28.09ZM135.63 30.82H134.27V30.09C134.27 29.43 134.45 29.04 134.96 29.04C135.51 29.04 135.63 29.48 135.63 30.09V30.82Z" fill="var(--fill-0, white)"/>
<path d="M143.79 28.09C143.12 28.09 142.78 28.44 142.56 28.81C142.41 28.31 142.05 28.09 141.53 28.09C141.01 28.09 140.61 28.34 140.4 28.78C140.4 28.56 140.4 28.39 140.36 28.19H139.29C139.3 28.49 139.3 28.83 139.3 30.07V34.69H140.42V30.22C140.42 29.55 140.54 29.1 141.06 29.1C141.43 29.1 141.61 29.29 141.61 29.93V34.69H142.74V30.2C142.74 29.53 142.86 29.1 143.38 29.1C143.81 29.1 143.92 29.41 143.92 29.89V34.69H145.04V29.67C145.04 28.41 144.46 28.08 143.78 28.08L143.79 28.09Z" fill="var(--fill-0, white)"/>
<path d="M147.83 28.09C146.73 28.09 145.99 28.74 145.99 30.08V32.74C145.99 34.12 146.61 34.8 147.79 34.8C148.97 34.8 149.62 34.12 149.62 32.72V30.12C149.62 28.81 148.97 28.09 147.83 28.09ZM148.49 32.76C148.49 33.47 148.28 33.8 147.81 33.8C147.31 33.8 147.12 33.39 147.12 32.78V30.07C147.12 29.44 147.33 29.09 147.81 29.09C148.32 29.09 148.49 29.5 148.49 30.06V32.76Z" fill="var(--fill-0, white)"/>
<path d="M155.05 28.09C154.38 28.09 154.04 28.44 153.82 28.81C153.67 28.31 153.31 28.09 152.79 28.09C152.27 28.09 151.87 28.34 151.66 28.78C151.66 28.56 151.66 28.39 151.62 28.19H150.55C150.56 28.49 150.56 28.83 150.56 30.07V34.69H151.68V30.22C151.68 29.55 151.8 29.1 152.32 29.1C152.69 29.1 152.87 29.29 152.87 29.93V34.69H154V30.2C154 29.53 154.12 29.1 154.64 29.1C155.07 29.1 155.18 29.41 155.18 29.89V34.69H156.3V29.67C156.3 28.41 155.72 28.08 155.04 28.08L155.05 28.09Z" fill="var(--fill-0, white)"/>
<path d="M159.05 28.09C157.56 28.09 157.25 29.32 157.25 30.25V32.51C157.25 33.83 157.52 34.79 159.05 34.79C160.58 34.79 160.78 33.53 160.78 32.82V32.78H159.68V32.82C159.68 33.36 159.59 33.84 159.03 33.84C158.47 33.84 158.35 33.29 158.35 32.72V31.72H160.79V30.25C160.79 29.03 160.38 28.09 159.05 28.09ZM159.72 30.82H158.36V30.09C158.36 29.43 158.54 29.04 159.05 29.04C159.6 29.04 159.72 29.48 159.72 30.09V30.82Z" fill="var(--fill-0, white)"/>
<path d="M164 28.09C163.36 28.09 162.99 28.39 162.8 28.81C162.8 28.58 162.78 28.34 162.76 28.19H161.69C161.7 28.5 161.7 28.87 161.7 30.19V34.7H162.82V30.4C162.82 29.36 163.07 29.11 163.57 29.11C163.98 29.11 164.18 29.37 164.18 29.97V34.7H165.3V29.76C165.3 28.55 164.74 28.1 163.99 28.1L164 28.09Z" fill="var(--fill-0, white)"/>
<path d="M167.68 26.61H166.56V28.19H165.84V29.18H166.56V33.46C166.56 34.53 167.02 34.79 167.76 34.79C167.99 34.79 168.3 34.77 168.51 34.67V33.81C168.43 33.84 168.25 33.85 168.13 33.85C167.73 33.85 167.68 33.57 167.68 33.25V29.17H168.54V28.18H167.68V26.6V26.61Z" fill="var(--fill-0, white)"/>
</g>
</svg>
