<svg preserveAspectRatio="none" width="100%" height="100%" overflow="visible" style="display: block;" viewBox="0 0 1920 98" fill="none" xmlns="http://www.w3.org/2000/svg">
<g id="header">
<g id="header-logo">
<path d="M223.659 37.945C222.998 37.945 222.372 38.055 221.783 38.265C221.194 38.475 220.687 38.785 220.261 39.195C219.835 39.595 219.491 40.105 219.246 40.705C219.001 41.305 218.874 41.995 218.874 42.775C218.874 43.305 218.938 43.785 219.074 44.215C219.201 44.645 219.391 45.035 219.627 45.385C219.862 45.735 220.134 46.065 220.442 46.375C220.75 46.685 221.086 47.005 221.448 47.325C221.747 47.595 222.037 47.865 222.3 48.125C222.563 48.385 222.789 48.645 222.998 48.915C223.197 49.185 223.36 49.455 223.478 49.725C223.596 49.995 223.65 50.285 223.65 50.595C223.65 50.965 223.578 51.285 223.442 51.555C223.306 51.825 223.125 52.065 222.907 52.265C222.69 52.465 222.436 52.615 222.155 52.715C221.874 52.815 221.575 52.865 221.276 52.865C220.451 52.865 219.781 52.605 219.264 52.075C218.757 51.545 218.467 50.855 218.412 49.985H217.977C217.905 50.385 217.796 50.835 217.642 51.335C217.488 51.835 217.307 52.315 217.08 52.775C217.787 53.265 218.476 53.605 219.155 53.805C219.835 54.005 220.587 54.105 221.412 54.105C222.073 54.105 222.708 54.005 223.315 53.805C223.922 53.605 224.457 53.305 224.919 52.895C225.381 52.485 225.744 51.975 226.016 51.365C226.287 50.755 226.423 50.045 226.423 49.235C226.423 48.735 226.36 48.275 226.224 47.875C226.088 47.475 225.916 47.095 225.707 46.755C225.49 46.415 225.245 46.095 224.955 45.795C224.665 45.495 224.357 45.205 224.04 44.915C223.641 44.545 223.288 44.215 222.98 43.925C222.672 43.625 222.427 43.345 222.227 43.075C222.028 42.805 221.874 42.545 221.774 42.275C221.675 42.005 221.62 41.735 221.62 41.445C221.62 41.185 221.666 40.935 221.756 40.675C221.847 40.425 221.983 40.205 222.164 40.015C222.345 39.825 222.572 39.665 222.835 39.545C223.107 39.425 223.415 39.365 223.759 39.365C224.547 39.365 225.137 39.605 225.544 40.085C225.943 40.565 226.179 41.175 226.251 41.905H226.704C226.804 41.495 226.904 41.075 227.012 40.655C227.121 40.235 227.312 39.745 227.592 39.185C226.967 38.745 226.351 38.435 225.726 38.245C225.1 38.065 224.421 37.975 223.677 37.975L223.659 37.945Z" fill="var(--fill-0, white)"/>
<path d="M239.501 39.055C239.546 38.815 239.618 38.545 239.727 38.225C239.483 38.245 239.193 38.255 238.857 38.275C238.522 38.295 238.178 38.305 237.815 38.325C237.453 38.345 237.072 38.345 236.682 38.345H234.263C233.347 38.345 232.477 38.335 231.643 38.315C230.81 38.295 229.976 38.265 229.151 38.235C229.124 38.605 229.079 38.905 229.024 39.135C228.97 39.375 228.888 39.665 228.78 40.015C229.305 39.965 229.777 39.935 230.212 39.915C230.638 39.895 231.1 39.885 231.598 39.885H232.677C232.523 40.895 232.359 41.875 232.187 42.845C232.015 43.815 231.834 44.785 231.634 45.755C231.372 47.145 231.082 48.505 230.764 49.855C230.447 51.205 230.13 52.535 229.813 53.845C230.048 53.815 230.302 53.795 230.592 53.795H232.323C232.613 53.795 232.912 53.815 233.211 53.845C233.393 52.535 233.601 51.235 233.855 49.955C234.099 48.675 234.362 47.375 234.625 46.045C234.888 44.755 235.133 43.615 235.359 42.635C235.586 41.665 235.803 40.735 236.012 39.865C236.492 39.865 237.008 39.875 237.561 39.895C238.114 39.915 238.721 39.965 239.383 40.045C239.428 39.615 239.464 39.285 239.51 39.055H239.501Z" fill="var(--fill-0, white)"/>
<path d="M246.76 44.785C246.524 44.805 246.261 44.805 245.971 44.805H243.343C243.452 44.195 243.606 43.435 243.787 42.515C243.978 41.605 244.186 40.685 244.422 39.775C245.156 39.775 245.754 39.775 246.234 39.785C246.714 39.785 247.122 39.805 247.467 39.835C247.811 39.855 248.11 39.885 248.355 39.905C248.599 39.925 248.862 39.955 249.143 39.985C249.116 39.665 249.125 39.395 249.161 39.165C249.207 38.935 249.315 38.625 249.497 38.225C249.025 38.255 248.482 38.285 247.847 38.305C247.222 38.325 246.542 38.335 245.826 38.335C245.11 38.335 244.313 38.335 243.515 38.325C242.718 38.325 242.011 38.285 241.395 38.225C241.34 38.715 241.25 39.375 241.114 40.215C240.978 41.055 240.833 41.975 240.661 42.965C240.488 43.965 240.298 45.005 240.099 46.095C239.899 47.185 239.691 48.225 239.492 49.225C239.283 50.225 239.084 51.125 238.903 51.945C238.712 52.765 238.549 53.385 238.413 53.835C238.966 53.805 239.555 53.785 240.18 53.785H244.24C244.947 53.785 245.718 53.805 246.551 53.835C246.524 53.655 246.524 53.445 246.56 53.215C246.597 52.985 246.705 52.645 246.878 52.185C246.588 52.215 246.325 52.245 246.089 52.265C245.853 52.285 245.618 52.305 245.382 52.315C245.147 52.315 244.902 52.335 244.639 52.335C244.376 52.335 244.077 52.345 243.724 52.345H242.065C242.174 51.325 242.319 50.305 242.491 49.295C242.663 48.285 242.845 47.275 243.044 46.265C243.787 46.265 244.585 46.275 245.428 46.295C246.27 46.315 247.05 46.375 247.766 46.465C247.748 46.225 247.757 45.975 247.775 45.735C247.793 45.495 247.902 45.145 248.092 44.685C247.874 44.705 247.648 44.715 247.43 44.735C247.213 44.755 246.977 44.765 246.751 44.785H246.76Z" fill="var(--fill-0, white)"/>
<path d="M259.484 44.355C259.764 43.725 259.909 42.975 259.909 42.105C259.909 40.715 259.547 39.725 258.831 39.125C258.115 38.525 257.154 38.225 255.949 38.225C255.424 38.225 254.916 38.245 254.436 38.285C253.955 38.325 253.493 38.345 253.049 38.345C252.732 38.345 252.442 38.335 252.188 38.315C251.934 38.295 251.699 38.265 251.472 38.235C251.391 38.875 251.291 39.505 251.182 40.135C251.074 40.765 250.965 41.395 250.847 42.035C250.484 44.065 250.095 46.055 249.678 48.025C249.261 49.995 248.808 51.935 248.346 53.855C248.581 53.825 248.826 53.805 249.08 53.805H250.802C251.074 53.805 251.345 53.825 251.617 53.855C251.799 52.725 251.998 51.585 252.215 50.415C252.433 49.245 252.669 48.115 252.922 47.025C253.131 47.055 253.375 47.085 253.656 47.105C253.937 47.125 254.245 47.135 254.581 47.135C255.315 47.135 256.004 47.035 256.638 46.835C257.281 46.635 257.843 46.335 258.324 45.935C258.804 45.535 259.194 45.015 259.474 44.385L259.484 44.355ZM256.647 43.335C256.529 43.835 256.348 44.265 256.112 44.645C255.868 45.025 255.559 45.335 255.179 45.555C254.798 45.785 254.345 45.895 253.819 45.895C253.665 45.895 253.539 45.895 253.439 45.885C253.339 45.885 253.23 45.865 253.122 45.855C253.312 44.785 253.511 43.725 253.711 42.675C253.91 41.625 254.128 40.575 254.363 39.525C254.726 39.515 255.052 39.525 255.36 39.555C255.659 39.595 255.922 39.695 256.139 39.855C256.357 40.015 256.52 40.245 256.647 40.555C256.774 40.865 256.837 41.275 256.837 41.785C256.837 42.295 256.783 42.835 256.665 43.325L256.647 43.335Z" fill="var(--fill-0, white)"/>
<path d="M265.347 41.905C265.374 41.765 265.429 41.525 265.501 41.185C265.574 40.845 265.655 40.475 265.746 40.085C265.836 39.695 265.918 39.325 266.009 38.965C266.09 38.605 266.144 38.355 266.172 38.225C265.909 38.255 265.646 38.285 265.383 38.305C265.12 38.325 264.849 38.335 264.559 38.335C264.269 38.335 263.979 38.325 263.716 38.305C263.462 38.285 263.172 38.255 262.855 38.225C262.782 38.715 262.683 39.365 262.556 40.165C262.42 40.975 262.275 41.855 262.112 42.815C261.949 43.775 261.767 44.765 261.586 45.785C261.396 46.805 261.224 47.775 261.051 48.685C260.879 49.595 260.716 50.425 260.571 51.155C260.426 51.885 260.317 52.435 260.254 52.805C260.118 53.425 259.991 53.955 259.873 54.385C259.755 54.815 259.601 55.165 259.42 55.455C259.23 55.745 259.003 55.955 258.722 56.095C258.45 56.235 258.07 56.315 257.58 56.345L257.707 57.395C258.45 57.395 259.121 57.335 259.71 57.205C260.299 57.075 260.87 56.825 261.423 56.435C261.822 56.165 262.157 55.805 262.429 55.375C262.701 54.945 262.927 54.445 263.109 53.875C263.299 53.315 263.453 52.655 263.589 51.895C263.716 51.145 263.852 50.305 263.997 49.395C264.096 48.785 264.187 48.225 264.269 47.705C264.35 47.185 264.441 46.645 264.54 46.085C264.64 45.525 264.749 44.905 264.885 44.245C265.012 43.585 265.175 42.805 265.374 41.905H265.347Z" fill="var(--fill-0, white)"/>
<path d="M277.137 53.785C277.445 53.785 277.708 53.805 277.917 53.835C277.681 52.955 277.436 51.965 277.183 50.865C276.929 49.765 276.684 48.645 276.449 47.505C276.213 46.365 275.986 45.255 275.778 44.165C275.56 43.085 275.379 42.105 275.216 41.225C275.053 40.345 274.926 39.625 274.826 39.055C274.727 38.485 274.663 38.145 274.654 38.035C274.446 38.115 274.183 38.145 273.866 38.145C273.594 38.145 273.331 38.105 273.077 38.035C272.923 38.375 272.787 38.675 272.66 38.935C272.534 39.205 272.398 39.475 272.253 39.765C272.108 40.055 271.945 40.375 271.754 40.735C271.564 41.095 271.346 41.515 271.093 42.015C270.839 42.515 270.531 43.105 270.168 43.785C269.806 44.475 269.38 45.295 268.881 46.255C268.202 47.555 267.522 48.835 266.833 50.095C266.144 51.355 265.456 52.605 264.785 53.825C264.912 53.795 265.057 53.775 265.22 53.775H265.755C266.144 53.775 266.434 53.795 266.643 53.825C267.169 52.695 267.613 51.755 267.975 51.005C268.338 50.255 268.664 49.625 268.936 49.115C269.28 49.095 269.615 49.085 269.933 49.085C270.25 49.085 270.676 49.075 271.22 49.075C271.763 49.075 272.235 49.075 272.642 49.085C273.05 49.085 273.449 49.105 273.857 49.115C273.875 49.175 273.893 49.295 273.92 49.485C273.947 49.665 273.975 49.865 274.002 50.065C274.029 50.275 274.056 50.465 274.092 50.645C274.129 50.825 274.147 50.955 274.165 51.035C274.246 51.645 274.31 52.185 274.364 52.655C274.41 53.125 274.455 53.515 274.5 53.825C274.69 53.795 274.926 53.775 275.207 53.775H277.146L277.137 53.785ZM272.706 47.785C272.379 47.785 272.062 47.795 271.745 47.795C271.383 47.795 271.029 47.795 270.676 47.785C270.322 47.785 269.978 47.765 269.634 47.755C270.087 46.845 270.567 45.945 271.065 45.055C271.564 44.175 272.062 43.285 272.561 42.405C272.688 42.905 272.796 43.375 272.896 43.795C272.996 44.225 273.077 44.645 273.159 45.065C273.231 45.485 273.313 45.915 273.385 46.345C273.458 46.775 273.54 47.245 273.621 47.755C273.349 47.775 273.041 47.785 272.724 47.785H272.706Z" fill="var(--fill-0, white)"/>
<path d="M295.942 42.875C296.132 41.865 296.305 40.945 296.468 40.125C296.631 39.305 296.776 38.675 296.885 38.225C296.703 38.255 296.522 38.285 296.332 38.305C296.141 38.325 295.951 38.335 295.743 38.335C295.426 38.335 295.09 38.295 294.746 38.225C294.474 38.655 294.102 39.205 293.649 39.885C293.196 40.565 292.698 41.285 292.172 42.055C291.637 42.825 291.103 43.605 290.559 44.405C290.015 45.205 289.508 45.935 289.045 46.595C288.583 47.255 288.194 47.815 287.876 48.265C287.559 48.715 287.369 48.985 287.296 49.075C287.197 48.785 287.034 48.255 286.807 47.485C286.58 46.715 286.327 45.825 286.037 44.815C285.756 43.805 285.457 42.715 285.158 41.555C284.85 40.395 284.578 39.285 284.333 38.215C283.943 38.295 283.59 38.325 283.273 38.325C282.955 38.325 282.62 38.285 282.276 38.215C282.149 38.795 282.004 39.505 281.823 40.345C281.641 41.185 281.442 42.085 281.234 43.055C281.016 44.025 280.799 45.025 280.563 46.045C280.327 47.075 280.101 48.075 279.865 49.035C279.639 50.005 279.412 50.905 279.204 51.745C278.986 52.585 278.796 53.275 278.633 53.825C278.85 53.795 279.113 53.775 279.421 53.775H279.829C279.947 53.775 280.083 53.795 280.237 53.825C280.336 53.275 280.454 52.655 280.599 51.965C280.744 51.275 280.898 50.565 281.052 49.855C281.206 49.135 281.379 48.435 281.551 47.725C281.723 47.025 281.886 46.385 282.031 45.795C282.176 45.205 282.303 44.705 282.403 44.275C282.502 43.845 282.575 43.555 282.62 43.385C282.693 43.625 282.792 43.995 282.919 44.475C283.046 44.955 283.2 45.505 283.363 46.125C283.526 46.745 283.699 47.415 283.88 48.135C284.061 48.855 284.242 49.575 284.415 50.295C284.596 51.015 284.759 51.705 284.913 52.375C285.067 53.045 285.185 53.635 285.285 54.135C285.339 54.115 285.393 54.105 285.439 54.105C285.484 54.105 285.547 54.095 285.611 54.095C285.674 54.095 285.738 54.095 285.783 54.105C285.828 54.105 285.883 54.125 285.937 54.135C286.445 53.255 286.952 52.375 287.46 51.515C287.967 50.655 288.502 49.785 289.082 48.925C289.671 48.015 290.278 47.125 290.885 46.265C291.492 45.405 292.118 44.535 292.752 43.675C292.643 44.525 292.516 45.415 292.371 46.335C292.226 47.255 292.072 48.165 291.918 49.065C291.755 49.965 291.601 50.825 291.429 51.655C291.266 52.485 291.103 53.215 290.949 53.835C291.184 53.805 291.429 53.785 291.692 53.785H293.386C293.631 53.785 293.876 53.805 294.111 53.835C294.166 53.425 294.256 52.805 294.383 51.985C294.51 51.165 294.655 50.245 294.827 49.235C295 48.225 295.181 47.165 295.362 46.055C295.552 44.955 295.734 43.895 295.924 42.875H295.942Z" fill="var(--fill-0, white)"/>
<path d="M302.757 40.495H307.56L305.566 42.365L306.881 44.125L313.17 38.225H299.73L299.495 39.695L303.165 44.615L300.383 47.225L300.972 43.565L299.241 41.255L297.356 53.055L306.047 44.905L302.757 40.495Z" fill="var(--fill-0, white)"/>
<path d="M311.339 41.265L310.75 44.815L313.188 42.545L313.75 39.005L311.339 41.265Z" fill="var(--fill-0, white)"/>
<path d="M309.636 51.565H303.546L307.678 47.685L308.249 44.165L297.936 53.835H311.376L312.934 44.085L310.497 46.365L309.636 51.565Z" fill="var(--fill-0, white)"/>
<path d="M277.989 55.265C277.618 55.265 277.427 55.475 277.3 55.715C277.219 55.405 277.01 55.265 276.73 55.265C276.449 55.265 276.213 55.415 276.095 55.695C276.095 55.555 276.095 55.455 276.068 55.335H275.47C275.47 55.525 275.47 55.725 275.47 56.495V59.345H276.095V56.585C276.095 56.165 276.159 55.895 276.449 55.895C276.657 55.895 276.757 56.015 276.757 56.405V59.345H277.391V56.575C277.391 56.165 277.455 55.895 277.754 55.895C277.989 55.895 278.053 56.085 278.053 56.385V59.345H278.678V56.255C278.678 55.475 278.352 55.275 277.971 55.275L277.989 55.265Z" fill="var(--fill-0, white)"/>
<path d="M281.134 56.325C281.134 55.705 280.907 55.275 280.237 55.275C279.494 55.275 279.294 55.775 279.294 56.345V56.415H279.91V56.335C279.91 56.055 279.974 55.845 280.219 55.845C280.463 55.845 280.509 56.045 280.509 56.385V56.955H280.391C279.738 56.955 279.176 57.245 279.176 58.195V58.265C279.176 58.875 279.394 59.415 279.929 59.415C280.2 59.415 280.409 59.315 280.527 59.045C280.527 59.105 280.554 59.265 280.572 59.355H281.152C281.143 59.215 281.134 58.855 281.134 58.585V56.325ZM280.518 57.995C280.518 58.565 280.409 58.795 280.128 58.795C279.874 58.795 279.784 58.555 279.784 58.235V58.175C279.784 57.645 280.01 57.475 280.382 57.475H280.527V57.995H280.518Z" fill="var(--fill-0, white)"/>
<path d="M283.119 55.335C282.928 55.835 282.575 56.685 282.403 57.125H282.394V53.895H281.768V59.335H282.394V58.075L282.675 57.485L283.173 59.345H283.862L283.11 56.815L283.789 55.335H283.119Z" fill="var(--fill-0, white)"/>
<path d="M284.985 55.265C284.152 55.265 283.98 56.025 283.98 56.595V57.985C283.98 58.795 284.134 59.395 284.985 59.395C285.837 59.395 285.946 58.615 285.946 58.175V58.155H285.33V58.185C285.33 58.515 285.285 58.815 284.967 58.815C284.65 58.815 284.587 58.475 284.587 58.125V57.505H285.955V56.595C285.955 55.835 285.72 55.265 284.976 55.265H284.985ZM285.357 56.955H284.596V56.505C284.596 56.095 284.695 55.855 284.976 55.855C285.285 55.855 285.348 56.125 285.348 56.505V56.955H285.357Z" fill="var(--fill-0, white)"/>
<path d="M288.103 54.355H287.478V55.325H287.079V55.935H287.478V58.575C287.478 59.235 287.74 59.395 288.148 59.395C288.275 59.395 288.456 59.385 288.565 59.325V58.795C288.565 58.795 288.42 58.815 288.357 58.815C288.13 58.815 288.103 58.645 288.103 58.445V55.935H288.583V55.325H288.103V54.355Z" fill="var(--fill-0, white)"/>
<path d="M290.233 55.265C289.87 55.265 289.671 55.445 289.562 55.675V53.895H288.937V59.335H289.562V56.665C289.562 56.155 289.644 55.895 289.979 55.895C290.278 55.895 290.323 56.165 290.323 56.485V59.345H290.949V56.305C290.949 55.725 290.776 55.275 290.233 55.275V55.265Z" fill="var(--fill-0, white)"/>
<path d="M292.489 55.265C291.656 55.265 291.483 56.025 291.483 56.595V57.985C291.483 58.795 291.637 59.395 292.489 59.395C293.341 59.395 293.45 58.615 293.45 58.175V58.155H292.834V58.185C292.834 58.515 292.788 58.815 292.471 58.815C292.154 58.815 292.091 58.475 292.091 58.125V57.505H293.459V56.595C293.459 55.835 293.223 55.265 292.48 55.265H292.489ZM292.861 56.955H292.1V56.505C292.1 56.095 292.199 55.855 292.48 55.855C292.788 55.855 292.852 56.125 292.852 56.505V56.955H292.861Z" fill="var(--fill-0, white)"/>
<path d="M297.419 55.265C297.048 55.265 296.857 55.475 296.731 55.715C296.649 55.405 296.441 55.265 296.16 55.265C295.879 55.265 295.643 55.415 295.525 55.695C295.525 55.555 295.525 55.455 295.498 55.335H294.9C294.9 55.525 294.9 55.725 294.9 56.495V59.345H295.525V56.585C295.525 56.165 295.589 55.895 295.879 55.895C296.087 55.895 296.187 56.015 296.187 56.405V59.345H296.821V56.575C296.821 56.165 296.885 55.895 297.184 55.895C297.419 55.895 297.483 56.085 297.483 56.385V59.345H298.108V56.255C298.108 55.475 297.782 55.275 297.401 55.275L297.419 55.265Z" fill="var(--fill-0, white)"/>
<path d="M299.676 55.265C299.06 55.265 298.652 55.665 298.652 56.495V58.135C298.652 58.985 299.005 59.405 299.658 59.405C300.31 59.405 300.682 58.985 300.682 58.125V56.525C300.682 55.715 300.319 55.275 299.685 55.275L299.676 55.265ZM300.047 58.145C300.047 58.575 299.93 58.785 299.667 58.785C299.386 58.785 299.277 58.525 299.277 58.155V56.485C299.277 56.095 299.395 55.885 299.658 55.885C299.948 55.885 300.038 56.135 300.038 56.485V58.155L300.047 58.145Z" fill="var(--fill-0, white)"/>
<path d="M303.718 55.265C303.346 55.265 303.156 55.475 303.029 55.715C302.947 55.405 302.739 55.265 302.458 55.265C302.177 55.265 301.941 55.415 301.824 55.695C301.824 55.555 301.824 55.455 301.796 55.335H301.198C301.198 55.525 301.198 55.725 301.198 56.495V59.345H301.824V56.585C301.824 56.165 301.887 55.895 302.177 55.895C302.386 55.895 302.485 56.015 302.485 56.405V59.345H303.12V56.575C303.12 56.165 303.183 55.895 303.482 55.895C303.718 55.895 303.781 56.085 303.781 56.385V59.345H304.406V56.255C304.406 55.475 304.08 55.275 303.7 55.275L303.718 55.265Z" fill="var(--fill-0, white)"/>
<path d="M305.947 55.265C305.113 55.265 304.941 56.025 304.941 56.595V57.985C304.941 58.795 305.095 59.395 305.947 59.395C306.799 59.395 306.908 58.615 306.908 58.175V58.155H306.291V58.185C306.291 58.515 306.246 58.815 305.929 58.815C305.612 58.815 305.548 58.475 305.548 58.125V57.505H306.917V56.595C306.917 55.835 306.681 55.265 305.938 55.265H305.947ZM306.319 56.955H305.557V56.505C305.557 56.095 305.657 55.855 305.938 55.855C306.246 55.855 306.31 56.125 306.31 56.505V56.955H306.319Z" fill="var(--fill-0, white)"/>
<path d="M308.72 55.265C308.358 55.265 308.158 55.445 308.05 55.705C308.05 55.565 308.041 55.415 308.022 55.325H307.424C307.424 55.515 307.424 55.745 307.424 56.555V59.335H308.05V56.685C308.05 56.045 308.186 55.885 308.467 55.885C308.693 55.885 308.811 56.045 308.811 56.415V59.335H309.436V56.285C309.436 55.535 309.128 55.265 308.702 55.265H308.72Z" fill="var(--fill-0, white)"/>
<path d="M310.777 54.355H310.152V55.325H309.753V55.935H310.152V58.575C310.152 59.235 310.415 59.395 310.823 59.395C310.95 59.395 311.131 59.385 311.24 59.325V58.795C311.24 58.795 311.095 58.815 311.031 58.815C310.805 58.815 310.777 58.645 310.777 58.445V55.935H311.258V55.325H310.777V54.355Z" fill="var(--fill-0, white)"/>
</g>
<g id="header-nav">
<path d="M173.08 0H0V19.12H173.08V0Z" fill="var(--fill-0, white)"/>
<path d="M173.08 39.12H0V58.24H173.08V39.12Z" fill="var(--fill-0, white)"/>
<path d="M173.08 78.24H0V97.36H173.08V78.24Z" fill="var(--fill-0, white)"/>
</g>
</g>
</svg>
