<?xml version="1.0" encoding="UTF-8"?>
<svg id="lib-top" xmlns="http://www.w3.org/2000/svg" version="1.1" viewBox="0 0 6636 8192">
  <!-- Generator: Adobe Illustrator 29.6.1, SVG Export Plug-In . SVG Version: 2.1.1 Build 9)  -->
  <defs>
    <style>
      .st0 {
        fill: #fff;
      }
    </style>
  </defs>
  <g>
    <path class="st0" d="M1670.56,5216.11c-42.35,0-69.14-8.57-84.3-26.96-22.93-27.83-18.86-76.36-3.31-156.18,23.54-120.84,48.34-244.97,72.34-365.01,23.18-115.96,47.11-235.69,70.21-354-335.76,363.53-689.89,614.37-1113.2,788.73l-5.77,2.38-4.61-52.78,1.54-1.52c330.68-326.05,773.83-844.52,1029.11-1324.71h-78.96c-22.68,90.11-50.5,127.05-117.55,157.09-59.69,25.23-185.26,52.9-240.03,52.9-43.29,0-70.85-8.99-86.76-28.3-27.11-32.9-18.05-92.27-1.14-179.08,14.56-74.76,31.27-150.74,47.43-224.23,16.15-73.43,32.85-149.35,47.39-224l109.33-561.27c43.21-221.87,77.75-415.99,105.58-593.43l1.1-6.99,420.46,273.67h260.36l78.44-402.72h-720.79c-74.21,0-135.97,4.96-200.24,16.09l-5.03.87-9.92-155.83,5.37.52c82.07,7.92,166.94,16.13,249.37,16.13h705.05l1.64-8.42c31.73-162.9,64.48-331.07,86.69-496.4l.64-4.72,469.86,81.56c13.42,2.24,38.45,6.41,50.93,24.39,7.36,10.61,9.41,24.6,6.1,41.57-11.03,56.61-55.55,74.56-111.92,97.29l-5.12,2.07-51.16,262.65h332.49l247.58-408.29c25.16-40.02,40.35-64.17,64.93-64.17,17.75,0,28.89,13.96,55.54,58.78l229.47,403.88c7.56,13.03,23.34,40.22,17.2,71.8-10.4,53.39-45.88,60.24-75.62,60.24h-895.41l-78.44,402.72h280.09l159.62-228.51c29.43-44.02,41.61-62.24,64.71-62.24,20.52,0,44.98,27.36,61.88,50.31l209.28,315.17c18.67,26.99,38.76,65.14,27.97,120.51-15.57,79.94-106.45,154.61-146.71,187.38l-61.82,317.39c-16.9,86.74-32.17,174.96-46.94,260.28-14.79,85.42-30.08,173.73-47.01,260.62-34.44,176.81-47.69,225.07-150.41,273.82-65.7,29.72-157.65,48.9-234.32,48.9-40.92,0-67.26-8.84-82.9-27.82-25.24-30.62-20.57-86.77-4.85-167.44l2.87-14.73h-274.62c208.08,366.23,548.87,479.99,886.39,548.18l4.46.9-10.63,54.58-1.32,1.05c-205.54,163.94-321.6,478.13-416.41,793.23l-2.13,7.06-5.39-5.03c-296.93-276.89-450.21-638.05-509.81-1203.66l-32.62,167.45c-22.9,117.56-44.21,236.85-64.82,352.22-20.36,113.93-41.41,231.74-63.74,346.37l-31.46,161.52c-23.41,120.17-46.87,195.59-175.1,229.69-54.82,16.63-136.1,36.5-211.14,36.5v-.02ZM1740.72,4283.83l-3.11,15.97c-24.06,123.49-49.1,248.79-73.32,369.95-23.99,120.04-48.8,244.16-72.33,364.98-15.01,77.07-19.23,123.57,1.39,148.6,13.27,16.12,37.81,23.62,77.22,23.62,73.92,0,154.26-19.65,208.64-36.15,123.21-32.76,145.89-105.96,168.61-222.62l31.46-161.52c22.31-114.56,43.36-232.33,63.71-346.23,20.62-115.4,41.94-234.73,64.85-352.36l44.54-228.66,3.06,31.22c56.67,577.52,207.73,944.05,504.7,1223.65,94.64-313.47,210.88-625.07,416.02-789.62l8.25-42.34c-340.31-69.16-683.35-185.35-891.96-558.62l-3.81-6.82h301.41l-5,25.65c-15.2,78.05-20.01,132,2.93,159.85,13.76,16.7,37.85,24.48,75.83,24.48,75.48,0,165.94-18.86,230.47-48.05,98.94-46.96,110.83-90.47,145.27-267.26,16.91-86.79,32.19-175.07,46.97-260.44,14.78-85.35,30.06-173.62,46.98-260.46l62.45-320.65,1.29-1.05c38.8-31.58,129.68-105.53,144.79-183.07,10.07-51.69-7.78-86.45-26.56-113.61l-209.2-315.05c-21.36-28.99-41.73-46.4-54.38-46.4-18.2,0-28.79,15.84-57.09,58.17l-8.37,12.5-154.1,220.08h-295.99l82.02-421.06h902.96c27.86,0,57.56-6.28,66.62-52.82,4.82-24.78-4.91-46.11-16.15-65.47l-229.45-403.83c-25.9-43.56-35.26-54.22-47.62-54.22-19.52,0-33.69,22.54-57.17,59.88l-1.63,2.6-248.55,409.98h-348.79l54.24-278.45,9.74-3.94c55.89-22.53,96.27-38.82,106.35-90.54,2.82-14.46,1.25-26.09-4.64-34.59-10.27-14.8-32.82-18.56-44.93-20.59l-460.51-79.94c-22.23,164.08-54.69,330.74-86.09,491.95l-3.13,16.1h-712.6c-81.08,0-164.28-7.87-244.91-15.66l8.59,134.91c63.01-10.61,123.95-15.36,196.77-15.36h731.92l-82.02,421.06h-270.64l-410.88-267.44c-27.66,175.67-61.87,367.7-104.54,586.78l-109.33,561.27c-14.56,74.76-31.27,150.74-47.43,224.22-16.15,73.43-32.85,149.36-47.39,224.01-15.91,81.66-25.27,141.77-.78,171.49,14.03,17.02,39.35,24.96,79.68,24.96,52.82,0,178.73-27.78,236.36-52.14,58.37-26.14,88.59-54.64,113.18-154.36l.86-3.48h101.36l-3.55,6.72c-254.8,482.25-700.26,1004.02-1032.81,1332.17l3.15,36.04c424.09-175.64,778.58-428.71,1115.14-796l10.99-11.99h-.01ZM2610.26,3613h-309.9l100.11-513.93h309.9l-100.11,513.93ZM2311.49,3603.83h291.22l96.54-495.59h-291.22l-96.54,495.59ZM1871.38,3613h-302.39l100.11-513.93h302.39l-100.11,513.93ZM1580.12,3603.83h283.7l96.54-495.59h-283.7l-96.54,495.59h0ZM2730.61,2995.18h-309.9l95.39-489.7h309.9l-95.39,489.7ZM2431.83,2986.01h291.22l91.81-471.36h-291.22l-91.81,471.36h0ZM1991.72,2995.18h-302.39l95.39-489.7h302.39l-95.39,489.7h0ZM1700.46,2986.01h283.7l91.81-471.36h-283.7l-91.81,471.36h0Z"/>
    <path class="st0" d="M3895.3,5248.95l1.17-6c35.44-181.92,51.02-326.14,19.25-482.77-22.84-115.35-54.39-160.17-112.14-232.14-241.03,260.9-481.44,459.37-734.88,606.69l-4.49,2.61-16.76-39.38,1.39-2.06c273.83-406.05,471.5-768.99,660.21-1212.34h-30.64c-32.89,0-65.93-3.16-84.82-26.09-20.08-24.36-22.68-67.81-8.44-140.89,14.96-76.8,31.87-153.83,48.23-228.33,16.34-74.39,33.23-151.33,48.16-227.98l80.22-411.88c39.43-202.46,80.21-411.8,112.81-617.66l1.13-7.16,446.76,306.15h870.2l175.65-276.51c28.42-45.17,48.86-74.8,73.13-74.8,17.9,0,28.5,6.58,64.24,50.14l231,298.53c26.97,34.95,46.46,60.2,36.95,109.06-11.22,57.61-71.04,133.54-173.02,219.64l-41.38,212.43c-16.9,86.74-32.17,174.97-46.94,260.28-14.79,85.42-30.08,173.73-47.01,260.62-25.4,130.43-51.71,180.13-157.37,217.46-75.17,28.09-141.43,40.63-214.77,40.63-51.37,0-81.66-8.96-98.23-29.07-23.53-28.56-19.15-78.36-2.05-166.17l2.87-14.73h-228.61l-99.95,513.16c-15.74,80.77-30.26,161.89-44.31,240.33-14.04,78.39-28.55,159.44-44.28,240.19-47.72,244.98-103.77,398.44-263.03,507.66-104.48,72.8-260.79,95.8-414.15,109.82l-6.08.56h-.02ZM3804.06,4513.99l3.34,4.15c60.8,75.58,93.63,120.6,117.32,240.24,31.72,156.36,16.75,300.12-18.07,480.33,150.14-13.95,302.3-37.02,403.69-107.67,156.69-107.45,211.99-259.28,259.25-501.87,15.71-80.68,30.22-161.7,44.25-240.06,14.05-78.48,28.58-159.63,44.33-240.47l101.39-520.58h247.3l-5,25.65c-16.55,84.99-21.08,132.85.13,158.58,14.67,17.8,42.78,25.73,91.16,25.73,72.19,0,137.47-12.37,211.64-40.09,89.04-31.46,123.4-66.29,151.5-210.6,16.91-86.79,32.19-175.07,46.97-260.44,14.78-85.36,30.06-173.63,46.98-260.47l42-215.6,1.24-1.05c101.12-85.16,160.3-159.66,171.17-215.42,8.72-44.79-8.75-67.44-35.2-101.71l-2.8-3.64-228.11-294.78c-36.67-44.69-44.39-46.68-57.07-46.68-19.51,0-39.4,29.24-65.38,70.54l-178.36,280.77h-878.08l-1.17-.81-435.97-298.75c-32.42,203.71-72.73,410.64-111.72,610.82l-80.22,411.88c-14.95,76.76-31.86,153.74-48.21,228.19-16.35,74.44-33.25,151.42-48.19,228.11-13.48,69.19-11.41,111.54,6.52,133.3,13.32,16.16,35.84,22.75,77.75,22.75h44.5l-2.7,6.38c-189.44,446.06-387.61,810.54-662.37,1218.2l10.74,25.22c252.24-147.31,491.7-345.68,731.87-606.27l3.61-3.91-.03.03ZM5111.36,5090.92c-98.26,0-112.83-83.59-141.89-250.12-28.3-162.91-114.45-658.64-225.94-907.47l-.95-2.11,25.62-45.2,3.17.54c219.96,37.17,380.24,106.24,489.98,211.17,155.84,145.84,212.48,334.76,168.32,561.46-20.85,107.03-64.38,214.36-119.43,294.47-60.82,88.51-131.45,137.26-198.88,137.26h0ZM4752.84,3931.7c75.01,168.52,148.84,465.44,225.66,907.52,30.09,172.51,45.77,242.53,132.85,242.53,140.01,0,269.57-220.25,309.31-424.32,43.52-223.42-12.2-409.48-165.61-553.03l-.04-.04c-107.85-103.13-265.54-171.26-482.02-208.23l-20.17,35.57h.02ZM4084.62,4408.49h-190.27l6.43-7.56c52.63-61.8,107.45-131.02,172.54-217.83l1.37-1.84h2.29c32.27,0,88.24-9.48,100.62-73.01,6.28-32.24-11.51-46.74-43.8-73.09l-3.99-3.26-240.94-191,8.09-2.65c119.39-39.17,129.76-87.19,154.83-203.2l1.51-7h277.27l-128.49,659.62c-20.26,104.02-51.23,120.81-117.48,120.81h.02ZM3914.18,4399.32h170.43c64.82,0,89.58-16.39,108.48-113.4l126.35-648.7h-258.74c-24.51,113.44-36.08,166.6-152.85,207.03l231.74,183.81c32.72,26.68,54.34,44.31,47.01,81.94-13.33,68.47-71.93,79.95-107.31,80.41-61.97,82.61-114.68,149.3-165.11,208.9h0ZM5027.09,3524.16h-953.61l171.68-881.38h953.61l-171.68,881.38h0ZM4084.6,3514.99h934.93l168.1-863.04h-934.93l-168.1,863.04ZM3680.24,2091.46l-9.91-155.83,12.31,1.18c82.21,7.95,159.86,15.46,242.43,15.46h690.02l19.73-101.28c32.08-164.71,65.26-335.02,87.47-500.46l.63-4.7,484.88,81.56c13.07,2.18,37.43,6.23,49.92,24.24,7.91,11.39,10.04,26.79,6.34,45.77-9.14,46.91-50.27,71.45-113.76,95.39l-70.02,359.49h334.97l256.43-433.86c21.75-37.35,43.29-70.9,67.41-70.9,18.68,0,38.1,32.5,54.83,62.95l245.65,436.08c10.95,19.9,14.86,45.2,10.47,67.73-7.67,39.41-31.23,60.24-68.11,60.24h-2098.94c-73.41,0-132.54,4.81-197.73,16.08l-5.04.88.02-.02ZM3680.16,1945.79l8.59,134.9c63.76-10.75,122.19-15.36,194.26-15.36h2098.94c32.39,0,52.28-17.77,59.11-52.82,3.99-20.48.44-43.48-9.48-61.52l-245.65-436.08c-8.77-15.96-32-58.24-46.82-58.24-20.84,0-44.11,39.95-59.5,66.38l-259.11,438.39h-351.33l73.13-375.45,2.41-.9c61.88-23.12,101.94-46.15,110.37-89.45,3.21-16.46,1.56-29.5-4.88-38.78-9.5-13.68-27.64-17.72-43.91-20.42l-475.54-79.98c-22.24,164.22-55.12,333.01-86.92,496.29l-21.17,108.7h-697.58c-83.02,0-160.88-7.53-243.32-15.5l-1.59-.15h-.01Z"/>
  </g>
  <g>
    <path class="st0" d="M2204.8,6120.71c-1.32,15.86-1.32,40.97-1.32,63.45,0,21.15,0,48.25,1.32,66.09-66.09-1.99-131.53-1.99-189.03-1.99,0,170.53.66,329.81,2.65,368.81-20.49-1.99-54.2-1.99-77.33-1.99s-54.86,0-76.67,1.99c2.65-38.33,3.3-197.62,3.3-368.81-57.5,0-122.93,0-189.03,1.99.66-17.85.66-44.94.66-66.09,0-22.48,0-46.93-.66-63.45h526.11Z"/>
    <path class="st0" d="M2590.15,6631.62c-218.11,0-326.51-101.13-326.51-267.68s117.65-258.43,326.51-258.43,328.49,89.23,328.49,258.43-109.72,267.68-328.49,267.68ZM2763.98,6366.58c0-87.9-50.89-134.17-173.16-134.17s-173.83,44.94-173.83,134.17,50.89,138.14,173.83,138.14,173.16-50.9,173.16-138.14Z"/>
    <path class="st0" d="M3620.56,6120.71c-66.09,62.79-202.25,191.67-274.29,251.15,29.08,19.17,66.75,44.95,105.09,77.99,109.72,95.84,158.63,145.41,182.42,166.56h-192.33c-27.1,0-40.32-5.95-54.86-19.17-56.84-55.52-135.49-138.13-196.96-177.13h-3.97c0,71.37.66,134.17,3.3,196.3h-155.98c1.33-77.33,2.65-142.77,2.65-247.86s-1.32-172.51-2.65-247.85h155.98c-3.3,70.72-3.3,144.75-3.3,231.33h.66c33.05-26.44,67.41-54.85,97.82-83.94,67.42-62.79,103.77-109.72,133.51-147.39h202.91Z"/>
    <path class="st0" d="M4296.06,6120.71c-73.36,91.21-209.52,273.63-255.12,350.96,0,70.72,1.32,125.58,1.98,145.41-21.15-1.33-52.88-1.33-77.99-1.33s-57.5,0-79.31,1.33c1.98-20.49,3.3-75.35,3.3-146.73-42.96-78.65-181.1-263.71-255.78-349.63h197.62c18.51,29.07,62.79,99.8,93.19,152.02,20.49,32.38,34.37,56.18,44.95,75.34h5.29c8.59-17.85,20.49-39.66,41.64-71.38,32.39-52.88,83.28-126.9,97.82-155.98h182.42,0Z"/>
    <path class="st0" d="M4669.52,6631.62c-218.11,0-326.51-101.13-326.51-267.68s117.65-258.43,326.51-258.43,328.48,89.23,328.48,258.43-109.71,267.68-328.48,267.68h0ZM4843.34,6366.58c0-87.9-50.89-134.17-173.17-134.17s-173.83,44.94-173.83,134.17,50.89,138.14,173.83,138.14,173.17-50.9,173.17-138.14Z"/>
  </g>
</svg>