<svg preserveAspectRatio="none" width="100%" height="100%" overflow="visible" style="display: block;" viewBox="0 0 76 475" fill="none" xmlns="http://www.w3.org/2000/svg">
<g id="Frame 1" clip-path="url(#clip0_201_104)">
<line id="lib-top-Line" x1="38.5" y1="2.18557e-08" x2="38.5" y2="400" stroke="var(--stroke-0, white)"/>
<g id="lib-top-icon">
<path d="M5.43241 416.006C5.37863 418.833 5.27105 427.355 5.27105 435.567C5.27105 437.91 5.27105 441.693 5.32484 444.843C5.69537 444.843 6.07187 444.789 6.4424 444.789C6.38861 445.853 6.38861 447.879 6.38861 449.69C6.38861 451.769 6.38861 454.489 6.4424 455.977H0C0 452.887 0.0537863 444.52 0.0537863 435.991C0.0537863 427.463 0.107573 419.843 0 416.006H5.43241Z" fill="var(--fill-0, white)"/>
<path d="M8.15161 455.977C8.20539 450.221 8.15161 444.52 8.15161 435.991C8.15161 427.463 8.20539 421.761 8.15161 416.006H13.2673C13.2135 421.761 13.1597 427.463 13.1597 435.991C13.1597 444.52 13.2135 450.221 13.2673 455.977H8.15161Z" fill="var(--fill-0, white)"/>
<path d="M22.9667 436.523C23.66 436.631 24.2457 436.738 24.6162 437.109C25.7875 438.173 26.1102 441.801 26.1102 445.369C26.1102 453.574 25.417 455.977 20.3551 455.977H15.4008C15.5084 450.275 15.4546 444.52 15.4546 435.991C15.4546 427.463 15.5084 421.761 15.4008 416.006H20.0922C24.0365 416.006 26.1162 417.602 26.1162 425.383C26.1162 433.165 25.7457 434.175 24.6222 435.454C24.2516 435.932 23.66 436.147 22.9727 436.308V436.523H22.9667ZM20.4627 432.955C21.2635 432.902 21.634 432.154 21.634 427.732C21.634 423.895 21.2635 423.572 20.6778 423.572H20.3551V432.949H20.4627V432.955ZM20.7256 447.873C21.4189 447.873 21.634 447.287 21.634 443.289C21.634 438.92 21.3651 438.334 20.7794 438.334H20.3551C20.3551 441.316 20.3551 444.837 20.4089 447.873H20.7316H20.7256Z" fill="var(--fill-0, white)"/>
<path d="M35.5408 440.838C37.5667 441.263 38.3138 442.595 38.5229 446.755C38.6843 449.636 38.8456 453.736 38.9472 455.977H34.5786C34.2081 455.977 34.1005 455.815 34.1005 455.23C34.1005 443.611 33.8316 443.133 32.9829 443.133H32.5586C32.6124 448.195 32.72 452.618 32.8276 455.977H28.0286C28.0824 450.221 28.0286 444.52 28.0286 435.991C28.0286 427.463 28.0824 421.761 28.0286 416.006H32.6662C37.5129 416.006 38.6903 417.339 38.6903 427.887C38.6903 437.48 37.9432 440.037 35.5467 440.623V440.838H35.5408ZM32.6662 435.567C33.8375 435.567 33.9989 435.089 33.9989 430.081C33.9989 425.497 33.7838 424.965 33.0367 424.965H32.5048V435.573H32.6662V435.567Z" fill="var(--fill-0, white)"/>
<path d="M46.0411 455.977C46.0948 454.859 46.0948 452.51 46.0948 449.421H44.4454C44.3916 452.295 44.3916 454.59 44.3916 455.977H40.0767C40.6624 445.799 41.4095 420.96 41.517 416.006H49.4595C49.567 421.122 50.3679 445.637 51.0073 455.977H46.0411ZM46.0411 439.35C45.9335 435.035 45.8259 430.559 45.6705 426.668C45.6167 425.867 45.6167 423.524 45.6167 421.606H45.3C45.2462 423.471 45.1924 425.813 45.1386 426.668C44.9235 430.613 44.7681 435.089 44.6605 439.35H46.047H46.0411Z" fill="var(--fill-0, white)"/>
<path d="M60.1091 440.838C62.1351 441.263 62.8821 442.595 63.0913 446.755C63.2527 449.636 63.414 453.736 63.5156 455.977H59.147C58.7764 455.977 58.6689 455.815 58.6689 455.23C58.6689 443.611 58.3999 443.133 57.5513 443.133H57.127C57.1808 448.195 57.2884 452.618 57.3959 455.977H52.597C52.6508 450.221 52.597 444.52 52.597 435.991C52.597 427.463 52.6508 421.761 52.597 416.006H57.2346C62.0873 416.006 63.2586 417.339 63.2586 427.887C63.2586 437.48 62.5116 440.037 60.1151 440.623V440.838H60.1091ZM57.2286 435.567C58.3999 435.567 58.5613 435.089 58.5613 430.081C58.5613 425.497 58.3462 424.965 57.5991 424.965H57.0672V435.573H57.2286V435.567Z" fill="var(--fill-0, white)"/>
<path d="M75.9881 416.006C75.6175 420.213 74.2848 435.083 73.6991 441.478C73.6991 448.727 73.7529 454.321 73.8067 455.971C72.7429 455.917 71.5656 455.917 70.3943 455.917C69.1154 455.917 68.0516 455.917 66.8743 455.971C66.9281 454.375 66.9818 449.098 66.9818 442.165C66.3962 436.248 64.9021 420.476 64.5316 416H69.97C69.9162 418.134 70.0775 425.646 70.2389 433.003C70.2927 434.443 70.2927 436.948 70.3465 438.866H70.6692C70.723 436.894 70.7768 434.39 70.8305 433.003C71.0995 425.646 71.3086 418.134 71.3086 416H76L75.9881 416.006Z" fill="var(--fill-0, white)"/>
<path d="M46.2203 474.629H28.7996V475H46.2203V474.629Z" fill="var(--fill-0, white)"/>
<path d="M46.2075 473.207L37.4985 473.982L37.5313 474.351L46.2403 473.577L46.2075 473.207Z" fill="var(--fill-0, white)"/>
<path d="M37.5548 474.355L37.4592 474.002L45.8976 471.719L45.9932 472.077L37.5548 474.355Z" fill="var(--fill-0, white)"/>
<path d="M37.5787 474.355L37.4233 474.02L45.3418 470.308L45.4972 470.643L37.5787 474.355Z" fill="var(--fill-0, white)"/>
<path d="M44.5501 469.02L37.3968 474.048L37.6099 474.351L44.7632 469.323L44.5501 469.02Z" fill="var(--fill-0, white)"/>
<path d="M37.6862 474.211H37.3157L37.3815 465.521L37.752 465.527L37.6862 474.211Z" fill="var(--fill-0, white)"/>
</g>
</g>
<defs>
<clipPath id="clip0_201_104">
<rect width="76" height="475" fill="white"/>
</clipPath>
</defs>
</svg>
