<?xml version="1.0" encoding="UTF-8"?>
<svg id="desk-next-tokyo" xmlns="http://www.w3.org/2000/svg" version="1.1" viewBox="0 0 787.7 336.47">
  <!-- Generator: Adobe Illustrator 29.6.1, SVG Export Plug-In . SVG Version: 2.1.1 Build 9)  -->
  <defs>
    <style>
      .st0 {
        fill: none;
      }

      .st1 {
        fill: #fff;
      }
    </style>
  </defs>
  <path class="st0" d="M222.96,15.46c-52.14,0-127.96,87.73-164.26,188.42-25.16,69.77-9.95,106.12,24.58,106.12,51.79,0,125.5-88.57,164.82-197.61,23.2-64.34,11.12-96.92-25.13-96.92Z"/>
  <polygon class="st0" points="661.01 204.45 707.3 204.45 737.45 88.31 661.01 204.45"/>
  <polygon class="st0" points="482.65 88.31 406.21 204.45 452.5 204.45 482.65 88.31"/>
  <path class="st1" d="M369.19,209.88c18.48-50.13,4.57-63.92-9.72-75.62l-1.52-1.25c-13.21-10.86-24.88-22.14-14.1-51.39,12.01-32.59,35.82-56.4,55.61-56.4,16.82,0,20.94,16.71,8.16,51.39-3.08,8.36-12.1,27.99-21.05,46.38h5.93l47.39-78.13c-.66-10.03-9.49-33.84-32.24-33.84-33.43,0-76.84,50.14-101.63,117.4-13.86,37.6-14.55,66.85,3.49,82.3l1.96,1.67c17.36,14.62,27.36,21.31,17.81,47.21-14.17,38.44-37.6,60.16-65.1,60.16-16.62,0-23.54-15.04-10.29-50.97,5.08-13.79,16.83-37.6,29.63-62.67h-5.94l-52.38,81.47c1.11,31.33,10.47,48.88,32.83,48.88,37.59,0,84.05-53.06,111.15-126.59Z"/>
  <path class="st1" d="M787.7,11.01h-31.26l-14.57,57.24-163.83,248.59-8.54,3.53-4.41-4.36,30.48-188.42,80.55-97.76,20.6-9.19,2.9-6.27h-38.58l-2.9,6.27,10.77,8.36-117.68,141.63,63.02-136.62,20.95-13.37,2.9-6.27h-58.36l-2.9,6.27,8.72,13.37-126.65,274.91-2.57,1.9L532.89,11.01h-31.26l-14.57,57.24-163.83,248.59-21.24,8.77-2.9,6.27h48.47l2.9-6.27-18.13-8.77,60.58-91.91h54.4l-24.18,91.91-24.2,8.77-2.9,6.27h95.75l2.9-6.27-7.1-16.71,52.37-113.64,10.16-12.53-19.95,134.11-19.06,8.77-2.9,6.27h94.17l2.9-6.27-18.13-8.77,60.58-91.91h54.4l-24.18,91.91-24.2,8.77-2.9,6.27h68.25l2.9-6.27-12.4-8.77L787.7,11.01ZM406.21,204.45l76.44-116.15-30.15,116.15h-46.29ZM661.01,204.45l76.44-116.15-30.15,116.15h-46.29Z"/>
  <path d="M238.55,0C157.75,0,49.02,95.67,11.37,200.12c-26.96,74.78-4.45,125.33,51.49,125.33,80.79,0,194.07-97.76,230.98-200.12C320.5,51.39,296.21,0,238.55,0ZM248.09,112.38c-39.31,109.04-113.03,197.61-164.82,197.61-34.53,0-49.74-36.35-24.58-106.12C95,103.19,170.83,15.46,222.96,15.46c36.25,0,48.33,32.59,25.13,96.92Z"/>
</svg>