<svg preserveAspectRatio="none" width="100%" height="100%" overflow="visible" style="display: block;" viewBox="0 0 235 28" fill="none" xmlns="http://www.w3.org/2000/svg">
<g id="dummy_acf-text">
<path d="M5.58 21.21C4.45 21.21 3.46 20.93 2.63 20.39C1.79 19.84 1.14 19.04 0.690002 17.99C0.230002 16.93 0 15.65 0 14.14C0 12.63 0.270007 11.41 0.820007 10.35C1.37001 9.28998 2.09 8.46 2.98 7.88C3.87 7.3 4.83 7.01001 5.86 7.01001C6.66 7.01001 7.34 7.14998 7.92 7.41998C8.49 7.68998 9.08001 8.08002 9.68001 8.58002L9.56 6.26001V1.04999H11.85V20.9H9.98L9.78 19.3H9.7C9.17 19.83 8.55 20.28 7.86 20.66C7.16 21.04 6.4 21.22 5.59 21.22L5.58 21.21ZM6.08 19.29C6.71 19.29 7.31 19.14 7.88 18.83C8.44 18.52 9 18.06 9.55 17.45V10.34C8.98 9.81997 8.43999 9.45999 7.89999 9.23999C7.36999 9.01999 6.82 8.91998 6.25 8.91998C5.53 8.91998 4.88001 9.14002 4.29001 9.58002C3.70001 10.02 3.23 10.63 2.87 11.4C2.51 12.17 2.33 13.08 2.33 14.11C2.33 15.19 2.48 16.12 2.78 16.9C3.08 17.68 3.51 18.28 4.06 18.68C4.62 19.09 5.29001 19.29 6.07001 19.29H6.08Z" fill="var(--fill-0, white)"/>
<path d="M20.39 21.21C18.96 21.21 17.91 20.76 17.24 19.86C16.57 18.96 16.23 17.65 16.23 15.92V7.33997H18.52V15.64C18.52 16.89 18.72 17.8 19.12 18.37C19.52 18.94 20.17 19.23 21.06 19.23C21.76 19.23 22.38 19.05 22.93 18.68C23.48 18.31 24.08 17.73 24.72 16.94V7.33997H26.99V20.88H25.09L24.92 18.76H24.85C24.22 19.49 23.55 20.08 22.84 20.53C22.13 20.98 21.31 21.2 20.38 21.2L20.39 21.21Z" fill="var(--fill-0, white)"/>
<path d="M31.56 20.89V7.34998H33.43L33.65 9.32001H33.7C34.3 8.67001 34.95 8.11999 35.66 7.67999C36.37 7.23999 37.12 7.01001 37.92 7.01001C38.97 7.01001 39.78 7.23996 40.36 7.70996C40.94 8.16996 41.37 8.80998 41.66 9.59998C42.37 8.82998 43.09 8.20998 43.82 7.72998C44.54 7.24998 45.32 7.01001 46.15 7.01001C47.53 7.01001 48.56 7.46 49.23 8.37C49.9 9.28 50.24 10.59 50.24 12.32V20.9H47.97V12.62C47.97 11.34 47.77 10.42 47.36 9.84998C46.95 9.28998 46.32 9 45.45 9C44.93 9 44.4 9.17001 43.84 9.51001C43.28 9.85001 42.68 10.37 42.03 11.07V20.89H39.76V12.61C39.76 11.33 39.56 10.41 39.15 9.83997C38.74 9.27997 38.11 8.98999 37.24 8.98999C36.72 8.98999 36.18 9.16 35.62 9.5C35.06 9.84 34.46 10.36 33.85 11.06V20.88H31.56V20.89Z" fill="var(--fill-0, white)"/>
<path d="M54.65 20.89V7.34998H56.52L56.74 9.32001H56.79C57.39 8.67001 58.04 8.11999 58.75 7.67999C59.46 7.23999 60.21 7.01001 61.01 7.01001C62.06 7.01001 62.87 7.23996 63.45 7.70996C64.03 8.16996 64.46 8.80998 64.75 9.59998C65.46 8.82998 66.18 8.20998 66.91 7.72998C67.63 7.24998 68.41 7.01001 69.24 7.01001C70.62 7.01001 71.65 7.46 72.32 8.37C72.99 9.28 73.33 10.59 73.33 12.32V20.9H71.06V12.62C71.06 11.34 70.86 10.42 70.45 9.84998C70.04 9.28998 69.41 9 68.54 9C68.02 9 67.49 9.17001 66.93 9.51001C66.37 9.85001 65.77 10.37 65.12 11.07V20.89H62.85V12.61C62.85 11.33 62.65 10.41 62.24 9.83997C61.83 9.27997 61.2 8.98999 60.33 8.98999C59.81 8.98999 59.27 9.16 58.71 9.5C58.15 9.84 57.55 10.36 56.94 11.06V20.88H54.65V20.89Z" fill="var(--fill-0, white)"/>
<path d="M77.96 26.72C77.64 26.72 77.35 26.69 77.09 26.65C76.82 26.6 76.58 26.53 76.37 26.45L76.82 24.63C76.95 24.68 77.11 24.73 77.29 24.78C77.47 24.83 77.66 24.86 77.86 24.86C78.62 24.86 79.25 24.58 79.74 24.02C80.23 23.46 80.62 22.77 80.9 21.94L81.2 20.92L75.76 7.35999H78.13L80.87 14.86C81.09 15.46 81.31 16.09 81.53 16.76C81.75 17.42 81.98 18.07 82.22 18.7H82.34C82.52 18.07 82.71 17.42 82.9 16.77C83.09 16.11 83.27 15.48 83.44 14.86L85.88 7.35999H88.1L83.01 22.05C82.69 22.93 82.31 23.72 81.86 24.43C81.41 25.14 80.87 25.7 80.24 26.11C79.61 26.52 78.84 26.73 77.95 26.73L77.96 26.72Z" fill="var(--fill-0, white)"/>
<path d="M115.93 27.85V0H117.53V27.85H115.93Z" fill="var(--fill-0, white)"/>
<path d="M151.94 21.21C150.81 21.21 149.82 20.93 148.99 20.39C148.15 19.84 147.5 19.04 147.05 17.99C146.59 16.93 146.36 15.65 146.36 14.14C146.36 12.63 146.63 11.41 147.18 10.35C147.73 9.28998 148.45 8.46 149.34 7.88C150.23 7.3 151.19 7.01001 152.22 7.01001C153.02 7.01001 153.7 7.14998 154.28 7.41998C154.85 7.68998 155.44 8.08002 156.04 8.58002L155.92 6.26001V1.04999H158.21V20.9H156.34L156.14 19.3H156.06C155.53 19.83 154.91 20.28 154.22 20.66C153.52 21.04 152.76 21.22 151.95 21.22L151.94 21.21ZM152.44 19.29C153.07 19.29 153.67 19.14 154.24 18.83C154.8 18.52 155.36 18.06 155.91 17.45V10.34C155.34 9.81997 154.8 9.45999 154.26 9.23999C153.73 9.01999 153.18 8.91998 152.61 8.91998C151.89 8.91998 151.24 9.14002 150.65 9.58002C150.06 10.02 149.59 10.63 149.23 11.4C148.87 12.17 148.69 13.08 148.69 14.11C148.69 15.19 148.84 16.12 149.14 16.9C149.44 17.68 149.87 18.28 150.42 18.68C150.98 19.09 151.65 19.29 152.43 19.29H152.44Z" fill="var(--fill-0, white)"/>
<path d="M166.75 21.21C165.32 21.21 164.27 20.76 163.6 19.86C162.93 18.96 162.59 17.65 162.59 15.92V7.33997H164.88V15.64C164.88 16.89 165.08 17.8 165.48 18.37C165.88 18.94 166.53 19.23 167.42 19.23C168.12 19.23 168.74 19.05 169.29 18.68C169.84 18.31 170.44 17.73 171.08 16.94V7.33997H173.35V20.88H171.45L171.28 18.76H171.21C170.58 19.49 169.91 20.08 169.2 20.53C168.49 20.98 167.67 21.2 166.74 21.2L166.75 21.21Z" fill="var(--fill-0, white)"/>
<path d="M177.92 20.89V7.34998H179.79L180.01 9.32001H180.06C180.66 8.67001 181.31 8.11999 182.02 7.67999C182.73 7.23999 183.48 7.01001 184.28 7.01001C185.33 7.01001 186.14 7.23996 186.72 7.70996C187.3 8.16996 187.73 8.80998 188.02 9.59998C188.73 8.82998 189.45 8.20998 190.18 7.72998C190.9 7.24998 191.68 7.01001 192.51 7.01001C193.89 7.01001 194.92 7.46 195.59 8.37C196.26 9.28 196.6 10.59 196.6 12.32V20.9H194.33V12.62C194.33 11.34 194.13 10.42 193.72 9.84998C193.31 9.28998 192.68 9 191.81 9C191.29 9 190.76 9.17001 190.2 9.51001C189.64 9.85001 189.04 10.37 188.39 11.07V20.89H186.12V12.61C186.12 11.33 185.92 10.41 185.51 9.83997C185.1 9.27997 184.47 8.98999 183.6 8.98999C183.08 8.98999 182.54 9.16 181.98 9.5C181.42 9.84 180.82 10.36 180.21 11.06V20.88H177.92V20.89Z" fill="var(--fill-0, white)"/>
<path d="M201.01 20.89V7.34998H202.88L203.1 9.32001H203.15C203.75 8.67001 204.4 8.11999 205.11 7.67999C205.82 7.23999 206.57 7.01001 207.37 7.01001C208.42 7.01001 209.23 7.23996 209.81 7.70996C210.39 8.16996 210.82 8.80998 211.11 9.59998C211.82 8.82998 212.54 8.20998 213.27 7.72998C213.99 7.24998 214.77 7.01001 215.6 7.01001C216.98 7.01001 218.01 7.46 218.68 8.37C219.35 9.28 219.69 10.59 219.69 12.32V20.9H217.42V12.62C217.42 11.34 217.22 10.42 216.81 9.84998C216.4 9.28998 215.77 9 214.9 9C214.38 9 213.85 9.17001 213.29 9.51001C212.73 9.85001 212.13 10.37 211.48 11.07V20.89H209.21V12.61C209.21 11.33 209.01 10.41 208.6 9.83997C208.19 9.27997 207.56 8.98999 206.69 8.98999C206.17 8.98999 205.63 9.16 205.07 9.5C204.51 9.84 203.91 10.36 203.3 11.06V20.88H201.01V20.89Z" fill="var(--fill-0, white)"/>
<path d="M224.32 26.72C224 26.72 223.71 26.69 223.45 26.65C223.18 26.6 222.94 26.53 222.73 26.45L223.18 24.63C223.31 24.68 223.47 24.73 223.65 24.78C223.83 24.83 224.02 24.86 224.22 24.86C224.98 24.86 225.61 24.58 226.1 24.02C226.59 23.46 226.98 22.77 227.26 21.94L227.56 20.92L222.12 7.35999H224.49L227.23 14.86C227.45 15.46 227.67 16.09 227.89 16.76C228.11 17.42 228.34 18.07 228.58 18.7H228.7C228.88 18.07 229.07 17.42 229.26 16.77C229.45 16.11 229.63 15.48 229.8 14.86L232.24 7.35999H234.46L229.37 22.05C229.05 22.93 228.67 23.72 228.22 24.43C227.77 25.14 227.23 25.7 226.6 26.11C225.97 26.52 225.2 26.73 224.31 26.73L224.32 26.72Z" fill="var(--fill-0, white)"/>
</g>
</svg>
