<svg preserveAspectRatio="none" width="100%" height="100%" overflow="visible" style="display: block;" viewBox="0 0 294 82" fill="none" xmlns="http://www.w3.org/2000/svg">
<g id="dummy_active-menu" style="mix-blend-mode:difference">
<g id="acf-text">
<path d="M0 79.59V1.37H18.8V31.19H44.52V1.37H63.21V79.59H44.52V47.46H18.8V79.59H0Z" fill="var(--fill-0, white)"/>
<path d="M109.3 81.06C102.23 81.06 96 79.43 90.61 76.18C85.22 72.92 81.02 68.24 78.01 62.11C75 55.99 73.49 48.65 73.49 40.11C73.49 31.57 74.99 24.31 78.01 18.32C81.02 12.33 85.22 7.79 90.61 4.67C96 1.56 102.23 0 109.3 0C116.37 0 122.69 1.58 128.04 4.72C133.39 7.87 137.58 12.42 140.59 18.37C143.6 24.32 145.1 31.57 145.1 40.1C145.1 48.63 143.59 55.97 140.59 62.1C137.58 68.23 133.4 72.91 128.04 76.17C122.69 79.42 116.44 81.05 109.3 81.05V81.06ZM109.3 64.89C112.73 64.89 115.69 63.88 118.17 61.85C120.65 59.82 122.58 56.95 123.94 53.24C125.3 49.53 125.99 45.16 125.99 40.12C125.99 35.08 125.31 30.76 123.94 27.15C122.57 23.55 120.65 20.8 118.17 18.91C115.68 17.02 112.73 16.08 109.3 16.08C105.87 16.08 102.91 17.03 100.43 18.91C97.94 20.8 96.04 23.55 94.71 27.15C93.38 30.76 92.71 35.08 92.71 40.12C92.71 45.16 93.37 49.54 94.71 53.24C96.04 56.95 97.95 59.82 100.43 61.85C102.91 63.88 105.87 64.89 109.3 64.89Z" fill="var(--fill-0, white)"/>
<path d="M155.4 79.59V1.37H175.67L188.06 35.18C188.83 37.42 189.56 39.75 190.27 42.16C190.97 44.58 191.67 46.97 192.37 49.35H192.89C193.66 46.97 194.39 44.57 195.1 42.16C195.8 39.74 196.5 37.42 197.2 35.18L209.17 1.37H229.54V79.59H212.42V52.81C212.42 50.22 212.56 47.32 212.84 44.1C213.12 40.88 213.45 37.64 213.84 34.39C214.22 31.14 214.59 28.25 214.94 25.73H214.42L207.91 44.42L197.41 72.98H187.12L176.51 44.42L170.21 25.73H169.79C170.14 28.25 170.49 31.14 170.84 34.39C171.19 37.64 171.5 40.88 171.79 44.1C172.07 47.32 172.21 50.23 172.21 52.81V79.59H155.4Z" fill="var(--fill-0, white)"/>
<path d="M243.28 79.59V1.37H292.84V17.01H262.08V31.5H288.23V47.25H262.08V63.84H294V79.59H243.28Z" fill="var(--fill-0, white)"/>
</g>
</g>
</svg>
