<svg preserveAspectRatio="none" width="100%" height="100%" overflow="visible" style="display: block;" viewBox="0 0 93 18" fill="none" xmlns="http://www.w3.org/2000/svg">
<g id="dummy_acf-text">
<path d="M0.00999451 17.6V0.0100098H4.39999C6.20999 0.0100098 7.72999 0.350029 8.95999 1.03003C10.19 1.71003 11.12 2.69999 11.74 3.98999C12.36 5.28999 12.68 6.86999 12.68 8.73999C12.68 10.61 12.37 12.19 11.74 13.52C11.11 14.85 10.2 15.86 8.98 16.56C7.76 17.26 6.26999 17.6 4.48999 17.6H0H0.00999451ZM2.22 15.78H4.20999C5.58999 15.78 6.72999 15.5 7.64999 14.95C8.56999 14.4 9.25999 13.59 9.70999 12.54C10.17 11.48 10.39 10.22 10.39 8.75C10.39 7.28 10.16 5.98002 9.70999 4.96002C9.24999 3.94002 8.56999 3.16 7.64999 2.62C6.72999 2.08 5.57999 1.82001 4.20999 1.82001H2.22V15.79V15.78Z" fill="var(--fill-0, white)"/>
<path d="M25.16 17.91C24.26 17.91 23.43 17.78 22.66 17.53C21.89 17.28 21.22 16.85 20.66 16.26C20.09 15.67 19.65 14.88 19.33 13.91C19.01 12.93 18.85 11.75 18.85 10.36V0.0200195H21.06V10.41C21.06 11.82 21.24 12.93 21.61 13.73C21.98 14.53 22.47 15.11 23.09 15.46C23.71 15.8 24.4 15.98 25.17 15.98C25.94 15.98 26.66 15.81 27.28 15.46C27.9 15.12 28.4 14.54 28.78 13.73C29.16 12.92 29.34 11.81 29.34 10.41V0.0200195H31.48V10.36C31.48 11.75 31.32 12.94 31.01 13.91C30.7 14.89 30.25 15.67 29.68 16.26C29.1 16.85 28.43 17.28 27.66 17.53C26.89 17.78 26.06 17.91 25.16 17.91Z" fill="var(--fill-0, white)"/>
<path d="M38.63 17.6V0.0100098H41.29L44.65 9.42004C44.87 10.01 45.09 10.62 45.3 11.24C45.51 11.86 45.72 12.48 45.92 13.09H46.02C46.24 12.48 46.46 11.87 46.66 11.24C46.86 10.62 47.06 10.01 47.25 9.42004L50.61 0.0100098H53.27V17.6H51.21V7.86005C51.21 7.35005 51.23 6.79 51.26 6.19C51.29 5.59 51.33 4.98 51.38 4.37C51.43 3.75 51.47 3.18999 51.5 2.67999H51.4L49.98 6.69L46.67 15.83H45.18L41.84 6.69L40.42 2.67999H40.32C40.38 3.18999 40.44 3.76 40.48 4.37C40.52 4.99 40.55 5.59 40.58 6.19C40.6 6.79 40.62 7.35005 40.62 7.86005V17.6H38.63Z" fill="var(--fill-0, white)"/>
<path d="M60.52 17.6V0.0100098H63.18L66.54 9.42004C66.76 10.01 66.98 10.62 67.19 11.24C67.4 11.86 67.61 12.48 67.81 13.09H67.91C68.13 12.48 68.35 11.87 68.55 11.24C68.75 10.62 68.95 10.01 69.14 9.42004L72.5 0.0100098H75.16V17.6H73.1V7.86005C73.1 7.35005 73.12 6.79 73.15 6.19C73.18 5.59 73.22 4.98 73.27 4.37C73.32 3.75 73.36 3.18999 73.39 2.67999H73.29L71.87 6.69L68.56 15.83H67.07L63.73 6.69L62.31 2.67999H62.21C62.27 3.18999 62.33 3.76 62.37 4.37C62.41 4.99 62.44 5.59 62.47 6.19C62.49 6.79 62.51 7.35005 62.51 7.86005V17.6H60.52Z" fill="var(--fill-0, white)"/>
<path d="M85.24 17.6V10.78L79.96 0H82.31L84.59 4.97003C84.88 5.63003 85.16 6.27001 85.43 6.89001C85.7 7.51001 86 8.16002 86.32 8.83002H86.42C86.74 8.16002 87.04 7.51001 87.33 6.89001C87.62 6.27001 87.91 5.63003 88.19 4.97003L90.45 0H92.75L87.45 10.78V17.6H85.24Z" fill="var(--fill-0, white)"/>
</g>
</svg>
