<svg preserveAspectRatio="none" width="100%" height="100%" overflow="visible" style="display: block;" viewBox="0 0 107 22" fill="none" xmlns="http://www.w3.org/2000/svg">
<g id="nav-sjlogo">
<path d="M7.25999 0C6.52999 0 5.84 0.11 5.19 0.32C4.54 0.53 3.97999 0.84 3.50999 1.25C3.03999 1.65 2.66 2.16 2.39 2.76C2.12 3.36 1.98 4.05 1.98 4.83C1.98 5.36 2.05 5.84 2.2 6.27C2.34 6.7 2.55 7.09 2.81 7.44C3.07 7.79 3.37001 8.12 3.71001 8.43C4.05001 8.74 4.42001 9.06 4.82001 9.38C5.15001 9.65 5.46999 9.92 5.75999 10.18C6.04999 10.44 6.3 10.7 6.53 10.97C6.75 11.24 6.93 11.51 7.06 11.78C7.19 12.05 7.25 12.34 7.25 12.65C7.25 13.02 7.17 13.34 7.02 13.61C6.87 13.88 6.67001 14.12 6.43001 14.32C6.19001 14.52 5.91001 14.67 5.60001 14.77C5.29001 14.87 4.96 14.92 4.63 14.92C3.72 14.92 2.98 14.66 2.41 14.13C1.85 13.6 1.53 12.91 1.47 12.04H0.990005C0.910005 12.44 0.789995 12.89 0.619995 13.39C0.449995 13.89 0.25 14.37 0 14.83C0.78 15.32 1.54001 15.66 2.29001 15.86C3.04001 16.06 3.87 16.16 4.78 16.16C5.51 16.16 6.21 16.06 6.88 15.86C7.55 15.66 8.14001 15.36 8.65001 14.95C9.16001 14.54 9.56 14.03 9.86 13.42C10.16 12.81 10.31 12.1 10.31 11.29C10.31 10.79 10.24 10.33 10.09 9.93C9.94 9.53 9.75 9.15 9.52 8.81C9.28 8.47 9.01 8.15 8.69 7.85C8.37 7.55 8.03001 7.26 7.68001 6.97C7.24001 6.6 6.84999 6.27 6.50999 5.98C6.16999 5.68 5.90001 5.4 5.68001 5.13C5.46001 4.86 5.29001 4.6 5.18001 4.33C5.07001 4.06 5.00999 3.79 5.00999 3.5C5.00999 3.24 5.06 2.99 5.16 2.73C5.26 2.48 5.41 2.26 5.61 2.07C5.81 1.88 6.06001 1.72 6.35001 1.6C6.65001 1.48 6.99 1.42 7.37 1.42C8.24 1.42 8.89 1.66 9.34 2.14C9.78 2.62 10.04 3.23 10.12 3.96H10.62C10.73 3.55 10.84 3.13 10.96 2.71C11.08 2.29 11.29 1.8 11.6 1.24C10.91 0.800002 10.23 0.489999 9.54001 0.299999C8.85001 0.119999 8.1 0.0299988 7.28 0.0299988L7.25999 0Z" fill="var(--fill-0, white)"/>
<path d="M24.74 1.11C24.79 0.870001 24.87 0.599999 24.99 0.279999C24.72 0.299999 24.4 0.309998 24.03 0.329998C23.66 0.349998 23.28 0.360001 22.88 0.380001C22.48 0.400001 22.06 0.400002 21.63 0.400002H18.96C17.95 0.400002 16.99 0.389999 16.07 0.369999C15.15 0.349999 14.23 0.320001 13.32 0.290001C13.29 0.660001 13.24 0.959999 13.18 1.19C13.12 1.43 13.03 1.72 12.91 2.07C13.49 2.02 14.01 1.99 14.49 1.97C14.96 1.95 15.47 1.94 16.02 1.94H17.21C17.04 2.95 16.86 3.93 16.67 4.9C16.48 5.87 16.28 6.84 16.06 7.81C15.77 9.2 15.45 10.56 15.1 11.91C14.75 13.26 14.4 14.59 14.05 15.9C14.31 15.87 14.59 15.85 14.91 15.85H16.82C17.14 15.85 17.47 15.87 17.8 15.9C18 14.59 18.23 13.29 18.51 12.01C18.78 10.73 19.07 9.43 19.36 8.1C19.65 6.81 19.92 5.67 20.17 4.69C20.42 3.72 20.66 2.79 20.89 1.92C21.42 1.92 21.99 1.93 22.6 1.95C23.21 1.97 23.88 2.02 24.61 2.1C24.66 1.67 24.7 1.34 24.75 1.11H24.74Z" fill="var(--fill-0, white)"/>
<path d="M32.75 6.84C32.49 6.86 32.2 6.86 31.88 6.86H28.98C29.1 6.25 29.27 5.49 29.47 4.57C29.68 3.66 29.91 2.74 30.17 1.83C30.98 1.83 31.64 1.83 32.17 1.84C32.7 1.84 33.15 1.86 33.53 1.89C33.91 1.91 34.24 1.94 34.51 1.96C34.78 1.98 35.07 2.01 35.38 2.04C35.35 1.72 35.36 1.45 35.4 1.22C35.45 0.990001 35.57 0.679999 35.77 0.279999C35.25 0.309999 34.65 0.340001 33.95 0.360001C33.26 0.380001 32.51 0.389999 31.72 0.389999C30.93 0.389999 30.05 0.390001 29.17 0.380001C28.29 0.380001 27.51 0.339999 26.83 0.279999C26.77 0.769999 26.67 1.43 26.52 2.27C26.37 3.11 26.21 4.03 26.02 5.02C25.83 6.02 25.62 7.06 25.4 8.15C25.18 9.24 24.95 10.28 24.73 11.28C24.5 12.28 24.28 13.18 24.08 14C23.87 14.82 23.69 15.44 23.54 15.89C24.15 15.86 24.8 15.84 25.49 15.84H29.97C30.75 15.84 31.6 15.86 32.52 15.89C32.49 15.71 32.49 15.5 32.53 15.27C32.57 15.04 32.69 14.7 32.88 14.24C32.56 14.27 32.27 14.3 32.01 14.32C31.75 14.34 31.49 14.36 31.23 14.37C30.97 14.37 30.7 14.39 30.41 14.39C30.12 14.39 29.79 14.4 29.4 14.4H27.57C27.69 13.38 27.85 12.36 28.04 11.35C28.23 10.34 28.43 9.33 28.65 8.32C29.47 8.32 30.35 8.33 31.28 8.35C32.21 8.37 33.07 8.43 33.86 8.52C33.84 8.28 33.85 8.03 33.87 7.79C33.89 7.55 34.01 7.2 34.22 6.74C33.98 6.76 33.73 6.77 33.49 6.79C33.25 6.81 32.99 6.82 32.74 6.84H32.75Z" fill="var(--fill-0, white)"/>
<path d="M46.79 6.41C47.1 5.78 47.26 5.03 47.26 4.16C47.26 2.77 46.86 1.78 46.07 1.18C45.28 0.58 44.22 0.279999 42.89 0.279999C42.31 0.279999 41.75 0.3 41.22 0.34C40.69 0.38 40.18 0.400002 39.69 0.400002C39.34 0.400002 39.02 0.389999 38.74 0.369999C38.46 0.349999 38.2 0.320001 37.95 0.290001C37.86 0.930001 37.75 1.56 37.63 2.19C37.51 2.82 37.39 3.45 37.26 4.09C36.86 6.12 36.43 8.11 35.97 10.08C35.51 12.05 35.01 13.99 34.5 15.91C34.76 15.88 35.03 15.86 35.31 15.86H37.21C37.51 15.86 37.81 15.88 38.11 15.91C38.31 14.78 38.53 13.64 38.77 12.47C39.01 11.3 39.27 10.17 39.55 9.08C39.78 9.11 40.05 9.14 40.36 9.16C40.67 9.18 41.01 9.19 41.38 9.19C42.19 9.19 42.95 9.09 43.65 8.89C44.36 8.69 44.98 8.39 45.51 7.99C46.04 7.59 46.47 7.07 46.78 6.44L46.79 6.41ZM43.66 5.39C43.53 5.89 43.33 6.32 43.07 6.7C42.8 7.08 42.46 7.39 42.04 7.61C41.62 7.84 41.12 7.95 40.54 7.95C40.37 7.95 40.23 7.95 40.12 7.94C40.01 7.94 39.89 7.92 39.77 7.91C39.98 6.84 40.2 5.78 40.42 4.73C40.64 3.68 40.88 2.63 41.14 1.58C41.54 1.57 41.9 1.58 42.24 1.61C42.57 1.65 42.86 1.75 43.1 1.91C43.34 2.07 43.52 2.3 43.66 2.61C43.8 2.92 43.87 3.33 43.87 3.84C43.87 4.35 43.81 4.89 43.68 5.38L43.66 5.39Z" fill="var(--fill-0, white)"/>
<path d="M53.26 3.96C53.29 3.82 53.35 3.58 53.43 3.24C53.51 2.9 53.6 2.53 53.7 2.14C53.8 1.75 53.89 1.38 53.99 1.02C54.08 0.66 54.14 0.409999 54.17 0.279999C53.88 0.309999 53.59 0.340001 53.3 0.360001C53.01 0.380001 52.71 0.389999 52.39 0.389999C52.07 0.389999 51.75 0.380001 51.46 0.360001C51.18 0.340001 50.86 0.309999 50.51 0.279999C50.43 0.769999 50.32 1.42 50.18 2.22C50.03 3.03 49.87 3.91 49.69 4.87C49.51 5.83 49.31 6.82 49.11 7.84C48.9 8.86 48.71 9.83 48.52 10.74C48.33 11.65 48.15 12.48 47.99 13.21C47.83 13.94 47.71 14.49 47.64 14.86C47.49 15.48 47.35 16.01 47.22 16.44C47.09 16.87 46.92 17.22 46.72 17.51C46.51 17.8 46.26 18.01 45.95 18.15C45.65 18.29 45.23 18.37 44.69 18.4L44.83 19.45C45.65 19.45 46.39 19.39 47.04 19.26C47.69 19.13 48.32 18.88 48.93 18.49C49.37 18.22 49.74 17.86 50.04 17.43C50.34 17 50.59 16.5 50.79 15.93C51 15.37 51.17 14.71 51.32 13.95C51.46 13.2 51.61 12.36 51.77 11.45C51.88 10.84 51.98 10.28 52.07 9.76C52.16 9.24 52.26 8.7 52.37 8.14C52.48 7.58 52.6 6.96 52.75 6.3C52.89 5.64 53.07 4.86 53.29 3.96H53.26Z" fill="var(--fill-0, white)"/>
<path d="M66.27 15.84C66.61 15.84 66.9 15.86 67.13 15.89C66.87 15.01 66.6 14.02 66.32 12.92C66.04 11.82 65.77 10.7 65.51 9.56C65.25 8.42 65 7.31 64.77 6.22C64.53 5.14 64.33 4.16 64.15 3.28C63.97 2.4 63.83 1.68 63.72 1.11C63.61 0.540001 63.54 0.2 63.53 0.0900002C63.3 0.17 63.01 0.200001 62.66 0.200001C62.36 0.200001 62.07 0.16 61.79 0.0900002C61.62 0.43 61.47 0.730002 61.33 0.990002C61.19 1.26 61.04 1.53 60.88 1.82C60.72 2.11 60.54 2.43 60.33 2.79C60.12 3.15 59.88 3.57 59.6 4.07C59.32 4.57 58.98 5.16 58.58 5.84C58.18 6.53 57.71 7.35 57.16 8.31C56.41 9.61 55.66 10.89 54.9 12.15C54.14 13.41 53.38 14.66 52.64 15.88C52.78 15.85 52.94 15.83 53.12 15.83H53.71C54.14 15.83 54.46 15.85 54.69 15.88C55.27 14.75 55.76 13.81 56.16 13.06C56.56 12.31 56.92 11.68 57.22 11.17C57.6 11.15 57.97 11.14 58.32 11.14C58.67 11.14 59.14 11.13 59.74 11.13C60.34 11.13 60.86 11.13 61.31 11.14C61.76 11.14 62.2 11.16 62.65 11.17C62.67 11.23 62.69 11.35 62.72 11.54C62.75 11.72 62.78 11.92 62.81 12.12C62.84 12.33 62.87 12.52 62.91 12.7C62.95 12.88 62.97 13.01 62.99 13.09C63.08 13.7 63.15 14.24 63.21 14.71C63.26 15.18 63.31 15.57 63.36 15.88C63.57 15.85 63.83 15.83 64.14 15.83H66.28L66.27 15.84ZM61.38 9.84C61.02 9.84 60.67 9.85 60.32 9.85C59.92 9.85 59.53 9.85 59.14 9.84C58.75 9.84 58.37 9.82 57.99 9.81C58.49 8.9 59.02 8 59.57 7.11C60.12 6.23 60.67 5.34 61.22 4.46C61.36 4.96 61.48 5.43 61.59 5.85C61.7 6.28 61.79 6.7 61.88 7.12C61.96 7.54 62.05 7.97 62.13 8.4C62.21 8.83 62.3 9.3 62.39 9.81C62.09 9.83 61.75 9.84 61.4 9.84H61.38Z" fill="var(--fill-0, white)"/>
<path d="M87.02 4.93C87.23 3.92 87.42 3 87.6 2.18C87.78 1.36 87.94 0.729999 88.06 0.279999C87.86 0.309999 87.66 0.340001 87.45 0.360001C87.24 0.380001 87.03 0.389999 86.8 0.389999C86.45 0.389999 86.08 0.349999 85.7 0.279999C85.4 0.709999 84.99 1.26 84.49 1.94C83.99 2.62 83.44 3.34 82.86 4.11C82.27 4.88 81.68 5.66 81.08 6.46C80.48 7.26 79.92 7.99 79.41 8.65C78.9 9.31 78.47 9.87 78.12 10.32C77.77 10.77 77.56 11.04 77.48 11.13C77.37 10.84 77.19 10.31 76.94 9.54C76.69 8.77 76.41 7.88 76.09 6.87C75.78 5.86 75.45 4.77 75.12 3.61C74.78 2.45 74.48 1.34 74.21 0.27C73.78 0.35 73.39 0.380001 73.04 0.380001C72.69 0.380001 72.32 0.34 71.94 0.27C71.8 0.85 71.64 1.56 71.44 2.4C71.24 3.24 71.02 4.14 70.79 5.11C70.55 6.08 70.31 7.08 70.05 8.1C69.79 9.13 69.54 10.13 69.28 11.09C69.03 12.06 68.78 12.96 68.55 13.8C68.31 14.64 68.1 15.33 67.92 15.88C68.16 15.85 68.45 15.83 68.79 15.83H69.24C69.37 15.83 69.52 15.85 69.69 15.88C69.8 15.33 69.93 14.71 70.09 14.02C70.25 13.33 70.42 12.62 70.59 11.91C70.76 11.19 70.95 10.49 71.14 9.78C71.33 9.08 71.51 8.44 71.67 7.85C71.83 7.26 71.97 6.76 72.08 6.33C72.19 5.9 72.27 5.61 72.32 5.44C72.4 5.68 72.51 6.05 72.65 6.53C72.79 7.01 72.96 7.56 73.14 8.18C73.32 8.8 73.51 9.47 73.71 10.19C73.91 10.91 74.11 11.63 74.3 12.35C74.5 13.07 74.68 13.76 74.85 14.43C75.02 15.1 75.15 15.69 75.26 16.19C75.32 16.17 75.38 16.16 75.43 16.16C75.48 16.16 75.55 16.15 75.62 16.15C75.69 16.15 75.76 16.15 75.81 16.16C75.86 16.16 75.92 16.18 75.98 16.19C76.54 15.31 77.1 14.43 77.66 13.57C78.22 12.71 78.81 11.84 79.45 10.98C80.1 10.07 80.77 9.18 81.44 8.32C82.11 7.46 82.8 6.59 83.5 5.73C83.38 6.58 83.24 7.47 83.08 8.39C82.92 9.31 82.75 10.22 82.58 11.12C82.4 12.02 82.23 12.88 82.04 13.71C81.86 14.54 81.68 15.27 81.51 15.89C81.77 15.86 82.04 15.84 82.33 15.84H84.2C84.47 15.84 84.74 15.86 85 15.89C85.06 15.48 85.16 14.86 85.3 14.04C85.44 13.22 85.6 12.3 85.79 11.29C85.98 10.28 86.18 9.22 86.38 8.11C86.59 7.01 86.79 5.95 87 4.93H87.02Z" fill="var(--fill-0, white)"/>
<path d="M94.54 2.55H99.84L97.64 4.42L99.09 6.18L106.03 0.279999H91.2L90.94 1.75L94.99 6.67L91.92 9.28L92.57 5.62L90.66 3.31L88.58 15.11L98.17 6.96L94.54 2.55Z" fill="var(--fill-0, white)"/>
<path d="M104.01 3.32L103.36 6.87L106.05 4.6L106.67 1.06L104.01 3.32Z" fill="var(--fill-0, white)"/>
<path d="M102.13 13.62H95.41L99.97 9.74L100.6 6.22L89.22 15.89H104.05L105.77 6.14L103.08 8.42L102.13 13.62Z" fill="var(--fill-0, white)"/>
<path d="M67.21 17.32C66.8 17.32 66.59 17.53 66.45 17.77C66.36 17.46 66.13 17.32 65.82 17.32C65.51 17.32 65.25 17.47 65.12 17.75C65.12 17.61 65.12 17.51 65.09 17.39H64.43C64.43 17.58 64.43 17.78 64.43 18.55V21.4H65.12V18.64C65.12 18.22 65.19 17.95 65.51 17.95C65.74 17.95 65.85 18.07 65.85 18.46V21.4H66.55V18.63C66.55 18.22 66.62 17.95 66.95 17.95C67.21 17.95 67.28 18.14 67.28 18.44V21.4H67.97V18.31C67.97 17.53 67.61 17.33 67.19 17.33L67.21 17.32Z" fill="var(--fill-0, white)"/>
<path d="M70.68 18.38C70.68 17.76 70.43 17.33 69.69 17.33C68.87 17.33 68.65 17.83 68.65 18.4V18.47H69.33V18.39C69.33 18.11 69.4 17.9 69.67 17.9C69.94 17.9 69.99 18.1 69.99 18.44V19.01H69.86C69.14 19.01 68.52 19.3 68.52 20.25V20.32C68.52 20.93 68.76 21.47 69.35 21.47C69.65 21.47 69.88 21.37 70.01 21.1C70.01 21.16 70.04 21.32 70.06 21.41H70.7C70.69 21.27 70.68 20.91 70.68 20.64V18.38ZM70 20.05C70 20.62 69.88 20.85 69.57 20.85C69.29 20.85 69.19 20.61 69.19 20.29V20.23C69.19 19.7 69.44 19.53 69.85 19.53H70.01V20.05H70Z" fill="var(--fill-0, white)"/>
<path d="M72.87 17.39C72.66 17.89 72.27 18.74 72.08 19.18H72.07V15.95H71.38V21.39H72.07V20.13L72.38 19.54L72.93 21.4H73.69L72.86 18.87L73.61 17.39H72.87Z" fill="var(--fill-0, white)"/>
<path d="M74.93 17.32C74.01 17.32 73.82 18.08 73.82 18.65V20.04C73.82 20.85 73.99 21.45 74.93 21.45C75.87 21.45 75.99 20.67 75.99 20.23V20.21H75.31V20.24C75.31 20.57 75.26 20.87 74.91 20.87C74.56 20.87 74.49 20.53 74.49 20.18V19.56H76V18.65C76 17.89 75.74 17.32 74.92 17.32H74.93ZM75.34 19.01H74.5V18.56C74.5 18.15 74.61 17.91 74.92 17.91C75.26 17.91 75.33 18.18 75.33 18.56V19.01H75.34Z" fill="var(--fill-0, white)"/>
<path d="M78.37 16.41H77.68V17.38H77.24V17.99H77.68V20.63C77.68 21.29 77.97 21.45 78.42 21.45C78.56 21.45 78.76 21.44 78.88 21.38V20.85C78.88 20.85 78.72 20.87 78.65 20.87C78.4 20.87 78.37 20.7 78.37 20.5V17.99H78.9V17.38H78.37V16.41Z" fill="var(--fill-0, white)"/>
<path d="M80.72 17.32C80.32 17.32 80.1 17.5 79.98 17.73V15.95H79.29V21.39H79.98V18.72C79.98 18.21 80.07 17.95 80.44 17.95C80.77 17.95 80.82 18.22 80.82 18.54V21.4H81.51V18.36C81.51 17.78 81.32 17.33 80.72 17.33V17.32Z" fill="var(--fill-0, white)"/>
<path d="M83.21 17.32C82.29 17.32 82.1 18.08 82.1 18.65V20.04C82.1 20.85 82.27 21.45 83.21 21.45C84.15 21.45 84.27 20.67 84.27 20.23V20.21H83.59V20.24C83.59 20.57 83.54 20.87 83.19 20.87C82.84 20.87 82.77 20.53 82.77 20.18V19.56H84.28V18.65C84.28 17.89 84.02 17.32 83.2 17.32H83.21ZM83.62 19.01H82.78V18.56C82.78 18.15 82.89 17.91 83.2 17.91C83.54 17.91 83.61 18.18 83.61 18.56V19.01H83.62Z" fill="var(--fill-0, white)"/>
<path d="M88.65 17.32C88.24 17.32 88.03 17.53 87.89 17.77C87.8 17.46 87.57 17.32 87.26 17.32C86.95 17.32 86.69 17.47 86.56 17.75C86.56 17.61 86.56 17.51 86.53 17.39H85.87C85.87 17.58 85.87 17.78 85.87 18.55V21.4H86.56V18.64C86.56 18.22 86.63 17.95 86.95 17.95C87.18 17.95 87.29 18.07 87.29 18.46V21.4H87.99V18.63C87.99 18.22 88.06 17.95 88.39 17.95C88.65 17.95 88.72 18.14 88.72 18.44V21.4H89.41V18.31C89.41 17.53 89.05 17.33 88.63 17.33L88.65 17.32Z" fill="var(--fill-0, white)"/>
<path d="M91.14 17.32C90.46 17.32 90.01 17.72 90.01 18.55V20.19C90.01 21.04 90.4 21.46 91.12 21.46C91.84 21.46 92.25 21.04 92.25 20.18V18.58C92.25 17.77 91.85 17.33 91.15 17.33L91.14 17.32ZM91.55 20.2C91.55 20.63 91.42 20.84 91.13 20.84C90.82 20.84 90.7 20.58 90.7 20.21V18.54C90.7 18.15 90.83 17.94 91.12 17.94C91.44 17.94 91.54 18.19 91.54 18.54V20.21L91.55 20.2Z" fill="var(--fill-0, white)"/>
<path d="M95.6 17.32C95.19 17.32 94.98 17.53 94.84 17.77C94.75 17.46 94.52 17.32 94.21 17.32C93.9 17.32 93.64 17.47 93.51 17.75C93.51 17.61 93.51 17.51 93.48 17.39H92.82C92.82 17.58 92.82 17.78 92.82 18.55V21.4H93.51V18.64C93.51 18.22 93.58 17.95 93.9 17.95C94.13 17.95 94.24 18.07 94.24 18.46V21.4H94.94V18.63C94.94 18.22 95.01 17.95 95.34 17.95C95.6 17.95 95.67 18.14 95.67 18.44V21.4H96.36V18.31C96.36 17.53 96 17.33 95.58 17.33L95.6 17.32Z" fill="var(--fill-0, white)"/>
<path d="M98.06 17.32C97.14 17.32 96.95 18.08 96.95 18.65V20.04C96.95 20.85 97.12 21.45 98.06 21.45C99 21.45 99.12 20.67 99.12 20.23V20.21H98.44V20.24C98.44 20.57 98.39 20.87 98.04 20.87C97.69 20.87 97.62 20.53 97.62 20.18V19.56H99.13V18.65C99.13 17.89 98.87 17.32 98.05 17.32H98.06ZM98.47 19.01H97.63V18.56C97.63 18.15 97.74 17.91 98.05 17.91C98.39 17.91 98.46 18.18 98.46 18.56V19.01H98.47Z" fill="var(--fill-0, white)"/>
<path d="M101.12 17.32C100.72 17.32 100.5 17.5 100.38 17.76C100.38 17.62 100.37 17.47 100.35 17.38H99.69C99.69 17.57 99.69 17.8 99.69 18.61V21.39H100.38V18.74C100.38 18.1 100.53 17.94 100.84 17.94C101.09 17.94 101.22 18.1 101.22 18.47V21.39H101.91V18.34C101.91 17.59 101.57 17.32 101.1 17.32H101.12Z" fill="var(--fill-0, white)"/>
<path d="M103.39 16.41H102.7V17.38H102.26V17.99H102.7V20.63C102.7 21.29 102.99 21.45 103.44 21.45C103.58 21.45 103.78 21.44 103.9 21.38V20.85C103.9 20.85 103.74 20.87 103.67 20.87C103.42 20.87 103.39 20.7 103.39 20.5V17.99H103.92V17.38H103.39V16.41Z" fill="var(--fill-0, white)"/>
</g>
</svg>
