<svg preserveAspectRatio="none" width="100%" height="100%" overflow="visible" style="display: block;" viewBox="0 0 1181 200" fill="none" xmlns="http://www.w3.org/2000/svg">
<g id="desk-hero-make">
<path d="M82.97 49.68C70.57 49.68 64.34 57.41 60.34 65.86C57.52 54.62 50.92 49.68 41.39 49.68C31.86 49.68 24.5 55.3 20.57 65.12C20.41 60.2 20.41 56.3 19.78 51.94H0C0.23 58.72 0.230011 66.16 0.230011 93.99V197.39H20.95V97.38C20.95 82.33 23.09 72.39 32.68 72.39C39.47 72.39 42.74 76.6 42.74 90.91V197.39H63.63V97.09C63.63 82.15 65.86 72.39 75.5 72.39C83.37 72.39 85.42 79.3 85.42 89.99V197.39H106.15V85.21C106.15 56.95 95.42 49.68 82.96 49.68H82.97Z" fill="var(--fill-0, white)"/>
<path d="M186.76 87.93C186.76 65.33 179.35 49.68 157.19 49.68C132.59 49.68 125.97 67.71 125.97 88.43V91.07H146.38V88.04C146.38 77.98 148.43 70.44 156.48 70.44C164.53 70.44 166.12 77.7 166.12 89.87V110.39H162.3C140.8 110.39 122.25 120.85 122.25 155.39V157.94C122.25 180.11 129.35 199.66 147.07 199.66C155.92 199.66 162.8 195.94 166.78 186.22C166.94 188.46 167.66 194.32 168.19 197.39H187.24C186.85 192.41 186.77 179.14 186.77 169.64V87.93H186.76ZM166.52 148.51C166.52 169.07 162.87 177.53 153.55 177.53C145.25 177.53 142.07 168.83 142.07 157.37V155.02C142.07 135.63 149.65 129.79 161.72 129.79H166.52V148.51Z" fill="var(--fill-0, white)"/>
<path d="M252.36 51.94C245.97 69.95 234.31 100.84 228.82 116.99H228.43V0H207.87V197.39H228.43V151.52L237.59 130L254.04 197.39H276.67L251.9 105.52L274.21 51.94H252.36Z" fill="var(--fill-0, white)"/>
<path d="M313.96 49.68C286.5 49.68 280.81 77.21 280.81 98.05V148.59C280.81 178.05 285.8 199.66 313.91 199.66C342.02 199.66 345.72 171.47 345.72 155.51V154.68H325.48V155.6C325.48 167.58 323.89 178.3 313.57 178.3C303.25 178.3 301.05 165.92 301.05 153.26V130.82H346.12V97.94C346.12 70.55 338.47 49.67 313.96 49.67V49.68ZM326.19 110.83H301.21V94.58C301.21 79.75 304.6 71.05 313.89 71.05C323.96 71.05 326.19 80.99 326.19 94.49V110.83Z" fill="var(--fill-0, white)"/>
<path d="M416.57 16.67H395.92V51.94H382.74V74.09H395.92V169.75C395.92 193.63 404.44 199.49 417.95 199.49C422.25 199.49 427.98 199.01 431.82 196.9V177.76C430.36 178.32 427.04 178.61 424.87 178.61C417.49 178.61 416.58 172.38 416.58 165.23V74.1H432.44V51.95H416.58V16.68L416.57 16.67Z" fill="var(--fill-0, white)"/>
<path d="M487.05 49.68C475.21 49.68 468.38 56.04 464.91 64.45V0.00997925H444.19V197.4H464.91V100.4C464.91 81.77 467.7 72.4 478.54 72.4C488.44 72.4 490.02 82.32 490.02 93.66V197.4H510.75V87.1C510.75 66.24 505.2 49.69 487.04 49.69L487.05 49.68Z" fill="var(--fill-0, white)"/>
<path d="M561.49 49.68C534.03 49.68 528.34 77.21 528.34 98.05V148.59C528.34 178.05 533.33 199.66 561.44 199.66C589.55 199.66 593.25 171.47 593.25 155.51V154.68H573.01V155.6C573.01 167.58 571.42 178.3 561.1 178.3C550.78 178.3 548.58 165.92 548.58 153.26V130.82H593.65V97.94C593.65 70.55 586 49.67 561.49 49.67V49.68ZM573.72 110.83H548.74V94.58C548.74 79.75 552.13 71.05 561.42 71.05C571.49 71.05 573.72 80.99 573.72 94.49V110.83Z" fill="var(--fill-0, white)"/>
<path d="M724.06 49.68C711.66 49.68 705.43 57.41 701.43 65.86C698.61 54.62 692.01 49.68 682.48 49.68C672.95 49.68 665.59 55.3 661.66 65.12C661.5 60.2 661.5 56.3 660.87 51.94H641.09C641.32 58.72 641.32 66.16 641.32 93.99V197.39H662.04V97.38C662.04 82.33 664.18 72.39 673.77 72.39C680.56 72.39 683.83 76.6 683.83 90.91V197.39H704.72V97.09C704.72 82.15 706.95 72.39 716.59 72.39C724.46 72.39 726.51 79.3 726.51 89.99V197.39H747.24V85.21C747.24 56.95 736.51 49.68 724.05 49.68H724.06Z" fill="var(--fill-0, white)"/>
<path d="M798.52 49.68C778.27 49.68 764.66 64.27 764.66 94.22V153.63C764.66 184.4 776.18 199.65 797.81 199.65C819.44 199.65 831.51 184.52 831.51 153.19V95.1C831.51 65.74 819.55 49.67 798.51 49.67L798.52 49.68ZM810.71 154.11C810.71 169.88 806.78 177.31 798.21 177.31C789.04 177.31 785.46 168.05 785.46 154.5V93.92C785.46 79.74 789.31 72.02 798.13 72.02C807.61 72.02 810.71 81.15 810.71 93.72V154.11Z" fill="var(--fill-0, white)"/>
<path d="M931.69 49.68C919.29 49.68 913.06 57.41 909.06 65.86C906.24 54.62 899.64 49.68 890.11 49.68C880.58 49.68 873.22 55.3 869.29 65.12C869.13 60.2 869.13 56.3 868.5 51.94H848.72C848.95 58.72 848.95 66.16 848.95 93.99V197.39H869.67V97.38C869.67 82.33 871.81 72.39 881.4 72.39C888.19 72.39 891.46 76.6 891.46 90.91V197.39H912.35V97.09C912.35 82.15 914.58 72.39 924.22 72.39C932.09 72.39 934.14 79.3 934.14 89.99V197.39H954.87V85.21C954.87 56.95 944.14 49.68 931.68 49.68H931.69Z" fill="var(--fill-0, white)"/>
<path d="M1005.45 49.68C977.99 49.68 972.3 77.21 972.3 98.05V148.59C972.3 178.05 977.29 199.66 1005.4 199.66C1033.51 199.66 1037.21 171.47 1037.21 155.51V154.68H1016.97V155.6C1016.97 167.58 1015.38 178.3 1005.06 178.3C994.74 178.3 992.54 165.92 992.54 153.26V130.82H1037.61V97.94C1037.61 70.55 1029.96 49.67 1005.45 49.67V49.68ZM1017.68 110.83H992.7V94.58C992.7 79.75 996.09 71.05 1005.38 71.05C1015.45 71.05 1017.68 80.99 1017.68 94.49V110.83Z" fill="var(--fill-0, white)"/>
<path d="M1096.63 49.68C1084.82 49.68 1078.08 56.34 1074.58 65.76C1074.58 60.68 1074.19 55.26 1073.79 51.95H1054.01C1054.24 58.81 1054.24 67.17 1054.24 96.56V197.4H1074.96V101.29C1074.96 78.12 1079.58 72.4 1088.76 72.4C1096.26 72.4 1100.07 78.11 1100.07 91.66V197.4H1120.8V86.85C1120.8 59.7 1110.54 49.69 1096.61 49.69L1096.63 49.68Z" fill="var(--fill-0, white)"/>
<path d="M1164.51 16.67H1143.86V51.94H1130.68V74.09H1143.86V169.75C1143.86 193.63 1152.38 199.49 1165.89 199.49C1170.19 199.49 1175.92 199.01 1179.76 196.9V177.76C1178.3 178.32 1174.98 178.61 1172.81 178.61C1165.43 178.61 1164.52 172.38 1164.52 165.23V74.1H1180.38V51.95H1164.52V16.68L1164.51 16.67Z" fill="var(--fill-0, white)"/>
</g>
</svg>
