<svg preserveAspectRatio="none" width="100%" height="100%" overflow="visible" style="display: block;" viewBox="0 0 774 238" fill="none" xmlns="http://www.w3.org/2000/svg">
<g id="day1-&#227;&#131;&#153;&#227;&#130;&#175;&#227;&#130;&#191;&#227;&#131;&#188;_DL&#227;&#129;&#151;&#227;&#129;&#166;&#233;&#133;&#141;&#231;&#189;&#174;">
<path d="M0 234.866L1.41682 231.807C23.4093 228.747 26.6236 225.688 33.0205 211.925L119.796 22.941C124.765 12.2376 124.057 8.26131 105.416 5.51056L106.833 2.45116H206.74C261.616 2.45116 285.649 32.7275 269.651 92.0546C248.536 170.346 175.062 234.866 100.214 234.866H0ZM94.3986 228.747C162.988 228.747 233.744 165.444 253.21 93.2711C267.642 39.7541 246.538 8.56089 195.543 8.56089H149.02C141.566 8.56089 138.193 12.2286 133.213 22.9319L46.4486 211.934C40.0517 225.697 41.9126 228.757 60.9975 228.757H94.3986V228.747Z" fill="var(--fill-0, white)"/>
<path d="M165.504 234.866L166.921 231.807C182.844 230.282 189.548 227.522 199.074 216.519L385.419 0H394.068L386.444 216.21C386.074 227.522 390.103 230.282 404.007 231.807L402.59 234.866H344.436L345.853 231.807C358.658 229.664 366.725 231.807 369.538 221.412C369.538 221.412 370.447 218.044 370.341 216.21L373.925 129.966H282.667L208.379 217.427C206.148 220.177 204.752 222.011 204.266 223.845C202.447 230.572 214.374 230.572 225.085 231.798L223.668 234.857H165.515L165.504 234.866ZM290.502 120.797H374.296L378.705 17.1218L290.502 120.797Z" fill="var(--fill-0, white)"/>
<path d="M379.614 234.866L381.031 231.807C403.034 228.747 406.079 226.305 412.634 211.925L441.552 148.931L431.899 21.0981C431.074 9.78647 428.241 7.02665 414.929 5.50149L416.346 2.44208H474.499L473.082 5.50149C457.814 7.94357 447.537 7.33531 448.594 21.0981L458.131 136.085L570.896 19.8725C582.844 7.64398 567.502 7.02665 552.71 5.50149L554.127 2.44208H612.28L610.863 5.50149C594.94 7.02665 588.966 10.3947 578.71 20.7894L455.774 147.088L426.062 211.916C419.496 226.287 420.628 228.738 439.195 231.798L437.778 234.857H379.624L379.614 234.866Z" fill="var(--fill-0, white)"/>
<path d="M774 2.76035L770.174 8.2027L770.059 8.3637L769.858 8.42578L737.802 18.2024L597.211 219.968L614.046 232.272L613.761 232.674L610.339 237.533H508.708L512.64 231.953L512.821 231.888L546.757 219.651L672.312 39.3046L590.04 82.1762L589.899 82.2499H587.629L591.455 76.8075L591.509 76.7297L591.591 76.6729L695.42 2.8782L695.586 2.76035H774ZM592.421 77.4599L589.949 80.9756L675.908 36.1825L547.681 220.37L547.576 220.519L547.394 220.584L513.453 232.821L510.894 236.456H609.671L612.456 232.502L595.626 220.202L736.89 17.4711L737.003 17.308L769.263 7.46716L771.816 3.83788H696.009L592.421 77.4599Z" fill="var(--fill-0, white)"/>
</g>
</svg>
