<svg preserveAspectRatio="none" width="100%" height="100%" overflow="visible" style="display: block;" viewBox="0 0 774 238" fill="none" xmlns="http://www.w3.org/2000/svg">
<g id="day2-&#227;&#131;&#153;&#227;&#130;&#175;&#227;&#130;&#191;&#227;&#131;&#188;_DL&#227;&#129;&#151;&#227;&#129;&#166;&#233;&#133;&#141;&#231;&#189;&#174;">
<path d="M269.631 93.0688C285.638 34.0198 261.596 3.8854 206.722 3.8854H106.818L105.402 6.93046C124.042 9.66831 124.761 13.626 119.781 24.2792L33.0193 212.387C26.6227 226.085 23.4085 229.13 1.41677 232.175L0 235.22H100.2C175.046 235.22 248.517 170.994 269.631 93.0778V93.0688ZM94.3952 229.13H60.9953C41.9111 229.13 40.0503 226.085 46.4469 212.387L133.208 24.2792C138.188 13.626 141.561 9.97553 149.015 9.97553H195.536C246.529 9.97553 267.633 41.0226 253.201 94.2886C233.736 166.123 162.982 229.13 94.3952 229.13Z" fill="var(--fill-0, black)"/>
<path d="M455.757 147.853L578.689 22.1468C588.944 11.8008 594.929 8.44848 610.841 6.93046L612.258 3.8854H554.106L552.69 6.93046C567.481 8.44848 582.823 9.06291 570.875 21.2341L458.115 136.902L448.578 22.454C447.521 8.7557 457.787 9.3611 473.065 6.93046L474.482 3.8854H416.331L414.914 6.93046C428.214 8.44848 431.059 11.1954 431.883 22.454L441.536 149.687L412.619 212.387C407.555 223.428 404.573 227.395 393.366 230.034C387.942 227.946 386.177 224.242 386.42 216.642L394.053 1.44573H385.405L199.067 216.95C189.541 227.91 182.827 230.648 166.915 232.166L165.488 235.211H223.639L225.056 232.166C214.356 230.946 202.419 230.946 204.237 224.251C204.734 222.425 206.119 220.6 208.35 217.862L282.636 130.811H373.891L370.307 216.652C370.412 218.477 369.503 221.829 369.503 221.829C366.701 232.175 358.623 230.052 345.82 232.175L344.403 235.22H437.73L439.147 232.175C420.591 229.13 419.46 226.699 426.015 212.387L455.736 147.862L455.757 147.853ZM374.293 121.676H290.502L378.701 18.4873L374.293 121.676Z" fill="var(--fill-0, black)"/>
<path d="M769.414 12.5959C762.869 4.23779 749.801 0 730.569 0C680.654 0 637.664 30.2067 610.386 55.5431L610.238 55.6877L585.54 119.065H594.738L621.276 81.1777C653.471 35.2577 690.952 14.7013 713.811 14.7013C719.732 14.7013 723.866 16.1651 726.128 19.0384C729.829 23.7642 728.697 32.6554 722.861 44.7543C707.361 76.8586 674.257 113.707 629.65 148.522C585.001 183.373 533.923 212.179 485.826 229.654L485.509 229.772L480.043 237.533H647.159L693.912 188.153H684.566L634.418 218.847H546.959C592.391 196.176 621.53 179.822 653.481 159.084C712.764 120.547 751.249 83.5541 767.86 49.1367C775.493 33.3331 776.011 21.0444 769.403 12.605L769.414 12.5959ZM765.914 48.441C749.441 82.5511 711.189 119.3 652.213 157.639C619.542 178.837 589.822 195.454 542.519 218.965L539.125 220.645H635.095L685.243 189.951H689.482L646.144 235.717H483.786L486.968 231.199C535.181 213.634 586.343 184.755 631.077 149.85C675.917 114.863 709.201 77.7802 724.817 45.4411C731.023 32.5741 732.06 23.3576 727.894 18.0264C725.219 14.6109 720.482 12.8851 713.821 12.8851C690.36 12.8851 652.086 33.7126 619.468 80.238L593.544 117.249H588.479L612.099 56.6184C639.102 31.5801 681.521 1.80716 730.569 1.80716C748.786 1.80716 761.611 5.88231 767.659 13.6079C773.854 21.5143 773.262 33.2337 765.925 48.441H765.914Z" fill="var(--fill-0, black)"/>
</g>
</svg>
