<?xml version="1.0" encoding="UTF-8"?>
<svg id="lib-top" xmlns="http://www.w3.org/2000/svg" version="1.1" viewBox="0 0 6636 8192">
  <!-- Generator: Adobe Illustrator 29.6.1, SVG Export Plug-In . SVG Version: 2.1.1 Build 9)  -->
  <defs>
    <style>
      .st0 {
        fill: #fff;
      }
    </style>
  </defs>
  <g id="lib-osaka">
    <g id="Vector">
      <path class="st0" d="M2687.4,5209.19l-4.97-4.56c-197.85-184.98-319.73-457.05-372.57-831.94-42.08-298.5-39.35-665.72,8.26-1121.17-113.39,343.68-218.17,613.48-376.82,879.02-409.72,688.5-918.5,944.93-1273.26,1038.71l-5.61,1.52-1.55-52.55,1.67-1.44c424.43-372.38,760.54-837.79,999.02-1383.53,144.09-331.91,240.53-678.78,326.82-1006.06h-626.26c-50.91,0-137.23,8.35-195.95,16.17l-4.85.61-9.82-156.43,5.61.84c74.26,11.09,152.66,16.17,246.6,16.17h613.75c53.98-220.36,104.14-452.34,153.49-709,32.45-168.88,63.35-350.29,94.2-554.63l.76-4.71,500.71,89.91c12.59,2.35,36.01,6.83,47.96,24.38,7.24,10.71,9.29,24.75,6.07,41.84-11.49,59.99-62.47,77.98-107.51,93.93l-5.16,1.82c-81.88,410.43-148.23,724.42-215.06,1016.54h375.91l264.42-451.35c29.15-48.6,51.1-71.07,69.3-71.07,13.42,0,32.91,23.69,51.94,63.33l235.83,449.46c11.75,21.72,21.87,46.55,15.43,79.88-10.01,52.32-43.63,52.32-65.89,52.32h-969.8c0,509.22,63.12,853.81,210.74,1151.7,114.45,231.52,281.44,408.45,525.5,557.06l2.77,1.67-10.39,53.99-2.01.99c-252.74,124.61-403.58,444.98-506.7,710.29l-2.5,6.38-.08-.08ZM2336.7,3165.03l-4.78,44.04c-52.01,474.82-56.26,855.02-12.96,1162.25,52.01,369.5,171.39,638.53,364.76,821.92,195.5-500.26,373.22-641.57,506.7-707.86l8.26-43.21c-244.17-149.06-411.47-326.82-526.26-559.11-148.72-300.09-212.03-647.04-211.65-1160.28v-4.56h978.97c22.63,0,48.26,0,56.9-44.88,5.91-30.6-3.49-53.61-14.52-73.88l-235.91-449.61c-20.43-42.52-37.68-58.32-43.75-58.32-9.74,0-28.32,11.54-61.41,66.59l-267,455.76h-392.7l1.29-5.62c67.29-294.25,134.2-610.29,216.8-1024.51l.53-2.58,10.01-3.57c42.65-15.11,90.98-32.2,101.56-87.02,2.77-14.5,1.29-26.27-4.59-34.85-9.74-14.35-29.95-18.22-42-20.43l-491.42-88.31c-30.71,202.59-61.41,382.63-93.56,550.3-49.62,258.25-100.16,491.45-154.4,712.95l-.83,3.49h-620.99c-92.08,0-169.3-4.86-242.35-15.41l8.45,135.24c58.84-7.67,142.27-15.64,192.28-15.64h638.2l-1.55,5.77c-86.77,329.25-183.63,678.7-328.75,1013.12-238.79,546.2-575.16,1012.28-999.74,1385.27l1.1,36.6c352.75-94.54,856.11-350.74,1262.04-1033.17,164.53-275.34,271.05-555.54,389.59-918.43l13.76-42.14h-.11l.04.08Z"/>
      <path class="st0" d="M4097.58,5224.15l-11.49-48.67,1.67-1.82c271.58-296.75,482.13-602.16,682.86-990.03-26.95-314.29-5.69-619.4,21.99-883.04-220.29,878.49-527.17,1449.13-1019.61,1899.73l-3.87,3.57-23.81-34.93,1.21-2.35c177.64-361.3,311.73-763.6,419.92-1115.63-43.56,77.38-95.95,145.11-153.3,197.73-92.2,83.07-148.53,102.44-239.97,114.59l-6.33.84,16.83-87.25c39.88-207.68,48.98-357.12,27.56-455.68l-80.14,416.88c-22.9,119.07-45.57,240.41-67.55,357.73-22.14,118.61-45.11,241.24-68.58,363.2-19.75,102.74-40.6,168.12-164.22,210.03-54.78,20.73-116.34,32.65-168.81,32.65s-78.93-8.35-95.04-27.87c-19.86-24.07-21.68-64.39-6.41-143.67,24.91-129.54,51.56-261.37,77.18-388.79,25.74-127.42,52.31-259.16,77.22-388.71l383.07-1992.52c56.64-294.63,115.24-599.35,164.6-894.89l1.21-7.14,391.41,274.73h77.94l145.76-209.96c27.29-39.56,42.31-61.36,70.06-61.36,20.66,0,46.48,38.73,69.22,74.95l70.78,114.66c4.51-32.35,10.77-65,16.91-96.74l1.36-7.29,5.88,4.33,393.2,294.78h380.19l224.88-362.36c17.93-27.49,42.19-58.85,71.88-58.85s54.51,42.52,59.21,51.03l196.94,368.59c11.75,21.72,15.05,43.21,10.31,67.89-10.84,56.34-52.01,56.34-74.15,56.34h-893.79l-153.95,800.81h366.43l175.07-245.19c41.66-61.05,58-78.9,85.49-78.9,30.63,0,55.54,35.99,71.61,63.03l190.99,295.46c15.35,25.82,38.4,64.62,28.51,116.79-11.75,60.98-67.1,101.98-152.66,148.07-129.69,431.08-263.96,764.96-435.08,1081.69,97.88,116.71,208.08,209.58,346.6,292.27l2.96,1.75-12.97,53.38-1.1.99c-71.61,61.05-254.11,262.43-403.01,811.74l-2.2,8.2-5.61-6.23c-153.38-170.85-246.15-334.49-329.39-581.35-236.29,260.91-461.09,437.76-750.11,590.47l-5.23,2.73-.3-.15-.23-.23ZM4096.14,5178.13l7.62,32.35c287.66-152.63,511.55-329.86,747.65-591.61l5.23-5.92,2.5,7.44c82.34,246.71,173.7,409.97,324.31,579.38,31.69-115.95,84.27-284.68,157.89-445.13,76.27-166.37,158.54-288.1,244.67-362.06l10.65-43.89c-137.19-82.24-251.07-178.67-348.04-294.93l-2.01-2.35,1.48-2.81c171.77-317.48,306.31-651.9,436.45-1084.5l.53-1.82,1.67-.91c84.2-45.26,138.6-84.82,149.63-142.61,9.36-48.67-12.7-85.73-27.22-110.18l-190.99-295.46c-23.5-39.56-44.35-58.7-63.76-58.7-22.06,0-35.94,13.36-77.94,74.95l-177.83,249.07h-382.32l157.51-819.18h901.33c22.18,0,55.69,0,65.09-48.9,4.44-22.7,1.48-41.76-9.36-61.73l-196.94-368.59c-12.4-23.01-33.09-46.17-51.1-46.17-19.67,0-39.43,16.86-64.07,54.6l-227.57,366.54h-388.38l-389.78-292.2c-6.44,33.56-12.85,67.96-17.1,101.83l-1.59,12.98-84.35-136.68c-13.23-21.19-44.13-70.7-61.37-70.7-22.9,0-36.13,19.21-62.4,57.41l-6.52,9.49-142.01,204.42h-85.64l-1.18-.84-380.69-267.14c-49.17,293.49-107.25,595.63-163.39,887.9l-383.07,1992.52c-24.91,129.54-51.56,261.37-77.22,388.79-25.74,127.49-52.28,259.16-77.22,388.71-14.41,75.25-13.15,114.66,4.51,136.15,14.18,17.16,40.53,24.45,87.95,24.45,50.72,0,112.67-12,165.78-32.12,114.98-39.03,137.38-94.46,158.27-203.12,23.43-121.87,46.4-244.43,68.58-363.04,21.99-117.32,44.66-238.74,67.55-357.8l87.76-456.37,5.23,18.68c27.94,99.25,20.7,256.28-22.33,480.06l-14.33,74.64c85.83-11.92,140.53-31.97,228.67-111.4,66.83-61.2,126.92-143.44,173.89-237.52l8.53,3.42c-110.35,362.36-248.23,783.42-433.34,1160.58l14.9,21.79c501.09-460.01,809.06-1046.07,1029.35-1958.35l8.98,1.59c-30.97,278.53-58.65,609.3-29.23,950.85v1.29l-.45,1.21c-200.81,388.48-411.66,694.35-683.24,991.48l-.19.3v-.15ZM5023.67,3639.47l-3.94-12.3c-82.34-253.32-110.66-543.92-82-840.14l.38-4.18h344.63l-1.29,5.62c-76.54,325.91-154.59,584.62-253.08,839l-4.7,12.07v-.08ZM4946.45,2792.04c-27.48,288.78-.45,571.79,78.02,819.94,95.61-248.46,171.96-502.31,246.68-819.94h-324.69,0ZM3836.62,3639.09l1.18-6.15,362.75-1886.9h116.23l-1.36,5.7c-85.94,352.49-176.73,690.17-269.76,1003.78,17.55,190.98,7.47,412.17-27.03,591.68-30.25,157.11-62.32,278.3-175.82,291.28l-6.26.76h0l.08-.15ZM4208.16,1755.23l-360.18,1873.23c93.22-14.35,127.83-107.45,161.57-283.01,34.46-179.05,44.51-399.57,26.84-590.01v-.91l.19-.84c92.54-312.02,182.87-647.87,268.44-998.46h-96.97.11,0ZM4299.9,3586.32l-9.02-1.67c49.81-406.02-65.24-684.93-170.48-847.43l-1.86-2.81,2.01-2.58c186.67-234.87,321.96-446.5,499.42-780.91l14.33-27.03-180.22,937.26c-41.74,216.79-92.65,472.39-154.33,725.17h.15ZM4129.88,2735.02c99.63,154.75,207.06,412.7,177.11,782.58,54.51-230.54,100.27-460.54,138.22-658.28l168.62-877.2c-170.1,318.39-303.01,524.94-483.95,752.82h0v.08Z"/>
      <path class="st0" d="M1958.21,6616.41c-218.66,0-327.27-101.45-327.27-268.43s117.9-259.16,327.27-259.16,329.2,89.45,329.2,259.16-109.94,268.43-329.2,268.43ZM2132.48,6350.64c0-88.24-51.03-134.56-173.62-134.56s-174.27,45.03-174.27,134.56,51.03,138.58,174.27,138.58,173.62-51.03,173.62-138.58h0Z"/>
      <path class="st0" d="M2531.25,6442.75c0,39.79,31.16,54.98,141.78,54.98s136.47-14.58,136.47-39.11c0-25.82-15.88-43.81-160.28-54.37-208.69-16.55-265.71-66.29-265.71-158.48s80.78-153.77,278.94-153.77c212.67,0,284.17,46.4,284.17,143.82,0,9.26-.64,18.6-1.29,29.16-15.88-1.29-43.1-2.05-70.85-2.05s-55.61.61-72.26,2.05v-13.29c0-31.13-20.51-47.08-143.11-47.08-105.31,0-126.54,13.21-126.54,35.77,0,21.26,12.59,37.82,166.99,51.03,191.44,17.92,257.06,60.98,257.06,161.13s-76.2,160.37-282.23,160.37c-216.61,0-294.82-50.42-294.82-144.5,0-10.56,0-22.48,2.01-33.87,17.89,2.05,46.4,3.95,73.51,3.95,28.51,0,54.97-.61,76.2-2.05v6h-.08l.04.3Z"/>
      <path class="st0" d="M3526.97,6601.07c-3.94-15.95-16.53-51.03-33.82-94.16-50.38-.61-100.73-.61-139.81-.61-35.1,0-86.77,0-135.83.61-16.53,41.16-30.52,75.63-37.15,94.16h-171.58c67.55-127.27,201.98-419.01,233.14-497.14h231.89c33.09,78.14,166.91,367.22,237.84,497.14h-184.81.11,0ZM3452.18,6402.96c-19.86-47.76-40.45-95.45-59.02-135.92-16.53-34.47-27.86-63.03-36.39-84.14-9.29,21.26-21.23,48.98-37.15,85.5-17.29,40.47-37.76,88.24-57.62,134.56,33.09.61,66.91.61,92.08.61,26.46,0,62.32,0,98.07-.61h.04Z"/>
      <path class="st0" d="M4382.96,6103.93c-66.27,63.03-202.74,192.19-274.88,251.87,29.15,19.21,66.91,45.03,105.31,78.29,110.01,96.13,158.99,145.87,182.87,167.13h-192.81c-27.22,0-40.45-6-54.97-19.21-56.98-55.66-135.83-138.5-197.43-177.69h-3.94c0,71.53.64,134.56,3.3,196.9h-156.34c1.29-77.53,2.65-143.21,2.65-248.61s-1.29-172.98-2.65-248.53h156.34c-3.3,70.92-3.3,145.19-3.3,232.06h.64c33.09-26.5,67.55-54.98,98.07-84.14,67.55-63.03,104.02-110.11,133.82-147.77h203.38l-.08-.23v-.08Z"/>
      <path class="st0" d="M4916.2,6601.07c-3.94-15.95-16.53-51.03-33.82-94.16-50.34-.61-100.72-.61-139.77-.61-35.1,0-86.77,0-135.83.61-16.53,41.16-30.52,75.63-37.15,94.16h-171.58c67.55-127.27,202.09-419.01,233.18-497.14h231.89c33.09,78.14,166.99,367.22,237.84,497.14h-184.81.08-.04ZM4841.4,6402.96c-19.86-47.76-40.45-95.45-59.02-135.92-16.53-34.47-27.83-63.03-36.39-84.14-9.29,21.26-21.23,48.98-37.15,85.5-17.17,40.47-37.76,88.24-57.62,134.56,33.09.61,66.87.61,92.08.61,26.46,0,62.32,0,98.07-.61h.04Z"/>
    </g>
  </g>
</svg>