<?xml version="1.0" encoding="UTF-8"?>
<svg id="desk-next-tokyo" xmlns="http://www.w3.org/2000/svg" version="1.1" viewBox="0 0 961.15 326.47">
  <!-- Generator: Adobe Illustrator 29.6.1, SVG Export Plug-In . SVG Version: 2.1.1 Build 9)  -->
  <defs>
    <style>
      .st0 {
        fill: none;
      }

      .st1 {
        fill: #fff;
      }
    </style>
  </defs>
  <path class="st0" d="M611.25,15.46c-52.14,0-127.96,87.73-164.26,188.42-25.16,69.77-9.95,106.12,24.58,106.12,51.79,0,125.5-88.57,164.82-197.61,23.2-64.34,11.12-96.92-25.13-96.92Z"/>
  <path class="st0" d="M297.34,16.47c-26.71,0-83.97,91.5-121.54,193.44-24.48,66.43-23.81,101.11-5.22,101.11,26.51,0,81.44-91.08,122.56-202.63,22.48-61,23.19-91.91,4.2-91.91Z"/>
  <polygon class="st1" points="180.82 23.99 210.49 23.99 204.54 69.11 209.49 69.11 232.37 4.35 118.61 4.35 81.89 69.11 86.83 69.11 122.46 23.99 152.13 23.99 25.48 298.9 2.9 315.61 0 321.88 58.36 321.88 61.26 315.61 54.17 298.9 180.82 23.99"/>
  <path class="st1" d="M308.97,1.01c-46.29,0-124.44,96.09-162.94,200.54-27.41,74.37-22.7,124.92,9.55,124.92,46.29,0,126.68-97.35,164.41-199.7,27.26-73.95,22.02-125.76-11.02-125.76ZM293.13,108.38c-41.12,111.55-96.05,202.63-122.56,202.63-18.6,0-19.27-34.68,5.22-101.11,37.57-101.94,94.84-193.44,121.54-193.44,18.99,0,18.28,30.92-4.2,91.91Z"/>
  <path class="st1" d="M399.66,200.12c14.99-41.58,41.25-81.76,72.52-115.07l28.13-61.05,20.95-13.37,2.9-6.27h-58.36l-2.9,6.27,8.72,13.37-55.43,120.32h-61.33l55.43-120.32,20.95-13.37,2.9-6.27h-58.36l-2.9,6.27,8.72,13.37-126.65,274.91-22.58,16.71-2.9,6.27h58.36l2.9-6.27-7.1-16.71,61.54-133.69h61.33l-61.54,133.69-22.58,16.71-2.9,6.27h58.36l2.9-6.27-7.1-16.71,14.98-32.53c-1.52-18.67,1.94-41.09,11.01-66.26Z"/>
  <path d="M626.84,0c-48.63,0-107.38,34.67-154.66,85.04-31.27,33.32-57.53,73.5-72.52,115.07-9.07,25.17-12.54,47.58-11.01,66.26,3,36.82,25.39,59.08,62.5,59.08,50.97,0,114.85-38.91,164.35-93.33l77.28-167.74c-2.08-39.73-26-64.38-65.93-64.38ZM636.38,112.38c-39.31,109.04-113.03,197.61-164.82,197.61-34.53,0-49.74-36.35-24.58-106.12,36.3-100.68,112.13-188.42,164.26-188.42,36.25,0,48.33,32.59,25.13,96.92Z"/>
  <path class="st1" d="M922.58,4.36l-2.9,6.27,8.72,13.37-82.02,177.98c-36.89,80.22-62.72,107.37-92.4,107.37-25.12,0-2.67-55.57,34.73-136.62l68.47-148.73,20.95-13.37,2.9-6.27h-94.17l-2.9,6.27,10.77,8.36-117.68,141.63,63.02-136.62,20.95-13.37,2.9-6.27h-58.36l-2.9,6.27,8.72,13.37-18.61,40.39-77.28,167.74-30.76,66.78-22.58,16.71-2.9,6.27h58.36l2.9-6.27-7.1-16.71,52.37-113.64,10.16-12.53-19.95,134.11-19.06,8.77-2.9,6.27h63.7l2.9-6.27-9.71-9.61,30.48-188.42,80.55-97.76,18.45-8.23,8.1,12.41-82.02,177.98c-30.77,66.85-48.06,124.5-1.77,124.5,41.35,0,75.94-49.3,110.58-124.5l82.02-177.98,20.95-13.37,2.9-6.27h-38.58Z"/>
</svg>