<?xml version="1.0" encoding="UTF-8"?>
<svg id="_レイヤー_3" data-name="レイヤー 3" xmlns="http://www.w3.org/2000/svg" viewBox="0 0 471.24 372.18">
  <defs>
    <style>
      .cls-1 {
        fill: #fff;
      }
    </style>
  </defs>
  <path class="cls-1" d="M92.31,69.3c.18-.64.68-1.12,1.5-1.44s1.71-.48,2.68-.48c6.3,0,11.36.27,15.17.8,3.81.54,7.49.8,11.05.8,5.98,0,11.37-.21,16.19-.64,4.81-.43,8.67-.64,11.58-.64s4.12.86,3.64,2.57c-.42,1.5-2.18,2.57-5.27,3.21-2.55.43-4.6,1.12-6.17,2.09-1.57.96-2.87,2.3-3.92,4.01-1.05,1.71-1.95,3.75-2.69,6.1-.75,2.36-1.65,5.13-2.72,8.34-1.07,3.21-2.46,7.7-4.17,13.48-1.71,5.78-3.47,11.87-5.28,18.29s-3.58,12.67-5.3,18.77c-1.72,6.1-3.16,11.18-4.3,15.24-6.76,23.96-11.88,42.35-15.34,55.19-3.46,12.83-5.96,22.25-7.49,28.23-1.59,6.21-2.07,10.48-1.44,12.83.63,2.36,2.41,4.07,5.34,5.13,2.67.86,3.79,2.04,3.37,3.53-.3,1.07-.98,1.76-2.04,2.09-1.06.32-2.32.48-3.77.48-2.27,0-4.23-.05-5.9-.16-1.67-.11-3.3-.22-4.88-.32-1.59-.11-3.3-.22-5.12-.32-1.83-.11-4.2-.16-7.11-.16-4.53,0-8.36.11-11.49.32-3.13.21-5.82.43-8.06.64-2.24.21-4.16.43-5.76.64-1.6.21-3.04.32-4.33.32-3.24,0-4.64-.75-4.22-2.25.24-.85.64-1.55,1.2-2.09.55-.53,2.17-1.23,4.83-2.09,2.28-.64,4.25-1.44,5.89-2.41,1.64-.96,3.2-2.46,4.66-4.49,1.46-2.03,2.85-4.65,4.16-7.86,1.31-3.21,2.66-7.27,4.05-12.19.85-2.99,2.18-7.59,4.02-13.8,1.83-6.2,3.8-13.04,5.92-20.53,2.11-7.48,4.3-15.24,6.57-23.26s4.38-15.51,6.34-22.46c1.96-6.95,3.65-12.94,5.07-17.97,1.42-5.02,2.34-8.29,2.76-9.79,1.15-4.06,2.28-8.23,3.41-12.51,1.12-4.28,2.18-8.29,3.16-12.03.97-3.74,1.81-7,2.52-9.79.7-2.78,1.15-4.81,1.36-6.1.9-4.92.66-8.23-.71-9.95-1.38-1.71-3.69-3.1-6.95-4.17-.85-.43-1.43-.96-1.73-1.6-.3-.64-.4-1.17-.27-1.6Z"/>
  <path class="cls-1" d="M210.72,146.31c4.69,0,8.32,1.02,10.9,3.05,2.58,2.04,4.57,4.55,6,7.54,1.88,3.64,2.54,8.88,1.99,15.72-.56,6.85-2.17,14.97-4.82,24.38-1.23,4.92-2.24,8.93-3.03,12.03-.8,3.1-1.59,6.05-2.37,8.82-.79,2.78-1.58,5.72-2.37,8.82-.8,3.1-1.86,7.01-3.19,11.71-1.39,4.92-2.37,8.82-2.94,11.71-.57,2.89-.82,5.19-.74,6.9.08,1.71.54,2.94,1.38,3.69.84.75,2.01,1.34,3.5,1.77.58.21,1.1.54,1.55.96.44.43.55,1.07.31,1.92-.36,1.28-1.68,1.92-3.94,1.92-3.24,0-6.66-.16-10.29-.48-3.63-.32-6.57-.48-8.84-.48-8.09,0-13.76.21-17.03.64-3.27.43-5.15.64-5.64.64-2.75,0-3.91-.75-3.49-2.25.18-.64.61-1.17,1.3-1.6.69-.43,1.49-.85,2.42-1.28,3.98-1.49,6.65-2.94,8.01-4.33,1.36-1.39,2.53-3.79,3.49-7.22l13.77-48.77c1.69-5.99,3.01-10.96,3.97-14.92.95-3.96,1.57-7.27,1.84-9.95.27-2.67.2-4.86-.2-6.58-.41-1.71-1.12-3.31-2.16-4.81-1.3-1.71-2.9-2.78-4.79-3.21-1.9-.43-3.5-.64-4.79-.64-2.27,0-4.54.48-6.83,1.44-2.29.96-4,1.98-5.1,3.05-.45.43-1.03,1.07-1.76,1.93-.73.86-1.27,1.93-1.63,3.21-1.03,3.64-2.44,8.77-4.23,15.4-1.79,6.63-3.77,13.8-5.95,21.5-1.39,4.92-2.7,9.68-3.91,14.28-1.22,4.6-2.33,8.82-3.34,12.67-1.01,3.85-1.85,7.11-2.52,9.79-.68,2.68-1.13,4.44-1.37,5.29-.71,3.64-.85,6.15-.43,7.54.41,1.39,1.6,2.62,3.57,3.69,2.28,1.07,3.25,2.25,2.88,3.53-.3,1.07-1.01,1.71-2.12,1.92-1.11.21-2.07.32-2.88.32-.65,0-1.92-.06-3.83-.16-1.91-.11-4.01-.27-6.29-.48-2.28-.22-4.54-.38-6.77-.48-2.23-.11-4-.16-5.29-.16-1.78,0-4.27.11-7.49.32-3.21.21-6.92.32-11.12.32-3.24,0-4.61-.85-4.12-2.57.24-.85.88-1.55,1.92-2.09,1.04-.53,2.07-.91,3.11-1.12,3.79-.85,6.26-2.14,7.39-3.85,1.13-1.71,2.32-4.49,3.57-8.34,2.68-8.34,5.94-19.04,9.79-32.08,3.84-13.04,7.94-27.27,12.29-42.67.48-1.71.58-3.21.3-4.49-.29-1.28-1.23-3.1-2.82-5.45-.99-1.07-1.43-1.81-1.31-2.25.12-.43.24-.85.36-1.28.36-1.28,1.73-2.14,4.12-2.57,2.61-.64,5.54-1.6,8.82-2.89,3.27-1.28,6.48-2.62,9.62-4.01,3.14-1.39,6-2.78,8.57-4.17,2.57-1.39,4.44-2.41,5.59-3.05.38-.21.74-.05,1.08.48.33.54.38,1.23.14,2.09-.65,1.71-1.49,4.12-2.52,7.22-1.04,3.1-1.81,5.83-2.31,8.18-.12.43-.04.7.26.8.29.11.66-.05,1.11-.48,2.76-2.35,5.53-4.54,8.28-6.58,2.76-2.03,5.47-3.79,8.16-5.29,2.24-1.07,4.65-2.03,7.24-2.89,2.58-.85,5.25-1.28,8-1.28Z"/>
  <path class="cls-1" d="M263.06,168.76c.54-1.92.68-3.26.41-4.01-.27-.75-.57-1.12-.9-1.12-.65,0-1.56-.05-2.74-.16-1.18-.1-2.23-.27-3.14-.48-.33,0-.83-.21-1.52-.64-.69-.43-.94-.96-.76-1.6s.67-1.23,1.47-1.76c.79-.53,1.72-1.23,2.77-2.09.99-.64,2.2-1.49,3.63-2.57,1.43-1.07,2.79-2.14,4.06-3.21.44-.43.97-1.01,1.59-1.76.61-.75.98-1.33,1.1-1.76,1.85-5.99,3.49-11.23,4.92-15.72,1.43-4.49,2.83-8.61,4.21-12.35,1.38-3.74,2.82-7.27,4.32-10.59,1.5-3.31,3.28-6.9,5.34-10.75,1.43-2.78,3.33-6.1,5.72-9.95,2.38-3.85,5.31-7.81,8.81-11.87,3.49-4.06,7.52-8.02,12.08-11.87,4.56-3.85,9.69-7.27,15.39-10.27,3.07-1.71,6.42-2.99,10.06-3.85,3.64-.85,6.99-1.28,10.06-1.28,5.49,0,9.79,1.24,12.9,3.71,3.1,2.47,4.11,5.62,3.03,9.44-.36,1.28-1.1,2.73-2.19,4.33-1.1,1.6-2.31,3.16-3.62,4.65-1.31,1.5-2.57,2.78-3.75,3.85-1.19,1.07-2.14,1.71-2.85,1.92-.99.64-2.15,1.02-3.47,1.12-1.33.11-2.27-.27-2.84-1.12-.73-.85-1.56-2.35-2.49-4.49-.94-2.14-1.97-4.33-3.11-6.58-1.15-2.25-2.45-4.22-3.9-5.94-1.46-1.71-3.16-2.57-5.09-2.57-3.56,0-6.78,2.1-9.65,6.28-2.88,4.19-5.8,10.68-8.77,19.48-.83,2.37-1.93,5.7-3.31,9.99-1.37,4.29-2.77,8.8-4.18,13.52-1.42,4.72-2.76,9.34-4.03,13.85-1.27,4.51-2.27,8.05-3,10.62-1.15,4.08-2.11,7.62-2.88,10.63-.77,3.01-1.11,4.94-1.03,5.8-.06.22.02.64.24,1.28.22.64.58.96,1.06.96s1.63-.05,3.44-.16c1.81-.11,3.72-.16,5.74-.16s4.02-.05,5.99-.16c1.97-.11,3.28-.16,3.93-.16s1.02.8,1.14,2.41c.11,1.6-.25,3.91-1.1,6.9-.3,1.07-.86,2.2-1.68,3.37-.82,1.18-1.55,1.76-2.2,1.76-3.07,0-6.68-.1-10.82-.32-4.15-.21-7.1-.32-8.88-.32-.33,0-.7.32-1.12.96-.42.64-.7,1.18-.82,1.6-.71,1.93-2.09,6.69-4.15,14.28-2.06,7.59-4.33,15.88-6.78,24.87-2.46,8.98-4.68,17.44-6.67,25.35-1.99,7.92-3.35,13.15-4.08,15.72-1.59,6.21-2.07,10.06-1.44,11.55.63,1.5,1.42,2.57,2.37,3.21,2.08.64,4.05,1.39,5.91,2.25,1.27.64,2.11,1.12,2.5,1.44.39.32.5.8.32,1.44-.24.85-.81,1.44-1.71,1.76-.9.32-2,.48-3.29.48-2.27,0-4.3-.11-6.09-.32-1.8-.22-3.86-.38-6.17-.48-2.31-.11-4.94-.27-7.87-.48-2.93-.22-6.66-.32-11.18-.32-2.75,0-5.41.11-7.97.32-2.57.21-4.93.43-7.09.64-.97,0-1.79-.11-2.46-.32-.67-.22-.91-.64-.73-1.28.3-1.07,2.09-2.25,5.36-3.53,3.43-1.28,5.9-2.99,7.39-5.13,1.49-2.14,3.05-6.1,4.69-11.87l21.56-76.36Z"/>
  <path class="cls-1" d="M373.67,146.31c7.43,0,13.69,1.6,18.77,4.81,5.07,3.21,8.97,7.59,11.68,13.15,2.71,5.56,4.21,11.98,4.51,19.25.29,7.27-.74,15.08-3.1,23.42-1.81,6.42-4.14,12.35-6.97,17.81-2.84,5.45-5.77,10.27-8.81,14.44-3.04,4.17-6.08,7.81-9.14,10.91-3.06,3.1-5.83,5.61-8.31,7.54-5.41,4.28-11.15,7.43-17.22,9.46-6.07,2.03-11.45,3.05-16.14,3.05-7.27,0-13.49-1.6-18.65-4.81s-9.12-7.65-11.88-13.31c-2.77-5.67-4.3-12.24-4.61-19.73-.31-7.48.77-15.61,3.25-24.38,1.69-5.99,3.81-11.5,6.36-16.52,2.55-5.02,5.22-9.46,8-13.32,2.78-3.85,5.54-7.16,8.26-9.95,2.72-2.78,5.21-5.02,7.48-6.74,7.35-5.99,14.1-10,20.25-12.03,6.15-2.03,11.57-3.05,16.26-3.05ZM370.28,151.44c-2.42,0-5.05,1.28-7.88,3.85-2.83,2.57-5.69,5.99-8.6,10.27-2.91,4.28-5.66,9.3-8.26,15.08-2.6,5.77-4.81,11.87-6.62,18.29-2.23,7.92-4.21,16.2-5.93,24.87s-2.17,16.42-1.35,23.26c.69,5.56,2,9.95,3.92,13.15,1.92,3.21,4.5,4.81,7.73,4.81,3.72,0,7.42-2.25,11.12-6.74,1.96-2.35,4.88-7.27,8.77-14.76,3.89-7.48,7.53-17.22,10.91-29.2,5.62-19.89,8.32-35.34,8.12-46.36-.21-11.01-4.19-16.52-11.95-16.52Z"/>
</svg>