<?xml version="1.0" encoding="UTF-8"?>
<svg id="_レイヤー_3" data-name="レイヤー 3" xmlns="http://www.w3.org/2000/svg" viewBox="0 0 547.71 353.01">
  <defs>
    <style>
      .cls-1 {
        fill: #fff;
      }
    </style>
  </defs>
  <path class="cls-1" d="M83.56,66.04c.46-1.62,2.22-2.44,5.29-2.44,6.9,0,13.79.3,20.67.91,6.88.61,13.23.91,19.06.91.46,0,.95.3,1.47.91.52.61,1.2,2.13,2.05,4.56,1.4,4.26,3.27,9.59,5.61,15.98,2.33,6.39,4.95,13.29,7.84,20.69,2.89,7.41,5.94,15.06,9.15,22.98,3.21,7.91,6.27,15.52,9.19,22.82,2.92,7.3,5.63,14,8.13,20.08,2.5,6.09,4.58,11.06,6.25,14.91.42,1.22.78,1.57,1.08,1.06.29-.5.5-.96.62-1.37.57-2.03,1.98-7,4.21-14.91s4.75-16.84,7.56-26.78c2.81-9.94,5.57-19.88,8.31-29.82,2.73-9.94,4.8-17.95,6.21-24.04,1.95-8.52,1.98-14.2.1-17.04-1.88-2.84-4.8-4.87-8.75-6.09-1.11-.4-2.01-.91-2.67-1.52-.67-.61-.92-1.22-.75-1.83.23-.81.88-1.37,1.97-1.67,1.08-.3,2.24-.46,3.46-.46,2.15,0,4.91.26,8.29.76,3.38.51,6.23.76,8.53.76,3.07,0,6.4-.25,9.99-.76,3.59-.5,6-.76,7.23-.76,2.61,0,3.71.71,3.31,2.13-.4,1.42-2.05,2.64-4.94,3.65-5.21,1.63-8.89,4.06-11.03,7.3-2.15,3.25-3.92,6.8-5.31,10.65-1.68,4.87-3.76,11.41-6.23,19.63-2.47,8.22-5.09,16.94-7.85,26.17-2.76,9.23-5.48,18.46-8.16,27.69-2.69,9.23-5,17.3-6.95,24.19-3.9,13.8-7.26,25.56-10.08,35.3-2.83,9.74-5.21,18.56-7.13,26.48-1,4.06-2.14,6.9-3.44,8.52-1.3,1.62-2.34,2.43-3.1,2.43-.62,0-1.43-.91-2.45-2.74-1.02-1.83-1.96-4.46-2.83-7.91-.69-2.43-2.17-6.85-4.43-13.24-2.26-6.39-5.02-14-8.28-22.82-3.26-8.83-6.84-18.41-10.74-28.76-3.9-10.35-7.82-20.64-11.75-30.89-3.93-10.24-7.67-20.09-11.22-29.52-3.55-9.43-6.57-17.6-9.07-24.5-.39-.81-.9-1.01-1.55-.61-.65.41-1.06.91-1.23,1.52-.17.61-1,3.55-2.49,8.83-1.49,5.28-3.31,11.72-5.46,19.32-2.15,7.61-4.5,15.93-7.05,24.96-2.55,9.03-5.01,17.75-7.39,26.17-2.38,8.42-4.51,15.98-6.4,22.67s-3.24,11.46-4.04,14.3c-1.64,6.9-2.78,11.87-3.41,14.91-.63,3.04-.94,5.89-.91,8.52.02,2.64,1,4.62,2.93,5.93,1.93,1.32,4.05,2.49,6.37,3.5.8.41,1.47.91,1.99,1.52.52.61.63,1.42.35,2.43-.23.81-.91,1.32-2.04,1.52-1.13.2-2.15.3-3.07.3-2.15,0-4.71-.15-7.69-.46-2.98-.3-6.24-.46-9.76-.46-2.92,0-6.17.25-9.76.76-3.59.5-5.85.76-6.77.76-1.69,0-2.76-.15-3.21-.46-.45-.3-.56-.87-.33-1.67.23-.81,2-1.93,5.31-3.35,1.7-.61,3.35-1.26,4.93-1.98,1.58-.71,3.07-1.77,4.47-3.2,1.4-1.42,2.83-3.4,4.32-5.93,1.48-2.53,3.06-5.93,4.72-10.19.78-2.23,1.99-5.98,3.64-11.26,1.64-5.27,3.61-11.56,5.9-18.87,2.29-7.3,4.73-15.26,7.32-23.89,2.59-8.62,5.22-17.39,7.89-26.32,2.67-8.93,5.26-17.7,7.78-26.32,2.51-8.62,4.8-16.59,6.86-23.89,1.2-4.26,2.06-7.71,2.58-10.35.51-2.63.76-4.72.73-6.24s-.18-2.63-.43-3.35c-.26-.71-.56-1.26-.91-1.67-1.08-1.62-2.38-2.84-3.91-3.65-1.54-.81-3.37-1.52-5.49-2.13-1.58-.4-2.54-.91-2.91-1.52-.37-.61-.46-1.22-.29-1.83Z"/>
  <path class="cls-1" d="M270.94,138.77c4.6,0,8.43.96,11.49,2.89,3.06,1.93,5.41,4.46,7.05,7.61,1.64,3.15,2.56,6.7,2.74,10.65.18,3.96-.32,8.06-1.52,12.32-.4,1.42-1.04,2.59-1.91,3.5-.87.91-1.62,1.37-2.23,1.37-.77,0-2.83-.05-6.17-.15-3.35-.1-7.04-.2-11.07-.3-4.04-.1-7.96-.2-11.76-.3-3.81-.1-6.48-.15-8.01-.15h-6.9c-.31,0-.74.3-1.29.91-.56.61-.97,1.12-1.24,1.52-.65,1.22-1.37,2.94-2.15,5.17-.79,2.24-1.38,4.06-1.78,5.48-2.23,7.91-3.27,14.71-3.11,20.39.16,5.68,1.14,10.75,2.95,15.21,1.52,3.86,3.86,6.7,7.02,8.52s5.97,2.74,8.43,2.74c3.99,0,7.92-.5,11.81-1.52,3.89-1.01,7.83-3.45,11.84-7.3,1.05-1.01,1.79-1.47,2.23-1.37.43.1.53.56.3,1.37-.29,1.02-1.07,2.43-2.35,4.26-5.11,6.7-11.34,12.48-18.7,17.35-7.35,4.87-14.94,7.3-22.76,7.3-6.29,0-11.46-1.37-15.52-4.11s-7.13-6.64-9.23-11.72c-2.1-5.07-3.07-11.26-2.92-18.56.14-7.3,1.31-14.81,3.48-22.52,2.52-8.93,6.36-17.65,11.53-26.17,5.17-8.52,11.16-15.62,17.97-21.3,4.04-3.45,8.81-6.49,14.31-9.13,5.49-2.63,11.31-3.96,17.45-3.96ZM267.44,143.03c-2.61,0-5.01.91-7.21,2.74-2.21,1.83-4.55,4.16-7.04,7-2.01,2.24-3.99,5.17-5.94,8.83-1.95,3.65-3.16,6.29-3.62,7.91-.12.41-.15.81-.11,1.22.03.41.21.61.52.61h18.4c3.37,0,5.71-.96,7.03-2.89,1.31-1.93,2.17-3.6,2.57-5.02.97-3.45,1.52-6.34,1.64-8.67.12-2.33-.04-4.61-.48-6.85-.27-1.22-.92-2.33-1.93-3.35-1.02-1.01-2.29-1.52-3.83-1.52Z"/>
  <path class="cls-1" d="M325.19,142.12c2.61,0,5.6-.15,8.98-.46,3.38-.3,6.45-.46,9.21-.46,2.91,0,4.14.81,3.68,2.44-.12.41-.55.86-1.31,1.37-.76.51-1.73.96-2.92,1.37-2.32.61-3.75,1.47-4.3,2.59-.55,1.12-.91,3.1-1.1,5.94-.4,6.29-.53,14.35-.39,24.19.13,9.84.34,19.43.62,28.76.1,1.83.5,2.03,1.21.61.42-.4,1.37-1.72,2.84-3.96,1.47-2.23,3.14-4.87,4.99-7.91,1.85-3.04,3.86-6.34,6.01-9.89,2.15-3.55,4.12-6.85,5.9-9.89,1.4-2.23,2.09-4.16,2.09-5.78-.2-2.03-.32-4.72-.37-8.06-.05-3.35-.2-5.93-.45-7.76-.29-2.23-.69-4.06-1.21-5.48-.52-1.42-1.94-2.63-4.26-3.65-2.23-.81-3.17-1.83-2.82-3.04.4-1.42,1.75-2.13,4.05-2.13,2.76,0,5.61.21,8.57.61,2.95.41,5.73.61,8.34.61,4.75,0,8.69-.1,11.82-.3,3.12-.2,6.45-.3,9.98-.3,2.45,0,3.48.71,3.08,2.13-.12.41-.63.86-1.54,1.37-.91.51-1.88.96-2.92,1.37-2.63.61-4.41,1.78-5.36,3.5-.95,1.73-1.34,5.02-1.18,9.89.02,2.64.06,6.29.13,10.96.06,4.67.16,9.49.29,14.46.13,4.97.2,9.59.23,13.85.02,4.26.08,7.3.18,9.13.13.61.38.81.75.61.36-.2.6-.5.72-.91,3.5-5.88,6.87-11.72,10.12-17.5s6.95-12.52,11.12-20.24c3.79-6.89,6.05-11.66,6.8-14.3.11-.4.25-1.01.4-1.83.15-.81.16-1.67.04-2.59-.13-.91-.53-1.77-1.22-2.59-.69-.81-1.79-1.52-3.31-2.13-2.78-1.01-4-2.13-3.66-3.35.23-.81.77-1.37,1.62-1.67.85-.3,1.66-.46,2.43-.46,2.3,0,4.63.15,7,.46,2.36.3,4.47.46,6.31.46.61,0,1.54-.05,2.8-.15,1.25-.1,2.51-.2,3.77-.3,1.25-.1,2.43-.2,3.54-.3,1.1-.1,1.96-.15,2.57-.15,1.38,0,2.23.1,2.56.3.32.21.4.61.23,1.22-.17.61-.61,1.22-1.32,1.83-.71.61-2.02,1.32-3.94,2.13-2.95,1.22-5.47,2.69-7.57,4.41-2.1,1.73-4.27,4.41-6.53,8.06-2.15,3.25-4.58,7.1-7.29,11.56-2.72,4.46-5.56,9.23-8.52,14.3-2.97,5.07-6,10.25-9.1,15.52-3.1,5.28-6.03,10.35-8.78,15.22-3.98,6.5-7.31,12.32-10,17.5-2.69,5.17-5.71,10.7-9.05,16.59-2.81,5.07-4.83,7.61-6.06,7.61-.77,0-1.23-.66-1.4-1.98-.17-1.32-.24-3.09-.22-5.33.02-2.23.02-4.57.02-7,0-2.43.06-4.16.2-5.17.03-6.09,0-11.66-.1-16.74-.1-5.07-.24-9.74-.42-14-.18-4.26-.32-8.37-.43-12.32-.11-3.96-.21-7.96-.29-12.02-.04-.4-.08-.81-.12-1.22-.04-.4-.36-.1-.95.91-2.84,4.06-6.19,9.28-10.06,15.67-3.87,6.39-7.75,12.63-11.61,18.72-3.98,6.5-7.63,12.63-10.95,18.41-3.32,5.78-6.11,10.5-8.37,14.15-.65,1.22-1.69,2.84-3.1,4.87-1.42,2.03-2.51,3.04-3.27,3.04-.46,0-.81-.66-1.05-1.98-.24-1.32-.2-3.09.12-5.33.02-2.23.05-5.07.11-8.52.05-3.45.08-8.42.07-14.91-.08-4.06-.18-9.53-.31-16.43-.12-6.89-.28-13.95-.47-21.15-.19-7.2-.42-13.85-.7-19.93-.28-6.09-.61-10.35-.99-12.78-.43-2.84-.92-5.02-1.49-6.54-.57-1.52-2.29-2.89-5.17-4.11-2.28-.61-3.25-1.52-2.91-2.74.29-1.01.9-1.67,1.82-1.98.93-.3,1.78-.46,2.54-.46,2.76,0,5.6.26,8.53.76,2.92.51,7.07.76,12.44.76Z"/>
  <path class="cls-1" d="M476.1,143.64c-1.23,0-2.67.36-4.33,1.06-1.66.71-3.34,1.78-5.04,3.2-1.71,1.42-3.24,3.04-4.6,4.87-1.36,1.83-2.38,3.96-3.07,6.39-1.6,5.68-1.25,10.25,1.08,13.7,2.32,3.45,5.56,7.61,9.7,12.48,2.67,3.04,4.88,5.93,6.64,8.67,1.76,2.74,3.01,5.48,3.78,8.22.76,2.74,1.05,5.63.89,8.67-.17,3.04-.8,6.5-1.89,10.35-1.72,6.09-4.4,11.36-8.03,15.83-3.64,4.46-6.66,7.71-9.07,9.74-3.56,2.84-7.97,5.13-13.2,6.85-5.24,1.72-9.86,2.59-13.84,2.59-2.46,0-5.47-.46-9.04-1.37-3.58-.91-6.9-2.18-9.97-3.8-.66-.4-1.29-1.26-1.92-2.59-.63-1.32-.87-2.48-.74-3.5.47-2.23,1.14-5.27,2-9.13.86-3.85,1.44-6.59,1.75-8.22.36-1.83.83-3.35,1.4-4.57.57-1.22,1.09-1.83,1.55-1.83s.8.41,1.04,1.22c.23.81.35,2.54.38,5.17-.11,3.65.19,7.2.9,10.65.71,3.45,1.82,6.29,3.34,8.52,1.48,1.83,3,2.94,4.57,3.35,1.57.41,3.66.61,6.27.61,2.91,0,6.2-1.32,9.86-3.96,3.65-2.63,6.2-6.49,7.64-11.56,1.09-3.85.92-7.61-.5-11.26-1.42-3.65-4.58-8.22-9.47-13.7-2.82-3.04-4.99-6.24-6.49-9.59-1.51-3.35-2.51-6.59-3-9.74-.49-3.14-.59-6.19-.3-9.13.29-2.94.76-5.52,1.39-7.76,1.6-5.68,4.16-11.06,7.66-16.13,3.5-5.07,7.78-9.23,12.84-12.48,2.93-2.23,6.35-3.9,10.27-5.02,3.92-1.11,7.72-1.67,11.4-1.67,3.99,0,7.62.41,10.93,1.22,3.3.81,5.64,1.73,7.05,2.74.19.41.33.87.42,1.37.09.51.02,1.17-.21,1.98-.31,1.63-.7,3.71-1.19,6.24-.49,2.54-1.24,6.14-2.24,10.8-.97,3.45-2,5.17-3.07,5.17-.61,0-.93-1.32-.95-3.96.02-2.23.05-4.67.11-7.3.05-2.63-.6-5.07-1.96-7.3-1.02-1.83-2.37-3.29-4.04-4.41-1.68-1.11-3.9-1.67-6.66-1.67Z"/>
</svg>