<svg preserveAspectRatio="none" width="100%" height="100%" overflow="visible" style="display: block;" viewBox="0 0 753 317" fill="none" xmlns="http://www.w3.org/2000/svg">
<g id="nxtokyo-tokyo-v">
<path d="M0 312.529L1.84352 306.422L21.2249 290.147L101.316 22.3924H72.3752L44.7615 66.3396H39.9332L65.5279 3.26292H176.481L164.395 66.3396H159.567L158.24 22.3924H129.3L49.1996 290.147L58.7586 306.422L56.915 312.529H0Z" fill="white"/>
<path d="M306.424 312.529L308.268 306.422L327.649 290.147L407.74 22.3924L397.118 9.36993L398.961 3.26292H455.886L454.043 9.36993L435.715 22.3924L395.84 155.461L488.25 17.5126L476.428 9.36993L478.272 3.26292H515.903L514.059 9.36993L495.419 18.3211L432.301 113.54L432.349 297.062L443.342 306.422L441.499 312.529H379.365L381.209 306.422L398.415 297.88L396.689 167.256L388.758 179.461L355.634 290.147L365.193 306.422L363.349 312.529H306.424Z" fill="white"/>
<path d="M464.85 312.529L466.694 306.422L486.075 290.147L513.591 198.181L526.223 22.3924L514.059 9.36993L515.903 3.26292H574.759L572.915 9.36993L556.704 18.7301L542.99 181.087L624.788 20.7561L610.937 9.3602L612.78 3.25318H652.343L650.499 9.3602L631.147 23.6002L542.278 195.727L514.059 290.137L523.618 306.413L521.775 312.52H464.85V312.529Z" fill="white"/>
<path d="M589.049 195.337C610.098 93.602 671.139 0.00973843 716.291 0.00973843C748.518 0.00973843 761.813 50.4633 746.909 122.491C726.279 222.19 663.248 317 618.096 317C586.639 317 574.057 267.764 589.049 195.327V195.337ZM717.812 104.589C730.102 45.1744 725.908 15.0679 707.385 15.0679C681.332 15.0679 639.936 104.18 619.394 203.47C606.011 268.173 612.146 301.942 630.279 301.942C656.137 301.942 695.329 213.229 717.803 104.589H717.812Z" fill="white"/>
<path d="M92.7613 188.402C132.87 77.3069 241.95 0 312.004 0C369.933 0 390.28 53.7164 363.534 127.77C324.743 235.193 211.351 316.99 140.634 316.99C83.7192 316.99 65.5864 263.683 92.7613 188.402ZM342.953 133.468C374.693 45.5737 342.261 15.0581 298.143 15.0581C225.397 15.0581 143.726 94.8097 111.548 183.931C81.1344 268.163 114.737 301.942 155.831 301.942C201.968 301.942 299.899 252.706 342.953 133.478V133.468Z" fill="var(--fill-0, black)"/>
</g>
</svg>
